<svg width="1439" height="747" viewBox="0 0 1439 747" fill="none" xmlns="http://www.w3.org/2000/svg">
<rect width="1438" height="747" fill="#F9FAFB"/>
<path d="M1272 618.57L1272.28 618.41C1270.98 617.342 1269.54 616.33 1267.97 615.386L1255.57 608.225L1217.4 586.19L1215.52 585.102C1214.42 584.508 1213.13 584.052 1211.75 583.772C1210.37 583.492 1208.92 583.393 1207.54 583.485C1206.35 583.563 1205.2 583.679 1203.96 583.871C1157.68 589.527 1111.35 595.158 1064.97 600.766C1064.54 600.824 1064.1 600.869 1063.61 600.921C1063.39 600.944 1063.15 600.968 1062.9 600.995L1062.9 621.747L1203.96 604.747L1207.54 604.747L1211.75 604.747L1214.49 606.247L1217.4 608.225L1238.81 622.656C1249.87 621.293 1260.94 619.931 1272 618.57Z" fill="#F2F4F7"/>
<path d="M1361.46 565.505C1361.39 566.197 1361.24 566.882 1361.03 567.556C1357.47 577.193 1353.92 586.838 1350.36 596.492L1335.99 635.281C1334.96 637.73 1334.23 640.237 1333.82 642.785C1333.66 644.601 1332.65 646.302 1330.89 647.711C1329.13 649.119 1326.69 650.183 1323.82 650.792C1321.23 651.432 1318.51 651.914 1315.69 652.232C1273.97 656.932 1232.6 662.12 1191.03 667.334L1188.89 667.602C1188.42 667.656 1187.95 667.711 1187.47 667.768C1187.47 667.769 1187.47 667.769 1187.46 667.77C1186.78 667.851 1186.09 667.934 1185.36 668.015C1183.66 668.183 1181.87 668.085 1180.16 667.729C1178.45 667.373 1176.88 666.774 1175.6 665.989L1163.2 658.828L1133.22 641.517C1131.37 640.451 1129.66 639.308 1127.99 638.194L1127.98 638.193C1127.36 637.776 1126.74 637.363 1126.12 636.96L1126.08 660.247L1163.2 682.247L1175.6 688.247L1180.16 690.747L1185.36 690.747L1188.89 690.747L1320.99 671.248L1330.89 669.248L1335.99 665.99L1340.49 658.828L1344.99 642.785L1360.49 600.247L1361.46 598.247L1361.46 565.505Z" fill="#F2F4F7"/>
<path d="M1152.16 545.605C1153.85 546.933 1155.73 548.179 1157.79 549.322L1176.42 560.078L1182.71 563.721L1299.23 549.322L1299.23 527.515L1287.51 528.955C1287.49 528.957 1287.48 528.96 1287.46 528.962C1242.18 534.527 1197.26 540.047 1152.16 545.605Z" fill="#F2F4F7"/>
<path d="M1113.33 462.336L1113.33 446.566C1115.45 445.544 1121.22 444.463 1126.47 449.194C1131.73 453.925 1143.26 454.67 1148.37 454.451C1146.26 455.546 1141.02 458.218 1136.99 460.146C1131.95 462.555 1129.1 458.174 1122.97 459.05C1118.06 459.751 1114.5 461.533 1113.33 462.336Z" fill="#D92D20"/>
<path d="M1112.67 533.32L1112.67 540.747C1115.3 540.747 1122.97 539.871 1124.5 538.119C1125.96 536.448 1122.84 533.582 1112.67 533.32Z" fill="#98A2B3"/>
<path d="M1111.36 540.747L1111.36 533.301C1111.29 533.301 1111.21 533.3 1111.14 533.3C1102.03 533.3 1099.46 535.637 1099.31 536.805C1099.6 538.119 1102.42 540.747 1111.36 540.747Z" fill="#98A2B3"/>
<path fill-rule="evenodd" clip-rule="evenodd" d="M1287.51 528.955L1299.23 527.515C1298.41 526.977 1297.63 526.452 1296.88 525.943C1295.04 524.705 1293.34 523.563 1291.57 522.575C1288.3 520.588 1284.9 518.66 1281.51 516.735C1279.82 515.773 1278.12 514.811 1276.45 513.843C1272.85 511.748 1269.27 509.626 1265.68 507.5C1261.05 504.752 1256.4 501.999 1251.71 499.289C1250.02 498.249 1247.96 497.437 1245.71 496.925C1243.46 496.413 1241.09 496.217 1238.8 496.353C1236.88 496.467 1234.97 496.646 1233.11 496.889C1204.86 500.345 1176.61 503.798 1148.38 507.246C1136.52 508.72 1124.62 510.171 1112.67 511.598L1112.67 533.32C1122.84 533.582 1125.96 536.448 1124.5 538.119C1122.97 539.871 1115.3 540.747 1112.67 540.747L1111.36 540.747C1102.42 540.747 1099.6 538.119 1099.31 536.805C1099.46 535.637 1102.03 533.3 1111.14 533.3C1111.21 533.3 1111.29 533.301 1111.36 533.301L1111.36 511.755C1107.78 512.182 1104.21 512.606 1100.63 513.029C1098.59 513.169 1096.75 513.675 1095.36 514.478C1093.97 515.281 1093.1 516.342 1092.85 517.517C1092.47 519.035 1091.94 520.522 1091.42 522.009C1086.34 536.309 1081.14 550.6 1075.84 564.883C1072.01 575.263 1068.18 585.635 1064.36 595.998C1063.65 597.625 1063.16 599.296 1062.9 600.995C1063.15 600.968 1063.39 600.944 1063.61 600.921C1064.1 600.869 1064.54 600.824 1064.97 600.766C1111.35 595.158 1157.68 589.527 1203.96 583.871C1205.2 583.679 1206.35 583.563 1207.54 583.485C1208.92 583.393 1210.37 583.492 1211.75 583.772C1213.13 584.052 1214.42 584.508 1215.52 585.102L1217.4 586.19L1255.57 608.225L1267.97 615.386C1269.54 616.33 1270.98 617.342 1272.28 618.41L1272 618.57C1260.94 619.931 1249.87 621.293 1238.81 622.656C1201.36 627.265 1163.92 631.877 1126.46 636.491C1126.33 636.542 1126.21 636.608 1126.12 636.687L1126.08 636.932L1126.12 636.96C1126.74 637.363 1127.36 637.776 1127.98 638.193L1127.99 638.194C1129.66 639.308 1131.37 640.451 1133.22 641.517L1163.2 658.828L1175.6 665.989C1176.88 666.774 1178.45 667.373 1180.16 667.729C1181.87 668.085 1183.66 668.183 1185.36 668.015C1186.09 667.934 1186.78 667.851 1187.46 667.77L1187.47 667.768C1187.95 667.711 1188.42 667.656 1188.89 667.602L1191.03 667.334C1232.6 662.12 1273.97 656.932 1315.69 652.232C1318.51 651.914 1321.23 651.432 1323.82 650.792C1326.69 650.183 1329.13 649.119 1330.89 647.711C1332.65 646.302 1333.66 644.601 1333.82 642.785C1334.23 640.237 1334.96 637.73 1335.99 635.281L1350.36 596.492C1353.92 586.838 1357.47 577.193 1361.03 567.556C1361.24 566.882 1361.39 566.197 1361.46 565.505C1361.54 564.807 1361.54 564.102 1361.46 563.393C1360.84 563.444 1360.22 563.49 1359.62 563.536C1357.91 563.665 1356.27 563.788 1354.67 563.983C1310.48 569.405 1266.19 574.833 1221.8 580.265L1221.8 580.266C1220.89 580.378 1219.98 580.49 1219.06 580.576C1217.15 580.794 1215.12 580.704 1213.17 580.314C1211.21 579.925 1209.42 579.251 1207.97 578.362L1204.58 576.407L1182.71 563.721L1176.42 560.078L1157.79 549.322C1155.73 548.179 1153.85 546.933 1152.16 545.605C1197.26 540.047 1242.18 534.527 1287.46 528.962L1287.51 528.955Z" fill="#EAECF5"/>
<path d="M1112.67 441.747L1111.36 441.747L1111.36 511.755L1112.67 511.598L1112.67 441.747Z" fill="#D0D5DD"/>
<path d="M1111.36 533.301C1111.81 533.302 1112.25 533.309 1112.67 533.32L1112.67 511.598L1111.36 511.755L1111.36 533.301Z" fill="#D0D5DD"/>
<path d="M1111.36 533.301L1111.36 540.747L1112.67 540.747L1112.67 533.32C1112.25 533.309 1111.81 533.302 1111.36 533.301Z" fill="#D0D5DD"/>
</svg>
