<svg width="1440" height="598" viewBox="0 0 1440 598" fill="none" xmlns="http://www.w3.org/2000/svg">
<g clip-path="url(#clip0_15434_33577)">
<rect width="1440" height="598" fill="url(#paint0_linear_15434_33577)"/>
<g opacity="0.1">
<path d="M932.117 108.91C921.47 110.219 910.832 111.527 900.201 112.833C776.852 127.993 654.501 143.03 531.641 158.17C536.223 161.789 541.359 165.179 546.976 168.293C563.864 178.043 580.816 187.831 597.704 197.581L614.809 207.501L674.371 242.045L683.594 247.37C687.547 249.79 692.435 251.625 697.75 252.686C703.064 253.746 708.612 253.992 713.814 253.398C716.299 253.163 718.777 252.858 721.255 252.552C842.143 237.759 962.747 222.98 1083.07 208.215C1088.99 207.495 1095.07 207.133 1101.57 206.609C1101.77 208.539 1101.77 210.459 1101.57 212.36C1101.37 214.244 1100.97 216.109 1100.38 217.944C1090.7 244.185 1081.02 270.45 1071.34 296.738L1032.2 402.36C1029.39 409.028 1027.42 415.855 1026.3 422.793C1025.86 427.739 1023.1 432.371 1018.31 436.206C1013.52 440.041 1006.87 442.939 999.059 444.596C992.014 446.34 984.604 447.653 976.937 448.518C863.326 461.316 750.677 475.443 637.467 489.64C635.526 489.883 633.584 490.127 631.642 490.37C628.557 490.726 625.414 491.116 622.026 491.497C617.415 491.954 612.535 491.685 607.874 490.717C603.213 489.748 598.935 488.115 595.468 485.98L561.692 466.479C534.476 450.766 507.261 435.054 480.045 419.341C473.138 415.353 466.916 410.969 460.734 406.931C460.695 406.906 460.657 406.881 460.618 406.856L460.735 406.189C460.976 405.975 461.29 405.793 461.66 405.654C563.641 393.09 665.61 380.532 767.568 367.981C797.7 364.272 827.831 360.563 857.96 356.855C857.96 356.855 857.96 356.855 858.712 356.421C855.191 353.512 851.27 350.756 846.994 348.186L813.218 328.686L709.292 268.684C707.603 267.709 705.85 266.697 704.161 265.722C701.18 264.103 697.667 262.864 693.896 262.1C690.126 261.337 686.2 261.07 682.426 261.32C679.204 261.53 676.054 261.848 672.68 262.371C546.673 277.77 420.516 293.105 294.211 308.376C292.52 308.602 290.823 308.757 288.583 309C289.286 304.372 290.609 299.822 292.539 295.391C302.962 267.173 313.382 238.931 323.8 210.666C338.25 171.772 352.391 132.857 366.224 93.9198C367.653 89.8698 369.082 85.8198 370.135 81.6866C370.797 78.4872 373.183 75.5983 376.97 73.412C380.757 71.2258 385.76 69.848 391.302 69.4659C434.84 64.3294 478.184 59.0804 521.333 53.719C598.219 44.3295 675.125 34.9288 752.05 25.5171C757.134 24.8537 762.315 24.3667 767.568 24.0583C773.782 23.6859 780.238 24.2205 786.366 25.6149C792.493 27.0093 798.102 29.2204 802.696 32.0525C825.365 45.1403 847.643 58.6037 870.067 71.6833C883.772 79.596 897.889 87.3459 911.247 95.4589C918.053 99.2548 924.453 103.885 932.117 108.91Z" fill="black"/>
<path d="M857.96 356.855L858.712 356.421C855.191 353.512 851.27 350.756 846.994 348.186L813.218 328.686L709.292 268.684L704.161 265.722C701.18 264.103 697.667 262.864 693.896 262.1C690.126 261.337 686.2 261.07 682.426 261.32C679.204 261.53 676.054 261.848 672.68 262.371C546.673 277.77 420.516 293.105 294.211 308.376C292.52 308.602 290.823 308.757 288.583 309L288.583 365.508L672.68 319.217L682.426 319.217L693.896 319.217L701.352 323.301L709.292 328.686L767.568 367.981C797.7 364.272 827.831 360.563 857.96 356.855Z" fill="#98A2B3"/>
<path d="M1101.57 212.36C1101.37 214.244 1100.97 216.109 1100.38 217.944C1090.7 244.185 1081.02 270.45 1071.34 296.738L1032.2 402.36C1029.39 409.028 1027.42 415.855 1026.3 422.793C1025.86 427.739 1023.1 432.371 1018.31 436.206C1013.52 440.041 1006.87 442.939 999.059 444.596C992.014 446.34 984.604 447.653 976.937 448.518C863.326 461.316 750.677 475.443 637.467 489.64L631.642 490.37C628.557 490.726 625.414 491.116 622.026 491.497C617.415 491.954 612.535 491.685 607.874 490.717C603.213 489.748 598.935 488.115 595.468 485.98L561.692 466.479L480.045 419.341C473.138 415.353 466.916 410.969 460.734 406.931L460.618 470.344L561.692 530.251L595.468 546.589L607.874 553.396L622.026 553.396L631.642 553.396L991.354 500.298L1018.31 494.851L1032.2 485.98L1044.45 466.479L1056.71 422.793L1098.91 306.963L1101.57 301.517L1101.57 212.36Z" fill="#98A2B3"/>
<path d="M531.641 158.17C536.223 161.789 541.359 165.179 546.976 168.293L597.704 197.581L614.809 207.501L932.117 168.293L932.117 108.91L900.201 112.833C776.852 127.993 654.501 143.03 531.641 158.17Z" fill="#98A2B3"/>
</g>
</g>
<defs>
<linearGradient id="paint0_linear_15434_33577" x1="-0.0224251" y1="597.996" x2="423.595" y2="-422.089" gradientUnits="userSpaceOnUse">
<stop stop-color="#42307D"/>
<stop offset="1" stop-color="#7F56D9"/>
</linearGradient>
<clipPath id="clip0_15434_33577">
<rect width="1440" height="598" fill="white"/>
</clipPath>
</defs>
</svg>
