<svg width="1216" height="437" viewBox="0 0 1216 437" fill="none" xmlns="http://www.w3.org/2000/svg">
<g opacity="0.15" filter="url(#filter0_b_7122_96483)">
<path d="M464.931 574.97L464.863 574.924L464.793 574.883C444.673 563.139 428.187 546.066 417.156 525.546C417.154 525.544 417.153 525.541 417.152 525.539L247.291 205.229L247.283 205.212L247.274 205.196C242.647 196.78 239.379 187.687 237.588 178.253C233.738 156.223 238.16 136.354 253.245 119.363C264.4 107.18 279.134 98.8514 295.326 95.5783L295.362 95.5709L295.398 95.5625C405.067 69.9827 514.737 44.4297 624.406 18.9035L624.439 18.8958L624.472 18.8872C636.379 15.7723 648.482 13.4582 660.698 11.9606C685.416 9.99312 710.17 15.3006 731.909 27.2296L731.952 27.253L731.996 27.2748C756.355 39.431 776.27 58.9465 788.917 83.0547L788.92 83.0594C825.352 152.143 861.896 221.135 898.552 290.035C903.631 299.619 908.716 309.198 913.801 318.776C929.053 347.504 944.299 376.223 959.359 405.055L959.369 405.074L959.379 405.093C966.794 418.712 969.863 434.274 968.175 449.689C967.755 453.484 966.895 457.146 965.993 460.983C965.573 462.77 965.145 464.595 964.747 466.49L959.08 478.072C958.444 478.889 957.834 479.687 957.232 480.474C956.218 481.801 955.228 483.096 954.181 484.397C942.501 498.334 926.397 507.848 908.554 511.352L908.511 511.36L908.469 511.37C793.051 538.241 677.633 565.139 562.216 592.063C542.16 596.708 521.253 596.183 501.456 590.54L501.442 590.536L501.428 590.532C497.661 589.506 493.983 588.303 490.232 587.077C488.404 586.479 486.559 585.876 484.677 585.285L467.471 576.866C466.655 576.194 465.807 575.561 464.931 574.97Z" fill="url(#paint0_linear_7122_96483)" stroke="#D0D5DD" stroke-width="4.99926"/>
<path opacity="0.2" d="M523.299 506.784L505.654 498.15C504.831 497.46 503.973 496.813 503.083 496.213C482.563 484.235 465.75 466.822 454.5 445.893L284.633 125.571C279.877 116.919 276.518 107.571 274.678 97.8709C270.709 75.1787 275.269 54.5012 290.938 36.8601C302.452 24.2786 317.664 15.6783 334.381 12.2989C444.05 -13.2809 553.72 -38.834 663.39 -64.3603C675.422 -67.508 687.652 -69.8453 699.997 -71.3562C725.219 -73.3742 750.48 -67.9632 772.662 -55.7912C797.491 -43.4005 817.79 -23.5088 830.681 1.06415C867.112 70.1453 903.655 139.135 940.309 208.032C960.618 246.355 981.039 284.614 1001.12 323.068C1008.78 337.136 1011.95 353.211 1010.21 369.133C1009.57 374.937 1007.88 380.669 1006.68 386.477L1000.76 398.574C999.046 400.773 997.395 403.004 995.663 405.155C983.615 419.54 966.998 429.359 948.586 432.975C833.167 459.846 717.748 486.745 602.33 513.669C581.862 518.409 560.526 517.874 540.321 512.114C534.606 510.557 528.984 508.566 523.299 506.784Z" fill="#8098F9"/>
</g>
<path d="M32.9362 -93.3113L32.9769 -93.2843L33.0193 -93.2599C45.1412 -86.2943 55.1033 -76.1154 61.8063 -63.8464C61.8069 -63.8453 61.8075 -63.8443 61.8081 -63.8432L165.037 127.677L165.042 127.687L165.048 127.697C167.858 132.728 169.856 138.171 170.969 143.825C173.369 157.03 170.796 168.971 161.812 179.229C155.168 186.584 146.36 191.641 136.658 193.671L136.636 193.676L136.614 193.681C70.9085 209.476 5.20238 225.255 -60.5041 241.017L-60.5239 241.022L-60.5436 241.028C-67.6762 242.945 -74.9293 244.383 -82.254 245.331C-97.0786 246.612 -111.954 243.528 -125.048 236.458L-125.074 236.444L-125.1 236.431C-139.767 229.235 -151.796 217.605 -159.483 203.19L-159.485 203.187C-181.627 161.88 -203.836 120.629 -226.111 79.4329C-229.198 73.7033 -232.287 67.9771 -235.377 62.2514C-244.647 45.0726 -253.913 27.899 -263.068 10.6572L-263.074 10.6458L-263.08 10.6345C-267.585 2.49209 -269.49 -6.83383 -268.539 -16.0905C-268.303 -18.3698 -267.802 -20.5707 -267.276 -22.8774C-267.032 -23.9513 -266.782 -25.0481 -266.551 -26.1865L-263.197 -33.1596C-262.819 -33.6525 -262.456 -34.134 -262.098 -34.6087C-261.495 -35.409 -260.906 -36.1902 -260.283 -36.9753C-253.331 -45.3859 -243.706 -51.1601 -233.013 -53.3352L-232.987 -53.3404L-232.962 -53.3465C-163.811 -69.9396 -94.6611 -86.5488 -25.5112 -103.174C-13.4952 -106.042 -0.947595 -105.813 10.9553 -102.506L10.9638 -102.504L10.9723 -102.502C13.2365 -101.901 15.4486 -101.195 17.7043 -100.474C18.8039 -100.123 19.9137 -99.7682 21.0451 -99.421L31.4043 -94.4388C31.8967 -94.0388 32.4079 -93.6626 32.9362 -93.3113Z" fill="url(#paint1_linear_7122_96483)" stroke="#98A2B3" stroke-width="3"/>
<path opacity="0.2" d="M-1.81195 -52.1577L8.81138 -47.0484C9.30763 -46.6376 9.8251 -46.253 10.3616 -45.8963C22.7242 -38.7924 32.8839 -28.4111 39.7194 -15.8982L142.952 175.63C145.841 180.802 147.895 186.398 149.039 192.212C151.513 205.813 148.86 218.239 139.529 228.889C132.671 236.485 123.578 241.708 113.56 243.804C47.8539 259.599 -17.8525 275.377 -83.5592 291.14C-90.7666 293.078 -98.096 294.53 -105.498 295.487C-120.625 296.8 -135.805 293.656 -149.166 286.442C-164.115 279.107 -176.377 267.253 -184.212 252.56C-206.354 211.254 -228.562 170.003 -250.837 128.808C-263.18 105.894 -275.589 83.0187 -287.798 60.0248C-292.451 51.6141 -294.419 41.9808 -293.436 32.4191C-293.075 28.934 -292.087 25.4874 -291.389 21.9971L-287.886 14.7142C-286.866 13.3876 -285.884 12.0424 -284.853 10.7446C-277.682 2.06343 -267.751 -3.89645 -256.717 -6.14092C-187.566 -22.7342 -118.415 -39.3435 -49.2645 -55.9689C-37.0014 -58.8963 -24.1959 -58.6618 -12.0482 -55.2874C-8.61246 -54.3763 -5.23051 -53.2041 -1.81195 -52.1577Z" fill="#FEDF89"/>
<path d="M1135.51 -123.121L1135.48 -123.091L1135.43 -123.063C1123.18 -114.736 1113.46 -103.185 1107.36 -89.6848C1107.36 -89.6836 1107.36 -89.6825 1107.36 -89.6813L1013.64 120.712L1013.64 120.722L1013.63 120.732C1011.06 126.275 1009.38 132.189 1008.66 138.255C1007.17 152.409 1010.85 164.838 1021.17 174.972C1028.78 182.22 1038.5 186.865 1048.92 188.238L1048.95 188.241L1048.97 188.244C1119.59 199.684 1190.2 211.107 1260.82 222.514L1260.84 222.517L1260.86 222.521C1268.54 223.978 1276.32 224.918 1284.13 225.336C1299.9 225.508 1315.38 221.062 1328.65 212.547L1328.67 212.531L1328.7 212.516C1343.62 203.743 1355.41 190.494 1362.38 174.648L1362.38 174.645C1382.47 129.277 1402.63 83.9633 1422.86 38.7028C1425.66 32.4085 1428.47 26.1174 1431.27 19.8268C1439.69 0.954889 1448.1 -17.9117 1456.39 -36.8413L1456.4 -36.8531L1456.4 -36.8649C1460.52 -45.8352 1461.79 -55.8496 1460.04 -65.5631C1459.61 -67.9555 1458.91 -70.2472 1458.17 -72.6435C1457.82 -73.7597 1457.47 -74.8986 1457.14 -76.0809L1453.03 -83.1921C1452.59 -83.6834 1452.17 -84.1644 1451.75 -84.639C1451.05 -85.4368 1450.36 -86.2165 1449.64 -86.9963C1441.62 -95.3358 1430.98 -100.674 1419.5 -102.121L1419.47 -102.124L1419.45 -102.128C1345.13 -114.137 1270.81 -126.162 1196.49 -138.204C1183.57 -140.278 1170.32 -139.034 1158.01 -134.591L1158 -134.588L1157.99 -134.585C1155.65 -133.77 1153.37 -132.847 1151.04 -131.906C1149.91 -131.447 1148.76 -130.984 1147.6 -130.527L1137.04 -124.434C1136.55 -123.972 1136.04 -123.534 1135.51 -123.121Z" fill="url(#paint2_linear_7122_96483)" stroke="#98A2B3" stroke-width="3"/>
<path opacity="0.2" d="M1175.53 -82.3768L1164.72 -76.1373C1164.23 -75.664 1163.71 -75.2168 1163.17 -74.7976C1150.69 -66.314 1140.79 -54.5463 1134.57 -40.7931L1040.85 169.608C1038.22 175.298 1036.49 181.369 1035.75 187.596C1034.22 202.15 1038.01 215.057 1048.71 225.555C1056.55 233.028 1066.57 237.817 1077.31 239.231C1147.93 250.671 1218.54 262.094 1289.16 273.501C1296.92 274.972 1304.78 275.921 1312.67 276.342C1328.74 276.523 1344.51 271.995 1358.04 263.315C1373.24 254.382 1385.24 240.893 1392.34 224.758C1412.42 179.392 1432.58 134.079 1452.81 88.819C1464.02 63.647 1475.29 38.5115 1486.35 13.2667C1490.59 4.01768 1491.9 -6.30798 1490.1 -16.3232C1489.44 -19.9734 1488.13 -23.5329 1487.11 -27.1617L1482.83 -34.5706C1481.65 -35.8897 1480.51 -37.2315 1479.32 -38.5194C1471.05 -47.1121 1460.1 -52.6125 1448.27 -54.103C1373.95 -66.1114 1299.63 -78.1368 1225.31 -90.1792C1212.14 -92.2927 1198.64 -91.0252 1186.08 -86.4957C1182.53 -85.2603 1179.05 -83.7536 1175.53 -82.3768Z" fill="#A6F4C5"/>
<defs>
<filter id="filter0_b_7122_96483" x="104.318" y="-233.391" width="1035.82" height="992.597" filterUnits="userSpaceOnUse" color-interpolation-filters="sRGB">
<feFlood flood-opacity="0" result="BackgroundImageFix"/>
<feGaussianBlur in="BackgroundImageFix" stdDeviation="2"/>
<feComposite in2="SourceAlpha" operator="in" result="effect1_backgroundBlur_7122_96483"/>
<feBlend mode="normal" in="SourceGraphic" in2="effect1_backgroundBlur_7122_96483" result="shape"/>
</filter>
<linearGradient id="paint0_linear_7122_96483" x1="194.85" y1="83.5187" x2="686.227" y2="486.792" gradientUnits="userSpaceOnUse">
<stop stop-color="#D4F7FE" stop-opacity="0"/>
<stop offset="1" stop-color="#D4F7FE" stop-opacity="0.44"/>
</linearGradient>
<linearGradient id="paint1_linear_7122_96483" x1="197" y1="200.5" x2="-99.5001" y2="-39.5" gradientUnits="userSpaceOnUse">
<stop stop-color="#D4F7FE" stop-opacity="0"/>
<stop offset="1" stop-color="#D4F7FE" stop-opacity="0.44"/>
</linearGradient>
<linearGradient id="paint2_linear_7122_96483" x1="985.781" y1="200.165" x2="1279.65" y2="-76.7956" gradientUnits="userSpaceOnUse">
<stop stop-color="#D4F7FE" stop-opacity="0"/>
<stop offset="1" stop-color="#D4F7FE" stop-opacity="0.44"/>
</linearGradient>
</defs>
</svg>
