<svg width="40" height="40" viewBox="0 0 40 40" fill="none" xmlns="http://www.w3.org/2000/svg">
<g clip-path="url(#clip0_15497_18815)">
<rect width="40" height="40" rx="20" fill="#FEF0C7"/>
<path d="M25.7505 20.118C21.971 19.9906 10.2214 26.7012 3.92773 29.9648C10.8075 32.343 27.1761 36.4892 42.0397 50.7689C47.1358 46.7345 60.9208 38.3563 68.5549 35.967C57.5558 25.9872 33.9432 21.9583 25.7505 20.118Z" fill="#FEDF89"/>
<path d="M25.4319 15.5705C21.2827 15.4306 8.84288 22.2746 1.53906 25.3049C9.09152 27.9156 25.8398 33.2279 42.1568 48.9039C47.7513 44.475 62.9222 36.8021 70.8865 33.8689C58.8119 22.9132 34.4257 17.5907 25.4319 15.5705Z" fill="#FEC84B"/>
<path d="M29.5696 12.3076C22.227 13.0069 9.52299 18.0768 2.29688 21.6317C9.84933 24.2424 26.3645 30.3729 42.6815 46.0489C46.5044 42.0396 63.3887 35.1709 71.3529 32.2377C59.2783 21.2819 38.5634 14.3278 29.5696 12.3076Z" fill="#FDB022"/>
<path d="M26.291 16.4639C21.3282 17.7046 12.8501 20.7029 9.23145 22.047L10.4721 22.6673C13.4498 21.1785 22.8791 18.3249 27.2215 17.0842L26.291 16.4639Z" fill="#FEC84B"/>
<path d="M34.3553 16.1533C29.3926 17.394 15.9517 21.9432 12.333 23.2873L13.5737 23.9077C16.5514 22.4188 30.9434 18.0144 35.2859 16.7737L34.3553 16.1533Z" fill="#FEC84B"/>
<path d="M43.4872 19.5166C38.5244 20.7573 25.0835 25.3065 21.4648 26.6506L22.7055 27.2709C25.6832 25.7821 40.0753 21.3776 44.4177 20.1369L43.4872 19.5166Z" fill="#FEC84B"/>
<path d="M46.5643 21.0537C41.6015 22.2944 28.1607 26.8436 24.542 28.1877L25.7827 28.8081C28.7604 27.3192 43.1524 22.9148 47.4948 21.6741L46.5643 21.0537Z" fill="#FEC84B"/>
<path d="M49.6405 22.5928C44.6777 23.8335 31.2369 28.3827 27.6182 29.7268L28.8589 30.3471C31.8365 28.8583 46.2286 24.4538 50.571 23.2131L49.6405 22.5928Z" fill="#FEC84B"/>
<path d="M52.7176 24.9004C47.7549 26.1411 34.314 30.6903 30.6953 32.0344L31.936 32.6547C34.9137 31.1659 49.3057 26.7614 53.6482 25.5207L52.7176 24.9004Z" fill="#FEC84B"/>
<path d="M22.8797 21.7373C17.9169 22.978 19.0542 22.8746 15.4355 24.2187L16.6762 24.839C19.6539 23.3502 19.4678 23.5983 23.8102 22.3577L22.8797 21.7373Z" fill="#FEC84B"/>
</g>
<defs>
<clipPath id="clip0_15497_18815">
<rect width="40" height="40" rx="20" fill="white"/>
</clipPath>
</defs>
</svg>
