<svg width="40" height="40" viewBox="0 0 40 40" fill="none" xmlns="http://www.w3.org/2000/svg">
<g clip-path="url(#clip0_15566_48024)">
<rect width="40" height="40" rx="20" fill="#D1FADF"/>
<path d="M2.33442 24.5368L8.48531 24.1698L37.6566 53.9172L5.60127 60.6851L2.33442 24.5368Z" fill="#12B76A"/>
<path d="M5.66285 27.6845L10.5836 27.3909L33.9206 51.1888L8.27634 56.6031L5.66285 27.6845Z" stroke="#32D583" stroke-width="0.584198"/>
<g style="mix-blend-mode:saturation">
<path d="M7.01998 12.8674L15.667 17.137L41.1197 53.3762L40.1461 31.9474L47.7203 55.8953C25.3478 53.4685 16.0926 54.0235 5.66896 49.7351L7.01998 12.8674Z" fill="#039855"/>
</g>
<path d="M8.79758 12.8876L17.4446 17.1573L42.8973 53.3965L41.9237 31.9677L47.7212 55.8967C25.3488 53.4699 17.7991 51.6899 7.37545 47.4014L8.79758 12.8876Z" fill="#039855"/>
<path d="M11.4351 18.0927L18.5194 21.5907L39.3723 51.2806L38.5746 33.7245L43.3244 53.3291C24.9952 51.3408 18.8099 49.8825 10.27 46.369L11.4351 18.0927Z" stroke="#12B76A" stroke-width="0.584198"/>
<path d="M22.7899 2.13307C28.0636 19.2853 37.6355 27.2145 41.7623 29.0351L43.654 54.4595C26.1948 52.4497 18.3613 43.9146 12.9644 32.0436L22.7899 2.13307Z" fill="#027A48"/>
<path d="M23.1519 6.21649C27.6798 20.9431 35.8982 27.7511 39.4413 29.3142L41.0655 51.1432C26.0753 49.4176 19.3496 42.0895 14.7158 31.8973L23.1519 6.21649Z" stroke="#12B76A" stroke-width="0.584198"/>
<g style="mix-blend-mode:saturation">
<path d="M19.7234 1.42897C24.9972 18.5812 34.5691 26.5104 38.6959 28.331L40.5876 53.7554C23.1284 51.7456 15.2949 43.2105 9.89796 31.3395L19.7234 1.42897Z" fill="#027A48"/>
</g>
<ellipse cx="28.3477" cy="33.0823" rx="5.25778" ry="8.47087" transform="rotate(6.95469 28.3477 33.0823)" fill="#039855"/>
</g>
<defs>
<clipPath id="clip0_15566_48024">
<rect width="40" height="40" rx="20" fill="white"/>
</clipPath>
</defs>
</svg>
