<svg width="94" height="98" viewBox="0 0 94 98" fill="none" xmlns="http://www.w3.org/2000/svg">
<path d="M21.8698 35.2171L3.19695 56.2285C-2.79716 64.1107 0.905846 62.3905 4.04574 59.9638C14.5909 51.814 36.042 35.1083 39.2456 22.0985C43.2586 5.80127 30.3574 26.3457 21.8698 35.2171Z" fill="#FDB022"/>
<path d="M57.7636 65.6362L30.0866 70.549C20.4971 73.0186 24.4691 73.9641 28.4372 74.0062C41.7639 74.1478 68.952 74.3359 79.5303 66.1129C92.7816 55.8121 69.923 63.9361 57.7636 65.6362Z" fill="#FDB022"/>
<path d="M52.3312 45.3749L26.3609 58.2512C1.89737 70.3958 14.9747 66.3856 20.6454 64.4375C39.6901 57.895 78.4921 44.4044 89.3469 27.3737C102.945 6.03941 75.5572 34.0708 52.3312 45.3749Z" fill="#FDB022"/>
</svg>
