<svg width="40" height="40" viewBox="0 0 40 40" fill="none" xmlns="http://www.w3.org/2000/svg">
<g clip-path="url(#clip0_15497_18865)">
<rect width="40" height="40" rx="20" fill="#EBE9FE"/>
<path d="M33.113 24.3219L44.2483 22.5637L41.611 16.9961L29.8896 18.4613L33.113 24.3219Z" fill="#BDB4FE"/>
<path d="M10.5489 32.9669C15.0338 33.6418 24.7556 30.4939 29.5957 29.4478C25.478 26.7668 26.4499 13.6824 19.0463 1.90256C16.1691 3.72606 6.35924 0.458032 1.1712 1.02346C6.74577 9.35601 5.48343 30.4238 10.5489 32.9669Z" fill="#BDB4FE"/>
<path d="M10.4659 31.6485C14.9508 32.3235 24.6726 29.1756 29.5127 28.1294C25.395 25.4484 26.3669 12.3641 18.9633 0.584204C16.0861 2.4077 6.27624 -0.860327 1.08819 -0.294897C6.66276 8.03765 5.40042 29.1054 10.4659 31.6485Z" fill="#9B8AFB"/>
<path d="M11.1359 30.6231C15.6208 31.2981 25.3425 28.1502 30.1826 27.104C26.0649 24.423 27.0368 11.3387 19.6332 -0.441186C16.756 1.38231 6.94616 -1.88572 1.75812 -1.32029C7.33269 7.01226 6.07034 28.08 11.1359 30.6231Z" fill="#7A5AF8"/>
<path d="M7.70209 7.25609L11.5115 7.26005L15.021 6.42229L19.7046 6.63786" stroke="#9B8AFB" stroke-width="1.17213"/>
<path d="M8.28837 10.8361L12.7694 11.0198L15.5295 10.7939L20.1195 9.83779" stroke="#9B8AFB" stroke-width="1.17213"/>
<path d="M18.5137 14.3986L14.1642 15.4922L11.4161 15.8339L8.90534 15.9473" stroke="#9B8AFB" stroke-width="1.17213"/>
<g clip-path="url(#clip1_15497_18865)">
<path d="M22.598 24.872C22.6952 24.8493 22.7739 24.8598 22.7738 24.8956L22.7734 25.1393C22.7704 25.3128 22.7562 25.4821 22.727 25.6261C22.6986 25.7664 22.6545 25.8924 22.581 25.9748C22.562 25.9961 22.5356 26.0209 22.4968 26.045C22.4555 26.0706 22.3878 26.1027 22.2982 26.1209C22.2166 26.1375 22.1576 26.1341 22.1213 26.1285C22.0832 26.1226 22.0507 26.1115 22.0219 26.0982C21.9091 26.0459 21.7832 25.9241 21.637 25.7207C21.5711 25.629 21.5133 25.5638 21.4638 25.52C21.4592 25.535 21.4549 25.5509 21.451 25.5677C21.4317 25.652 21.4231 25.754 21.424 25.8598C21.4247 25.9406 21.4154 26.0299 21.3944 26.1097C21.384 26.1496 21.3703 26.1881 21.3528 26.2226C21.3361 26.2554 21.313 26.2907 21.2776 26.3221C21.2601 26.3376 21.2313 26.3597 21.1848 26.3816C21.1303 26.4073 21.0614 26.4279 20.993 26.4353C20.9347 26.4417 20.8944 26.4366 20.8688 26.4311C20.8416 26.4252 20.8183 26.4162 20.7976 26.4057C20.7173 26.3648 20.6305 26.2772 20.5326 26.1322C20.4356 25.9885 20.3409 25.9119 20.2588 25.8782C20.226 25.8647 20.2006 25.8604 20.1861 25.8592C20.1785 25.8633 20.1672 25.8699 20.1527 25.88C20.1255 25.899 20.0959 25.924 20.066 25.9543C20.0065 26.0146 19.9551 26.0857 19.9178 26.1512L19.7873 26.3971C19.7661 26.4369 19.6721 26.4809 19.5772 26.4953C19.4823 26.5097 19.4226 26.4891 19.4437 26.4492L19.5749 26.202L19.5753 26.2014C19.616 26.1298 19.6744 26.0478 19.7478 25.9734C19.7844 25.9363 19.8273 25.8986 19.8771 25.8639C19.9254 25.8302 19.9911 25.7917 20.0774 25.7601C20.1737 25.7248 20.2747 25.7057 20.3639 25.7054C20.4448 25.7051 20.5097 25.7201 20.5645 25.7426C20.6744 25.7877 20.778 25.8783 20.8768 26.0246C20.9358 26.112 20.9881 26.1739 21.0332 26.2159C21.0372 26.2039 21.0409 26.1913 21.0443 26.1783C21.0637 26.1045 21.0727 26.02 21.072 25.9425C21.0711 25.8344 21.0798 25.7281 21.1005 25.6381C21.1108 25.5932 21.1243 25.5513 21.1419 25.5146C21.1585 25.4799 21.1818 25.4429 21.2193 25.4104C21.2378 25.3942 21.2701 25.3701 21.324 25.3468C21.3884 25.319 21.4605 25.3024 21.5222 25.2985C21.5743 25.2952 21.6107 25.3013 21.6348 25.3074C21.6606 25.3139 21.6835 25.3234 21.7044 25.3346C21.7862 25.378 21.8768 25.4677 21.9803 25.6119C22.107 25.7881 22.2119 25.8924 22.2949 25.9441C22.3273 25.8849 22.3552 25.8013 22.3761 25.698C22.4044 25.5586 22.4184 25.3927 22.4214 25.221L22.4219 24.9778C22.4219 24.9421 22.5008 24.8947 22.598 24.872Z" fill="#BDB4FE"/>
<path d="M25.0296 24.0712C25.1268 24.0485 25.2055 24.0591 25.2055 24.0948L25.205 24.3385C25.202 24.512 25.1878 24.6814 25.1587 24.8253C25.1302 24.9656 25.0861 25.0916 25.0126 25.174C24.9936 25.1953 24.9672 25.2201 24.9284 25.2442C24.8872 25.2699 24.8194 25.3019 24.7298 25.3201C24.6482 25.3367 24.5893 25.3333 24.5529 25.3277C24.5149 25.3218 24.4823 25.3107 24.4535 25.2974C24.3408 25.2451 24.2148 25.1233 24.0687 24.9199C24.0028 24.8282 23.9449 24.7631 23.8954 24.7192C23.8908 24.7342 23.8866 24.7501 23.8827 24.7669C23.8633 24.8512 23.8547 24.9532 23.8556 25.059C23.8563 25.1398 23.8471 25.2292 23.8261 25.3089C23.8156 25.3488 23.802 25.3873 23.7844 25.4218C23.7677 25.4547 23.7446 25.4899 23.7092 25.5213C23.6918 25.5368 23.6629 25.5589 23.6164 25.5808C23.562 25.6065 23.493 25.6271 23.4246 25.6345C23.3664 25.6409 23.3261 25.6358 23.3005 25.6303C23.2733 25.6244 23.2499 25.6154 23.2293 25.6049C23.1489 25.5641 23.0622 25.4764 22.9643 25.3315C22.8672 25.1877 22.7725 25.1112 22.6904 25.0774C22.6576 25.064 22.6322 25.0596 22.6177 25.0585C22.6102 25.0625 22.5989 25.0691 22.5844 25.0792C22.5571 25.0982 22.5276 25.1232 22.4977 25.1535C22.4382 25.2138 22.3868 25.2849 22.3494 25.3504L22.2189 25.5963C22.1978 25.6361 22.1037 25.6801 22.0089 25.6945C21.914 25.7089 21.8542 25.6883 21.8754 25.6484L22.0066 25.4013L22.0069 25.4006C22.0477 25.3291 22.106 25.247 22.1794 25.1726C22.2161 25.1355 22.2589 25.0978 22.3088 25.0631C22.3571 25.0295 22.4228 24.991 22.509 24.9593C22.6054 24.924 22.7063 24.905 22.7955 24.9047C22.8765 24.9044 22.9414 24.9193 22.9961 24.9418C23.106 24.9869 23.2096 25.0775 23.3084 25.2238C23.3674 25.3112 23.4198 25.3732 23.4648 25.4151C23.4688 25.4031 23.4726 25.3905 23.476 25.3775C23.4954 25.3037 23.5043 25.2192 23.5037 25.1417C23.5027 25.0336 23.5114 24.9273 23.5321 24.8373C23.5424 24.7924 23.556 24.7505 23.5736 24.7139C23.5902 24.6791 23.6135 24.6421 23.6509 24.6096C23.6695 24.5935 23.7017 24.5693 23.7557 24.546C23.82 24.5182 23.8921 24.5016 23.9538 24.4977C24.006 24.4944 24.0424 24.5005 24.0665 24.5066C24.0922 24.5131 24.1151 24.5226 24.1361 24.5338C24.2178 24.5772 24.3084 24.667 24.412 24.8111C24.5386 24.9873 24.6435 25.0917 24.7266 25.1433C24.7589 25.0842 24.7868 25.0005 24.8078 24.8972C24.836 24.7578 24.8501 24.5919 24.8531 24.4202L24.8535 24.177C24.8536 24.1413 24.9324 24.0939 25.0296 24.0712Z" fill="#BDB4FE"/>
</g>
<path d="M5.86035 40.4386L49.2293 31.0615" stroke="#9B8AFB" stroke-width="1.17213"/>
<path d="M32.2341 24.029L43.3694 22.2708L40.7321 16.7031L29.0107 18.1683L32.2341 24.029Z" fill="#9B8AFB"/>
<path d="M31.0618 20.8053L34.8713 20.2192L33.4061 18.168L29.5967 18.461L31.0618 20.8053Z" fill="#7A5AF8"/>
<path d="M40.1453 17.2894L33.9916 18.1685L35.4568 20.2197L41.0244 19.0476L40.1453 17.2894Z" fill="#7A5AF8"/>
<path d="M41.8418 21.0978L37.4924 22.1915L34.7442 22.5331L32.2335 22.6465" stroke="#7A5AF8" stroke-width="0.586067"/>
<path d="M41.2559 19.925L36.9064 21.0186L34.1583 21.3603L31.6475 21.4736" stroke="#7A5AF8" stroke-width="0.586067"/>
</g>
<defs>
<clipPath id="clip0_15497_18865">
<rect width="40" height="40" rx="20" fill="white"/>
</clipPath>
<clipPath id="clip1_15497_18865">
<rect width="2.99765" height="8.65987" fill="white" transform="translate(26.5332 22.2705) rotate(75)"/>
</clipPath>
</defs>
</svg>
