<svg width="588" height="313" viewBox="0 0 588 313" fill="none" xmlns="http://www.w3.org/2000/svg">
<g filter="url(#filter0_d_7877_101567)">
<mask id="path-1-inside-1_7877_101567" fill="white">
<path d="M40 49.6677C40 43.0403 45.3726 37.6677 52 37.6677H536C542.627 37.6677 548 43.0403 548 49.6677V312.668H40V49.6677Z"/>
</mask>
<path d="M40 49.6677C40 43.0403 45.3726 37.6677 52 37.6677H536C542.627 37.6677 548 43.0403 548 49.6677V312.668H40V49.6677Z" fill="white" shape-rendering="crispEdges"/>
<rect x="64" y="98.6677" width="460" height="1" fill="#EAECF0"/>
<g clip-path="url(#clip0_7877_101567)">
<path d="M68.896 67.8677V77.6677H70.45V70.4577L73.39 77.6677H74.748L77.688 70.4577V77.6677H79.242V67.8677H77.198L74.118 75.5817L70.982 67.8677H68.896ZM82.3526 77.3037C82.9126 77.6117 83.5426 77.7517 84.2706 77.7517C84.9846 77.7517 85.6146 77.6117 86.1746 77.3037C86.7346 76.9957 87.1546 76.5757 87.4626 76.0157C87.7706 75.4557 87.9246 74.8117 87.9246 74.0837C87.9246 73.3697 87.7706 72.7397 87.4626 72.1797C87.1546 71.6197 86.7346 71.1857 86.1746 70.8777C85.6146 70.5697 84.9846 70.4157 84.2706 70.4157C83.5426 70.4157 82.9126 70.5697 82.3526 70.8777C81.7926 71.1857 81.3726 71.6197 81.0646 72.1797C80.7566 72.7397 80.6166 73.3697 80.6166 74.0837C80.6166 74.8117 80.7566 75.4557 81.0646 76.0157C81.3726 76.5757 81.7926 76.9957 82.3526 77.3037ZM85.7966 75.8057C85.4046 76.2537 84.9006 76.4637 84.2706 76.4637C83.6266 76.4637 83.1226 76.2537 82.7446 75.8057C82.3526 75.3577 82.1706 74.7837 82.1706 74.0837C82.1706 73.3837 82.3526 72.8237 82.7446 72.3757C83.1226 71.9277 83.6266 71.7037 84.2706 71.7037C84.9006 71.7037 85.4046 71.9277 85.7966 72.3757C86.1886 72.8237 86.3846 73.3837 86.3846 74.0837C86.3846 74.7837 86.1886 75.3577 85.7966 75.8057ZM89.2944 67.8677V77.6677H90.8484V70.4577L93.7884 77.6677H95.1464L98.0864 70.4577V77.6677H99.6404V67.8677H97.5964L94.5164 75.5817L91.3804 67.8677H89.2944ZM102.751 77.3037C103.311 77.6117 103.941 77.7517 104.669 77.7517C105.383 77.7517 106.013 77.6117 106.573 77.3037C107.133 76.9957 107.553 76.5757 107.861 76.0157C108.169 75.4557 108.323 74.8117 108.323 74.0837C108.323 73.3697 108.169 72.7397 107.861 72.1797C107.553 71.6197 107.133 71.1857 106.573 70.8777C106.013 70.5697 105.383 70.4157 104.669 70.4157C103.941 70.4157 103.311 70.5697 102.751 70.8777C102.191 71.1857 101.771 71.6197 101.463 72.1797C101.155 72.7397 101.015 73.3697 101.015 74.0837C101.015 74.8117 101.155 75.4557 101.463 76.0157C101.771 76.5757 102.191 76.9957 102.751 77.3037ZM106.195 75.8057C105.803 76.2537 105.299 76.4637 104.669 76.4637C104.025 76.4637 103.521 76.2537 103.143 75.8057C102.751 75.3577 102.569 74.7837 102.569 74.0837C102.569 73.3837 102.751 72.8237 103.143 72.3757C103.521 71.9277 104.025 71.7037 104.669 71.7037C105.299 71.7037 105.803 71.9277 106.195 72.3757C106.587 72.8237 106.783 73.3837 106.783 74.0837C106.783 74.7837 106.587 75.3577 106.195 75.8057Z" fill="#00060E"/>
<rect x="64" y="97.6677" width="49" height="2" fill="#00060E"/>
</g>
<g clip-path="url(#clip1_7877_101567)">
<path d="M137.494 67.8677H133.896V77.6677H137.62C138.782 77.6677 139.678 77.4297 140.308 76.9397C140.938 76.4637 141.26 75.7917 141.26 74.9377C141.26 73.6497 140.518 72.8797 139.062 72.6277C139.65 72.5017 140.098 72.2497 140.406 71.8717C140.714 71.4937 140.882 71.0037 140.882 70.4157C140.882 69.6177 140.574 68.9877 139.986 68.5397C139.398 68.0917 138.558 67.8677 137.494 67.8677ZM135.506 72.0257V69.2117H137.536C138.082 69.2117 138.502 69.3377 138.81 69.5897C139.118 69.8417 139.272 70.1777 139.272 70.6117C139.272 71.0597 139.118 71.3957 138.81 71.6477C138.502 71.8997 138.082 72.0257 137.536 72.0257H135.506ZM135.506 76.3097V73.3557H137.634C138.25 73.3557 138.74 73.4957 139.09 73.7477C139.426 74.0137 139.608 74.3777 139.608 74.8537C139.608 75.3157 139.426 75.6797 139.09 75.9317C138.754 76.1837 138.264 76.3097 137.634 76.3097H135.506ZM149.461 76.3517H149.167C148.845 76.3517 148.691 76.1837 148.691 75.8477V73.0197C148.691 72.1797 148.425 71.5357 147.907 71.0877C147.375 70.6397 146.633 70.4157 145.681 70.4157C144.771 70.4157 144.043 70.6257 143.483 71.0177C142.923 71.4097 142.601 71.9697 142.531 72.6837H144.015C144.071 72.3757 144.239 72.1237 144.519 71.9277C144.799 71.7317 145.163 71.6337 145.611 71.6337C146.101 71.6337 146.493 71.7597 146.773 71.9837C147.053 72.2077 147.193 72.5297 147.193 72.9217V73.3557H145.387C144.379 73.3557 143.623 73.5657 143.105 73.9577C142.573 74.3497 142.321 74.9237 142.321 75.6517C142.321 76.3097 142.559 76.8277 143.049 77.1917C143.525 77.5697 144.169 77.7517 144.981 77.7517C146.017 77.7517 146.801 77.3457 147.347 76.5197C147.347 76.8977 147.445 77.1777 147.655 77.3737C147.851 77.5697 148.187 77.6677 148.663 77.6677H149.461V76.3517ZM147.193 74.4757V74.7277C147.179 75.2877 146.997 75.7357 146.647 76.0717C146.297 76.4077 145.807 76.5757 145.191 76.5757C144.771 76.5757 144.449 76.4917 144.211 76.2957C143.973 76.1137 143.861 75.8617 143.861 75.5537C143.861 75.2037 143.987 74.9377 144.239 74.7557C144.491 74.5737 144.841 74.4757 145.317 74.4757H147.193ZM156.137 71.1997C155.605 70.6817 154.905 70.4157 154.065 70.4157C153.071 70.4157 152.301 70.7657 151.769 71.4377L151.601 70.4997H150.285V77.6677H151.797V74.0557C151.797 73.3277 151.965 72.7677 152.301 72.3477C152.637 71.9277 153.113 71.7177 153.715 71.7177C154.275 71.7177 154.695 71.8997 154.989 72.2497C155.269 72.6137 155.423 73.1317 155.423 73.8037V77.6677H156.949V73.7197C156.949 72.5717 156.669 71.7317 156.137 71.1997ZM158.324 67.8677V77.6677H159.836V75.8337L161.11 74.4897L163.238 77.6677H165.03L162.188 73.3837L164.862 70.4997H163.112L159.836 73.9997V67.8677H158.324ZM169.02 67.8677V69.2957H172.044V77.6677H173.654V69.2957H176.678V67.8677H169.02ZM181.03 70.4997H180.694C180.134 70.4997 179.7 70.5977 179.378 70.7937C179.042 70.9897 178.776 71.2417 178.58 71.5777L178.412 70.4997H177.068V77.6677H178.58V74.0697C178.58 73.4537 178.72 72.9357 179 72.5297C179.28 72.1237 179.728 71.9137 180.358 71.9137H181.03V70.4997ZM188.577 76.3517H188.283C187.961 76.3517 187.807 76.1837 187.807 75.8477V73.0197C187.807 72.1797 187.541 71.5357 187.023 71.0877C186.491 70.6397 185.749 70.4157 184.797 70.4157C183.887 70.4157 183.159 70.6257 182.599 71.0177C182.039 71.4097 181.717 71.9697 181.647 72.6837H183.131C183.187 72.3757 183.355 72.1237 183.635 71.9277C183.915 71.7317 184.279 71.6337 184.727 71.6337C185.217 71.6337 185.609 71.7597 185.889 71.9837C186.169 72.2077 186.309 72.5297 186.309 72.9217V73.3557H184.503C183.495 73.3557 182.739 73.5657 182.221 73.9577C181.689 74.3497 181.437 74.9237 181.437 75.6517C181.437 76.3097 181.675 76.8277 182.165 77.1917C182.641 77.5697 183.285 77.7517 184.097 77.7517C185.133 77.7517 185.917 77.3457 186.463 76.5197C186.463 76.8977 186.561 77.1777 186.771 77.3737C186.967 77.5697 187.303 77.6677 187.779 77.6677H188.577V76.3517ZM186.309 74.4757V74.7277C186.295 75.2877 186.113 75.7357 185.763 76.0717C185.413 76.4077 184.923 76.5757 184.307 76.5757C183.887 76.5757 183.565 76.4917 183.327 76.2957C183.089 76.1137 182.977 75.8617 182.977 75.5537C182.977 75.2037 183.103 74.9377 183.355 74.7557C183.607 74.5737 183.957 74.4757 184.433 74.4757H186.309ZM195.252 71.1997C194.72 70.6817 194.02 70.4157 193.18 70.4157C192.186 70.4157 191.416 70.7657 190.884 71.4377L190.716 70.4997H189.4V77.6677H190.912V74.0557C190.912 73.3277 191.08 72.7677 191.416 72.3477C191.752 71.9277 192.228 71.7177 192.83 71.7177C193.39 71.7177 193.81 71.8997 194.104 72.2497C194.384 72.6137 194.538 73.1317 194.538 73.8037V77.6677H196.064V73.7197C196.064 72.5717 195.784 71.7317 195.252 71.1997ZM198.643 75.3017H197.187C197.201 76.0717 197.509 76.6737 198.097 77.1077C198.685 77.5417 199.469 77.7517 200.435 77.7517C200.995 77.7517 201.513 77.6677 201.975 77.4857C202.423 77.3037 202.787 77.0377 203.053 76.7017C203.305 76.3657 203.445 75.9597 203.445 75.5117C203.445 75.0077 203.319 74.6157 203.067 74.3217C202.815 74.0277 202.479 73.8177 202.059 73.6777C201.639 73.5377 201.121 73.4397 200.505 73.3697C200.043 73.3137 199.707 73.2717 199.511 73.2297C199.301 73.1877 199.133 73.1177 198.993 73.0057C198.853 72.8937 198.797 72.7397 198.797 72.5157C198.797 72.2357 198.923 71.9977 199.203 71.8297C199.469 71.6617 199.819 71.5777 200.267 71.5777C200.701 71.5777 201.065 71.6897 201.359 71.8997C201.639 72.1097 201.807 72.3757 201.849 72.6977H203.319C203.263 71.9697 202.955 71.4097 202.395 71.0037C201.835 70.6117 201.093 70.4017 200.197 70.4017C199.637 70.4017 199.147 70.4997 198.713 70.6817C198.279 70.8777 197.943 71.1437 197.691 71.4797C197.439 71.8157 197.327 72.2077 197.327 72.6417C197.327 73.1177 197.439 73.4817 197.691 73.7617C197.943 74.0417 198.265 74.2377 198.671 74.3637C199.077 74.4897 199.595 74.5877 200.225 74.6577C200.673 74.7137 201.009 74.7697 201.233 74.8257C201.457 74.8817 201.625 74.9657 201.765 75.0777C201.891 75.2037 201.961 75.3857 201.961 75.6237C201.961 75.9177 201.807 76.1557 201.527 76.3237C201.247 76.4917 200.869 76.5757 200.421 76.5757C199.903 76.5757 199.483 76.4637 199.161 76.2257C198.839 75.9877 198.671 75.6797 198.643 75.3017ZM205.134 70.4997H203.888V71.8297H205.134V77.6677H206.66V71.8297H208.578V70.4997H206.66V69.8977C206.66 69.6597 206.702 69.4777 206.814 69.3657C206.926 69.2537 207.094 69.1977 207.346 69.1977H208.592V67.8677H207.136C206.45 67.8677 205.946 68.0357 205.624 68.3577C205.288 68.6797 205.134 69.1557 205.134 69.7857V70.4997ZM209.201 72.1657C208.907 72.7257 208.767 73.3697 208.767 74.0977C208.767 74.8257 208.907 75.4697 209.215 76.0157C209.523 76.5757 209.943 76.9957 210.503 77.3037C211.063 77.6117 211.707 77.7517 212.463 77.7517C213.317 77.7517 214.031 77.5277 214.605 77.0517C215.179 76.5897 215.529 75.9877 215.669 75.2597H214.157C214.045 75.6657 213.835 75.9737 213.527 76.1977C213.205 76.4217 212.813 76.5197 212.351 76.5197C211.763 76.5197 211.287 76.3377 210.937 75.9737C210.573 75.6097 210.377 75.1197 210.349 74.4897V74.4057H215.753C215.781 74.2097 215.795 74.0277 215.795 73.8317C215.781 73.1457 215.627 72.5437 215.319 72.0257C215.011 71.5217 214.605 71.1157 214.073 70.8357C213.541 70.5557 212.939 70.4157 212.253 70.4157C211.567 70.4157 210.965 70.5697 210.433 70.8777C209.901 71.1857 209.495 71.6057 209.201 72.1657ZM214.255 73.2997H210.405C210.461 72.7957 210.657 72.4037 211.021 72.0957C211.385 71.7877 211.805 71.6337 212.309 71.6337C212.841 71.6337 213.275 71.7877 213.625 72.0817C213.975 72.3757 214.185 72.7817 214.255 73.2997ZM220.979 70.4997H220.643C220.083 70.4997 219.649 70.5977 219.327 70.7937C218.991 70.9897 218.725 71.2417 218.529 71.5777L218.361 70.4997H217.017V77.6677H218.529V74.0697C218.529 73.4537 218.669 72.9357 218.949 72.5297C219.229 72.1237 219.677 71.9137 220.307 71.9137H220.979V70.4997Z" fill="#667085"/>
</g>
<path d="M64.3211 124.805C64.3211 122.145 66.4775 119.989 69.1376 119.989H518.862C521.522 119.989 523.679 122.145 523.679 124.805V180.347H64.3211V124.805Z" fill="#F9FAFB"/>
<path d="M77.136 143.668V132.468H79.136L82.928 139.924L86.704 132.468H88.704V143.668H87.008V135.396L83.584 142.068H82.272L78.832 135.412V143.668H77.136ZM94.6278 143.86C93.8704 143.86 93.1878 143.689 92.5798 143.348C91.9824 142.996 91.5078 142.51 91.1558 141.892C90.8038 141.262 90.6278 140.532 90.6278 139.7C90.6278 138.868 90.8038 138.142 91.1558 137.524C91.5184 136.894 92.0038 136.409 92.6118 136.068C93.2198 135.716 93.8971 135.54 94.6438 135.54C95.4011 135.54 96.0784 135.716 96.6758 136.068C97.2838 136.409 97.7638 136.894 98.1158 137.524C98.4784 138.142 98.6597 138.868 98.6597 139.7C98.6597 140.532 98.4784 141.262 98.1158 141.892C97.7638 142.51 97.2838 142.996 96.6758 143.348C96.0678 143.689 95.3851 143.86 94.6278 143.86ZM94.6278 142.404C95.0331 142.404 95.4064 142.302 95.7478 142.1C96.0998 141.897 96.3824 141.598 96.5958 141.204C96.8091 140.798 96.9158 140.297 96.9158 139.7C96.9158 139.102 96.8091 138.606 96.5958 138.212C96.3931 137.806 96.1158 137.502 95.7638 137.3C95.4224 137.097 95.0491 136.996 94.6438 136.996C94.2384 136.996 93.8598 137.097 93.5078 137.3C93.1664 137.502 92.8891 137.806 92.6758 138.212C92.4624 138.606 92.3558 139.102 92.3558 139.7C92.3558 140.297 92.4624 140.798 92.6758 141.204C92.8891 141.598 93.1664 141.897 93.5078 142.1C93.8491 142.302 94.2224 142.404 94.6278 142.404ZM100.558 143.668V132.468H102.558L106.35 139.924L110.126 132.468H112.126V143.668H110.43V135.396L107.006 142.068H105.694L102.254 135.412V143.668H100.558ZM118.05 143.86C117.292 143.86 116.61 143.689 116.002 143.348C115.404 142.996 114.93 142.51 114.578 141.892C114.226 141.262 114.05 140.532 114.05 139.7C114.05 138.868 114.226 138.142 114.578 137.524C114.94 136.894 115.426 136.409 116.034 136.068C116.642 135.716 117.319 135.54 118.066 135.54C118.823 135.54 119.5 135.716 120.098 136.068C120.706 136.409 121.186 136.894 121.538 137.524C121.9 138.142 122.082 138.868 122.082 139.7C122.082 140.532 121.9 141.262 121.538 141.892C121.186 142.51 120.706 142.996 120.098 143.348C119.49 143.689 118.807 143.86 118.05 143.86ZM118.05 142.404C118.455 142.404 118.828 142.302 119.17 142.1C119.522 141.897 119.804 141.598 120.018 141.204C120.231 140.798 120.338 140.297 120.338 139.7C120.338 139.102 120.231 138.606 120.018 138.212C119.815 137.806 119.538 137.502 119.186 137.3C118.844 137.097 118.471 136.996 118.066 136.996C117.66 136.996 117.282 137.097 116.93 137.3C116.588 137.502 116.311 137.806 116.098 138.212C115.884 138.606 115.778 139.102 115.778 139.7C115.778 140.297 115.884 140.798 116.098 141.204C116.311 141.598 116.588 141.897 116.93 142.1C117.271 142.302 117.644 142.404 118.05 142.404ZM128.011 143.668V132.468H131.643C132.955 132.468 134.032 132.697 134.875 133.156C135.728 133.614 136.358 134.265 136.763 135.108C137.179 135.94 137.387 136.932 137.387 138.084C137.387 139.225 137.179 140.217 136.763 141.06C136.358 141.892 135.728 142.537 134.875 142.996C134.032 143.444 132.955 143.668 131.643 143.668H128.011ZM129.707 142.228H131.579C132.592 142.228 133.392 142.062 133.979 141.732C134.576 141.401 135.003 140.926 135.259 140.308C135.526 139.689 135.659 138.948 135.659 138.084C135.659 137.22 135.526 136.473 135.259 135.844C135.003 135.214 134.576 134.734 133.979 134.404C133.392 134.062 132.592 133.892 131.579 133.892H129.707V142.228ZM142.909 143.86C142.13 143.86 141.437 143.689 140.829 143.348C140.232 142.996 139.762 142.51 139.421 141.892C139.08 141.273 138.909 140.553 138.909 139.732C138.909 138.9 139.074 138.169 139.405 137.54C139.746 136.91 140.216 136.42 140.813 136.068C141.421 135.716 142.125 135.54 142.925 135.54C143.704 135.54 144.381 135.716 144.957 136.068C145.533 136.409 145.981 136.868 146.301 137.444C146.621 138.02 146.781 138.654 146.781 139.348C146.781 139.454 146.776 139.572 146.765 139.7C146.765 139.817 146.76 139.95 146.749 140.1H140.573C140.626 140.868 140.877 141.454 141.325 141.86C141.784 142.254 142.312 142.452 142.909 142.452C143.389 142.452 143.789 142.345 144.109 142.132C144.44 141.908 144.685 141.609 144.845 141.236H146.541C146.328 141.982 145.901 142.606 145.261 143.108C144.632 143.609 143.848 143.86 142.909 143.86ZM142.909 136.932C142.344 136.932 141.842 137.102 141.405 137.444C140.968 137.774 140.701 138.276 140.605 138.948H145.085C145.053 138.329 144.834 137.838 144.429 137.476C144.024 137.113 143.517 136.932 142.909 136.932ZM151.666 143.668C150.887 143.668 150.268 143.481 149.81 143.108C149.351 142.724 149.122 142.046 149.122 141.076V137.156H147.762V135.732H149.122L149.33 133.716H150.818V135.732H153.058V137.156H150.818V141.076C150.818 141.513 150.908 141.817 151.09 141.988C151.282 142.148 151.607 142.228 152.066 142.228H152.978V143.668H151.666ZM157.494 143.86C156.822 143.86 156.268 143.748 155.83 143.524C155.393 143.3 155.068 143.006 154.854 142.644C154.641 142.27 154.534 141.865 154.534 141.428C154.534 140.66 154.833 140.052 155.43 139.604C156.028 139.156 156.881 138.932 157.99 138.932H160.07V138.788C160.07 138.169 159.9 137.705 159.558 137.396C159.228 137.086 158.796 136.932 158.262 136.932C157.793 136.932 157.382 137.049 157.03 137.284C156.689 137.508 156.481 137.844 156.406 138.292H154.71C154.764 137.716 154.956 137.225 155.286 136.82C155.628 136.404 156.054 136.089 156.566 135.876C157.089 135.652 157.66 135.54 158.278 135.54C159.388 135.54 160.246 135.833 160.854 136.42C161.462 136.996 161.766 137.785 161.766 138.788V143.668H160.294L160.15 142.308C159.926 142.745 159.601 143.113 159.174 143.412C158.748 143.71 158.188 143.86 157.494 143.86ZM157.83 142.484C158.289 142.484 158.673 142.377 158.982 142.164C159.302 141.94 159.548 141.646 159.718 141.284C159.9 140.921 160.012 140.521 160.054 140.084H158.166C157.494 140.084 157.014 140.201 156.726 140.436C156.449 140.67 156.31 140.964 156.31 141.316C156.31 141.678 156.444 141.966 156.71 142.18C156.988 142.382 157.361 142.484 157.83 142.484ZM164.704 134.228C164.384 134.228 164.117 134.132 163.904 133.94C163.701 133.737 163.6 133.486 163.6 133.188C163.6 132.889 163.701 132.644 163.904 132.452C164.117 132.249 164.384 132.148 164.704 132.148C165.024 132.148 165.285 132.249 165.488 132.452C165.701 132.644 165.808 132.889 165.808 133.188C165.808 133.486 165.701 133.737 165.488 133.94C165.285 134.132 165.024 134.228 164.704 134.228ZM163.856 143.668V135.732H165.552V143.668H163.856ZM167.791 143.668V132.148H169.487V143.668H167.791ZM174.803 143.86C173.8 143.86 172.973 143.614 172.323 143.124C171.672 142.633 171.299 141.982 171.203 141.172H172.914C173 141.534 173.203 141.849 173.523 142.116C173.843 142.372 174.264 142.5 174.786 142.5C175.299 142.5 175.672 142.393 175.907 142.18C176.141 141.966 176.259 141.721 176.259 141.444C176.259 141.038 176.093 140.766 175.763 140.628C175.443 140.478 174.995 140.345 174.419 140.228C173.971 140.132 173.523 140.004 173.075 139.844C172.637 139.684 172.269 139.46 171.971 139.172C171.683 138.873 171.539 138.473 171.539 137.972C171.539 137.278 171.805 136.702 172.339 136.244C172.872 135.774 173.619 135.54 174.579 135.54C175.464 135.54 176.179 135.753 176.723 136.18C177.277 136.606 177.603 137.209 177.699 137.988H176.067C176.013 137.646 175.853 137.38 175.587 137.188C175.331 136.996 174.984 136.9 174.547 136.9C174.12 136.9 173.789 136.99 173.555 137.172C173.32 137.342 173.203 137.566 173.203 137.844C173.203 138.121 173.363 138.34 173.683 138.5C174.013 138.66 174.445 138.804 174.979 138.932C175.512 139.049 176.003 139.188 176.451 139.348C176.909 139.497 177.277 139.721 177.555 140.02C177.832 140.318 177.971 140.756 177.971 141.332C177.981 142.057 177.699 142.66 177.123 143.14C176.557 143.62 175.784 143.86 174.803 143.86Z" fill="#101828"/>
<path d="M76.888 166.668V158.268H78.064L81.088 164.124L84.088 158.268H85.276V166.668H84.268V160.068L81.46 165.468H80.704L77.896 160.08V166.668H76.888ZM88.9682 166.812C88.4722 166.812 88.0602 166.728 87.7322 166.56C87.4042 166.392 87.1602 166.168 87.0002 165.888C86.8402 165.608 86.7602 165.304 86.7602 164.976C86.7602 164.368 86.9922 163.9 87.4562 163.572C87.9202 163.244 88.5522 163.08 89.3522 163.08H90.9602V163.008C90.9602 162.488 90.8242 162.096 90.5522 161.832C90.2802 161.56 89.9162 161.424 89.4602 161.424C89.0682 161.424 88.7282 161.524 88.4402 161.724C88.1602 161.916 87.9842 162.2 87.9122 162.576H86.8802C86.9202 162.144 87.0642 161.78 87.3122 161.484C87.5682 161.188 87.8842 160.964 88.2602 160.812C88.6362 160.652 89.0362 160.572 89.4602 160.572C90.2922 160.572 90.9162 160.796 91.3322 161.244C91.7562 161.684 91.9682 162.272 91.9682 163.008V166.668H91.0682L91.0082 165.6C90.8402 165.936 90.5922 166.224 90.2642 166.464C89.9442 166.696 89.5122 166.812 88.9682 166.812ZM89.1242 165.96C89.5082 165.96 89.8362 165.86 90.1082 165.66C90.3882 165.46 90.6002 165.2 90.7442 164.88C90.8882 164.56 90.9602 164.224 90.9602 163.872V163.86H89.4362C88.8442 163.86 88.4242 163.964 88.1762 164.172C87.9362 164.372 87.8162 164.624 87.8162 164.928C87.8162 165.24 87.9282 165.492 88.1522 165.684C88.3842 165.868 88.7082 165.96 89.1242 165.96ZM93.4803 166.668V158.028H94.4883V163.224L96.9243 160.716H98.1603L95.5203 163.404L98.4963 166.668H97.2123L94.4883 163.584V166.668H93.4803ZM101.77 166.812C101.202 166.812 100.698 166.684 100.258 166.428C99.8176 166.164 99.4696 165.8 99.2136 165.336C98.9656 164.872 98.8416 164.324 98.8416 163.692C98.8416 163.068 98.9656 162.524 99.2136 162.06C99.4616 161.588 99.8056 161.224 100.246 160.968C100.694 160.704 101.21 160.572 101.794 160.572C102.37 160.572 102.866 160.704 103.282 160.968C103.706 161.224 104.03 161.564 104.254 161.988C104.478 162.412 104.59 162.868 104.59 163.356C104.59 163.444 104.586 163.532 104.578 163.62C104.578 163.708 104.578 163.808 104.578 163.92H99.8376C99.8616 164.376 99.9656 164.756 100.15 165.06C100.342 165.356 100.578 165.58 100.858 165.732C101.146 165.884 101.45 165.96 101.77 165.96C102.186 165.96 102.534 165.864 102.814 165.672C103.094 165.48 103.298 165.22 103.426 164.892H104.422C104.262 165.444 103.954 165.904 103.498 166.272C103.05 166.632 102.474 166.812 101.77 166.812ZM101.77 161.424C101.29 161.424 100.862 161.572 100.486 161.868C100.118 162.156 99.9056 162.58 99.8496 163.14H103.594C103.57 162.604 103.386 162.184 103.042 161.88C102.698 161.576 102.274 161.424 101.77 161.424ZM109.101 169.308V160.716H110.013L110.109 161.7C110.301 161.412 110.573 161.152 110.925 160.92C111.285 160.688 111.741 160.572 112.293 160.572C112.885 160.572 113.401 160.708 113.841 160.98C114.281 161.252 114.621 161.624 114.861 162.096C115.109 162.568 115.233 163.104 115.233 163.704C115.233 164.304 115.109 164.84 114.861 165.312C114.621 165.776 114.277 166.144 113.829 166.416C113.389 166.68 112.873 166.812 112.281 166.812C111.793 166.812 111.357 166.712 110.973 166.512C110.597 166.312 110.309 166.032 110.109 165.672V169.308H109.101ZM112.173 165.936C112.573 165.936 112.925 165.844 113.229 165.66C113.533 165.468 113.773 165.204 113.949 164.868C114.125 164.532 114.213 164.14 114.213 163.692C114.213 163.244 114.125 162.852 113.949 162.516C113.773 162.18 113.533 161.92 113.229 161.736C112.925 161.544 112.573 161.448 112.173 161.448C111.773 161.448 111.421 161.544 111.117 161.736C110.813 161.92 110.573 162.18 110.397 162.516C110.221 162.852 110.133 163.244 110.133 163.692C110.133 164.14 110.221 164.532 110.397 164.868C110.573 165.204 110.813 165.468 111.117 165.66C111.421 165.844 111.773 165.936 112.173 165.936ZM118.617 166.812C118.121 166.812 117.709 166.728 117.381 166.56C117.053 166.392 116.809 166.168 116.649 165.888C116.489 165.608 116.409 165.304 116.409 164.976C116.409 164.368 116.641 163.9 117.105 163.572C117.569 163.244 118.201 163.08 119.001 163.08H120.609V163.008C120.609 162.488 120.473 162.096 120.201 161.832C119.929 161.56 119.565 161.424 119.109 161.424C118.717 161.424 118.377 161.524 118.089 161.724C117.809 161.916 117.633 162.2 117.561 162.576H116.529C116.569 162.144 116.713 161.78 116.961 161.484C117.217 161.188 117.533 160.964 117.909 160.812C118.285 160.652 118.685 160.572 119.109 160.572C119.941 160.572 120.565 160.796 120.981 161.244C121.405 161.684 121.617 162.272 121.617 163.008V166.668H120.717L120.657 165.6C120.489 165.936 120.241 166.224 119.913 166.464C119.593 166.696 119.161 166.812 118.617 166.812ZM118.773 165.96C119.157 165.96 119.485 165.86 119.757 165.66C120.037 165.46 120.249 165.2 120.393 164.88C120.537 164.56 120.609 164.224 120.609 163.872V163.86H119.085C118.493 163.86 118.073 163.964 117.825 164.172C117.585 164.372 117.465 164.624 117.465 164.928C117.465 165.24 117.577 165.492 117.801 165.684C118.033 165.868 118.357 165.96 118.773 165.96ZM123.601 169.308L125.077 166.092H124.729L122.365 160.716H123.457L125.425 165.348L127.513 160.716H128.557L124.657 169.308H123.601ZM129.621 166.668V160.716H130.533L130.605 161.58C130.797 161.26 131.053 161.012 131.373 160.836C131.693 160.66 132.053 160.572 132.453 160.572C132.925 160.572 133.329 160.668 133.665 160.86C134.009 161.052 134.273 161.344 134.457 161.736C134.665 161.376 134.949 161.092 135.309 160.884C135.677 160.676 136.073 160.572 136.497 160.572C137.209 160.572 137.777 160.788 138.201 161.22C138.625 161.644 138.837 162.3 138.837 163.188V166.668H137.841V163.296C137.841 162.68 137.717 162.216 137.469 161.904C137.221 161.592 136.865 161.436 136.401 161.436C135.921 161.436 135.521 161.624 135.201 162C134.889 162.368 134.733 162.896 134.733 163.584V166.668H133.725V163.296C133.725 162.68 133.601 162.216 133.353 161.904C133.105 161.592 132.749 161.436 132.285 161.436C131.813 161.436 131.417 161.624 131.097 162C130.785 162.368 130.629 162.896 130.629 163.584V166.668H129.621ZM143.031 166.812C142.463 166.812 141.959 166.684 141.519 166.428C141.079 166.164 140.731 165.8 140.475 165.336C140.227 164.872 140.103 164.324 140.103 163.692C140.103 163.068 140.227 162.524 140.475 162.06C140.723 161.588 141.067 161.224 141.507 160.968C141.955 160.704 142.471 160.572 143.055 160.572C143.631 160.572 144.127 160.704 144.543 160.968C144.967 161.224 145.291 161.564 145.515 161.988C145.739 162.412 145.851 162.868 145.851 163.356C145.851 163.444 145.847 163.532 145.839 163.62C145.839 163.708 145.839 163.808 145.839 163.92H141.099C141.123 164.376 141.227 164.756 141.411 165.06C141.603 165.356 141.839 165.58 142.119 165.732C142.407 165.884 142.711 165.96 143.031 165.96C143.447 165.96 143.795 165.864 144.075 165.672C144.355 165.48 144.559 165.22 144.687 164.892H145.683C145.523 165.444 145.215 165.904 144.759 166.272C144.311 166.632 143.735 166.812 143.031 166.812ZM143.031 161.424C142.551 161.424 142.123 161.572 141.747 161.868C141.379 162.156 141.167 162.58 141.111 163.14H144.855C144.831 162.604 144.647 162.184 144.303 161.88C143.959 161.576 143.535 161.424 143.031 161.424ZM147.187 166.668V160.716H148.099L148.159 161.784C148.351 161.408 148.627 161.112 148.987 160.896C149.347 160.68 149.755 160.572 150.211 160.572C150.915 160.572 151.475 160.788 151.891 161.22C152.315 161.644 152.527 162.3 152.527 163.188V166.668H151.519V163.296C151.519 162.056 151.007 161.436 149.983 161.436C149.471 161.436 149.043 161.624 148.699 162C148.363 162.368 148.195 162.896 148.195 163.584V166.668H147.187ZM156.407 166.668C155.863 166.668 155.435 166.536 155.123 166.272C154.811 166.008 154.655 165.532 154.655 164.844V161.568H153.623V160.716H154.655L154.787 159.288H155.663V160.716H157.415V161.568H155.663V164.844C155.663 165.22 155.739 165.476 155.891 165.612C156.043 165.74 156.311 165.804 156.695 165.804H157.319V166.668H156.407ZM164.043 166.812C163.339 166.812 162.779 166.6 162.363 166.176C161.947 165.744 161.739 165.084 161.739 164.196V160.716H162.747V164.088C162.747 165.328 163.255 165.948 164.271 165.948C164.791 165.948 165.219 165.764 165.555 165.396C165.899 165.02 166.071 164.488 166.071 163.8V160.716H167.079V166.668H166.167L166.095 165.6C165.911 165.976 165.635 166.272 165.267 166.488C164.907 166.704 164.499 166.812 164.043 166.812ZM171.018 166.812C170.306 166.812 169.714 166.632 169.242 166.272C168.77 165.912 168.494 165.424 168.414 164.808H169.446C169.51 165.12 169.674 165.392 169.938 165.624C170.21 165.848 170.574 165.96 171.03 165.96C171.454 165.96 171.766 165.872 171.966 165.696C172.166 165.512 172.266 165.296 172.266 165.048C172.266 164.688 172.134 164.448 171.87 164.328C171.614 164.208 171.25 164.1 170.778 164.004C170.458 163.94 170.138 163.848 169.818 163.728C169.498 163.608 169.23 163.44 169.014 163.224C168.798 163 168.69 162.708 168.69 162.348C168.69 161.828 168.882 161.404 169.266 161.076C169.658 160.74 170.186 160.572 170.85 160.572C171.482 160.572 171.998 160.732 172.398 161.052C172.806 161.364 173.042 161.812 173.106 162.396H172.11C172.07 162.092 171.938 161.856 171.714 161.688C171.498 161.512 171.206 161.424 170.838 161.424C170.478 161.424 170.198 161.5 169.998 161.652C169.806 161.804 169.71 162.004 169.71 162.252C169.71 162.492 169.834 162.68 170.082 162.816C170.338 162.952 170.682 163.068 171.114 163.164C171.482 163.244 171.83 163.344 172.158 163.464C172.494 163.576 172.766 163.748 172.974 163.98C173.19 164.204 173.298 164.532 173.298 164.964C173.306 165.5 173.102 165.944 172.686 166.296C172.278 166.64 171.722 166.812 171.018 166.812ZM175.35 159.396C175.15 159.396 174.982 159.332 174.846 159.204C174.718 159.068 174.654 158.9 174.654 158.7C174.654 158.508 174.718 158.348 174.846 158.22C174.982 158.092 175.15 158.028 175.35 158.028C175.542 158.028 175.706 158.092 175.842 158.22C175.978 158.348 176.046 158.508 176.046 158.7C176.046 158.9 175.978 159.068 175.842 159.204C175.706 159.332 175.542 159.396 175.35 159.396ZM174.846 166.668V160.716H175.854V166.668H174.846ZM177.609 166.668V160.716H178.521L178.581 161.784C178.773 161.408 179.049 161.112 179.409 160.896C179.769 160.68 180.177 160.572 180.633 160.572C181.337 160.572 181.897 160.788 182.313 161.22C182.737 161.644 182.949 162.3 182.949 163.188V166.668H181.941V163.296C181.941 162.056 181.429 161.436 180.405 161.436C179.893 161.436 179.465 161.624 179.121 162C178.785 162.368 178.617 162.896 178.617 163.584V166.668H177.609ZM186.828 164.796C186.492 164.796 186.184 164.752 185.904 164.664L185.304 165.228C185.392 165.292 185.5 165.348 185.628 165.396C185.764 165.436 185.956 165.476 186.204 165.516C186.452 165.548 186.8 165.584 187.248 165.624C188.048 165.68 188.62 165.864 188.964 166.176C189.308 166.488 189.48 166.896 189.48 167.4C189.48 167.744 189.384 168.072 189.192 168.384C189.008 168.696 188.72 168.952 188.328 169.152C187.944 169.352 187.448 169.452 186.84 169.452C186.304 169.452 185.828 169.38 185.412 169.236C184.996 169.1 184.672 168.888 184.44 168.6C184.208 168.32 184.092 167.964 184.092 167.532C184.092 167.308 184.152 167.064 184.272 166.8C184.392 166.544 184.616 166.3 184.944 166.068C184.768 165.996 184.616 165.92 184.488 165.84C184.368 165.752 184.256 165.656 184.152 165.552V165.276L185.172 164.268C184.7 163.868 184.464 163.34 184.464 162.684C184.464 162.292 184.556 161.936 184.74 161.616C184.924 161.296 185.192 161.044 185.544 160.86C185.896 160.668 186.324 160.572 186.828 160.572C187.172 160.572 187.484 160.62 187.764 160.716H189.96V161.472L188.844 161.52C189.076 161.856 189.192 162.244 189.192 162.684C189.192 163.076 189.096 163.432 188.904 163.752C188.72 164.072 188.452 164.328 188.1 164.52C187.756 164.704 187.332 164.796 186.828 164.796ZM186.828 163.968C187.252 163.968 187.588 163.86 187.836 163.644C188.092 163.42 188.22 163.1 188.22 162.684C188.22 162.276 188.092 161.964 187.836 161.748C187.588 161.524 187.252 161.412 186.828 161.412C186.396 161.412 186.052 161.524 185.796 161.748C185.548 161.964 185.424 162.276 185.424 162.684C185.424 163.1 185.548 163.42 185.796 163.644C186.052 163.86 186.396 163.968 186.828 163.968ZM185.076 167.436C185.076 167.836 185.244 168.132 185.58 168.324C185.916 168.524 186.336 168.624 186.84 168.624C187.336 168.624 187.732 168.516 188.028 168.3C188.332 168.084 188.484 167.796 188.484 167.436C188.484 167.18 188.38 166.956 188.172 166.764C187.964 166.58 187.58 166.472 187.02 166.44C186.58 166.408 186.2 166.368 185.88 166.32C185.552 166.496 185.336 166.684 185.232 166.884C185.128 167.092 185.076 167.276 185.076 167.436ZM196.625 166.668C196.081 166.668 195.653 166.536 195.341 166.272C195.029 166.008 194.873 165.532 194.873 164.844V161.568H193.841V160.716H194.873L195.005 159.288H195.881V160.716H197.633V161.568H195.881V164.844C195.881 165.22 195.957 165.476 196.109 165.612C196.261 165.74 196.529 165.804 196.913 165.804H197.537V166.668H196.625ZM198.914 166.668V158.028H199.922V161.736C200.122 161.368 200.406 161.084 200.774 160.884C201.142 160.676 201.542 160.572 201.974 160.572C202.662 160.572 203.214 160.788 203.63 161.22C204.046 161.644 204.254 162.3 204.254 163.188V166.668H203.258V163.296C203.258 162.056 202.758 161.436 201.758 161.436C201.238 161.436 200.802 161.624 200.45 162C200.098 162.368 199.922 162.896 199.922 163.584V166.668H198.914ZM208.457 166.812C207.889 166.812 207.385 166.684 206.945 166.428C206.505 166.164 206.157 165.8 205.901 165.336C205.653 164.872 205.529 164.324 205.529 163.692C205.529 163.068 205.653 162.524 205.901 162.06C206.149 161.588 206.493 161.224 206.933 160.968C207.381 160.704 207.897 160.572 208.481 160.572C209.057 160.572 209.553 160.704 209.969 160.968C210.393 161.224 210.717 161.564 210.941 161.988C211.165 162.412 211.277 162.868 211.277 163.356C211.277 163.444 211.273 163.532 211.265 163.62C211.265 163.708 211.265 163.808 211.265 163.92H206.525C206.549 164.376 206.653 164.756 206.837 165.06C207.029 165.356 207.265 165.58 207.545 165.732C207.833 165.884 208.137 165.96 208.457 165.96C208.873 165.96 209.221 165.864 209.501 165.672C209.781 165.48 209.985 165.22 210.113 164.892H211.109C210.949 165.444 210.641 165.904 210.185 166.272C209.737 166.632 209.161 166.812 208.457 166.812ZM208.457 161.424C207.977 161.424 207.549 161.572 207.173 161.868C206.805 162.156 206.593 162.58 206.537 163.14H210.281C210.257 162.604 210.073 162.184 209.729 161.88C209.385 161.576 208.961 161.424 208.457 161.424ZM218.885 166.812C218.309 166.812 217.785 166.7 217.313 166.476C216.849 166.244 216.477 165.888 216.197 165.408C215.917 164.928 215.777 164.316 215.777 163.572V158.268H216.785V163.584C216.785 164.4 216.981 164.992 217.373 165.36C217.765 165.728 218.277 165.912 218.909 165.912C219.541 165.912 220.049 165.728 220.433 165.36C220.817 164.992 221.009 164.4 221.009 163.584V158.268H222.017V163.572C222.017 164.316 221.877 164.928 221.597 165.408C221.317 165.888 220.941 166.244 220.469 166.476C219.997 166.7 219.469 166.812 218.885 166.812ZM226.4 166.812C225.784 166.812 225.248 166.7 224.792 166.476C224.336 166.252 223.984 165.94 223.736 165.54C223.488 165.14 223.364 164.676 223.364 164.148H224.42C224.42 164.476 224.496 164.78 224.648 165.06C224.8 165.332 225.02 165.552 225.308 165.72C225.604 165.88 225.968 165.96 226.4 165.96C226.968 165.96 227.408 165.824 227.72 165.552C228.032 165.28 228.188 164.94 228.188 164.532C228.188 164.196 228.116 163.928 227.972 163.728C227.828 163.52 227.632 163.352 227.384 163.224C227.144 163.096 226.864 162.984 226.544 162.888C226.232 162.792 225.904 162.684 225.56 162.564C224.912 162.34 224.432 162.064 224.12 161.736C223.808 161.4 223.652 160.964 223.652 160.428C223.644 159.98 223.748 159.584 223.964 159.24C224.18 158.888 224.484 158.616 224.876 158.424C225.276 158.224 225.748 158.124 226.292 158.124C226.828 158.124 227.292 158.224 227.684 158.424C228.084 158.624 228.392 158.9 228.608 159.252C228.832 159.604 228.948 160.004 228.956 160.452H227.9C227.9 160.22 227.84 159.992 227.72 159.768C227.6 159.536 227.416 159.348 227.168 159.204C226.928 159.06 226.624 158.988 226.256 158.988C225.8 158.98 225.424 159.096 225.128 159.336C224.84 159.576 224.696 159.908 224.696 160.332C224.696 160.692 224.796 160.968 224.996 161.16C225.204 161.352 225.492 161.512 225.86 161.64C226.228 161.76 226.652 161.9 227.132 162.06C227.532 162.204 227.892 162.372 228.212 162.564C228.532 162.756 228.78 163.004 228.956 163.308C229.14 163.612 229.232 164 229.232 164.472C229.232 164.872 229.128 165.252 228.92 165.612C228.712 165.964 228.396 166.252 227.972 166.476C227.556 166.7 227.032 166.812 226.4 166.812ZM233.337 166.812C232.721 166.812 232.185 166.7 231.729 166.476C231.273 166.252 230.921 165.94 230.673 165.54C230.425 165.14 230.301 164.676 230.301 164.148H231.357C231.357 164.476 231.433 164.78 231.585 165.06C231.737 165.332 231.957 165.552 232.245 165.72C232.541 165.88 232.905 165.96 233.337 165.96C233.905 165.96 234.345 165.824 234.657 165.552C234.969 165.28 235.125 164.94 235.125 164.532C235.125 164.196 235.053 163.928 234.909 163.728C234.765 163.52 234.569 163.352 234.321 163.224C234.081 163.096 233.801 162.984 233.481 162.888C233.169 162.792 232.841 162.684 232.497 162.564C231.849 162.34 231.369 162.064 231.057 161.736C230.745 161.4 230.589 160.964 230.589 160.428C230.581 159.98 230.685 159.584 230.901 159.24C231.117 158.888 231.421 158.616 231.813 158.424C232.213 158.224 232.685 158.124 233.229 158.124C233.765 158.124 234.229 158.224 234.621 158.424C235.021 158.624 235.329 158.9 235.545 159.252C235.769 159.604 235.885 160.004 235.893 160.452H234.837C234.837 160.22 234.777 159.992 234.657 159.768C234.537 159.536 234.353 159.348 234.105 159.204C233.865 159.06 233.561 158.988 233.193 158.988C232.737 158.98 232.361 159.096 232.065 159.336C231.777 159.576 231.633 159.908 231.633 160.332C231.633 160.692 231.733 160.968 231.933 161.16C232.141 161.352 232.429 161.512 232.797 161.64C233.165 161.76 233.589 161.9 234.069 162.06C234.469 162.204 234.829 162.372 235.149 162.564C235.469 162.756 235.717 163.004 235.893 163.308C236.077 163.612 236.169 164 236.169 164.472C236.169 164.872 236.065 165.252 235.857 165.612C235.649 165.964 235.333 166.252 234.909 166.476C234.493 166.7 233.969 166.812 233.337 166.812ZM237.599 166.668V158.268H240.179C241.659 158.268 242.747 158.644 243.443 159.396C244.147 160.148 244.499 161.18 244.499 162.492C244.499 163.78 244.147 164.8 243.443 165.552C242.747 166.296 241.659 166.668 240.179 166.668H237.599ZM238.607 165.828H240.155C240.971 165.828 241.619 165.696 242.099 165.432C242.587 165.16 242.935 164.776 243.143 164.28C243.351 163.776 243.455 163.18 243.455 162.492C243.455 161.788 243.351 161.184 243.143 160.68C242.935 160.176 242.587 159.788 242.099 159.516C241.619 159.244 240.971 159.108 240.155 159.108H238.607V165.828ZM251.806 166.812C251.238 166.812 250.726 166.684 250.27 166.428C249.822 166.164 249.466 165.8 249.202 165.336C248.946 164.864 248.818 164.316 248.818 163.692C248.818 163.068 248.946 162.524 249.202 162.06C249.466 161.588 249.822 161.224 250.27 160.968C250.726 160.704 251.238 160.572 251.806 160.572C252.51 160.572 253.102 160.756 253.582 161.124C254.07 161.492 254.378 161.984 254.506 162.6H253.474C253.394 162.232 253.198 161.948 252.886 161.748C252.574 161.54 252.21 161.436 251.794 161.436C251.458 161.436 251.142 161.52 250.846 161.688C250.55 161.856 250.31 162.108 250.126 162.444C249.942 162.78 249.85 163.196 249.85 163.692C249.85 164.188 249.942 164.604 250.126 164.94C250.31 165.276 250.55 165.532 250.846 165.708C251.142 165.876 251.458 165.96 251.794 165.96C252.21 165.96 252.574 165.86 252.886 165.66C253.198 165.452 253.394 165.16 253.474 164.784H254.506C254.386 165.384 254.082 165.872 253.594 166.248C253.106 166.624 252.51 166.812 251.806 166.812ZM258.626 166.812C258.066 166.812 257.562 166.684 257.114 166.428C256.666 166.172 256.31 165.812 256.046 165.348C255.79 164.876 255.662 164.324 255.662 163.692C255.662 163.06 255.794 162.512 256.058 162.048C256.322 161.576 256.678 161.212 257.126 160.956C257.582 160.7 258.09 160.572 258.65 160.572C259.21 160.572 259.714 160.7 260.162 160.956C260.61 161.212 260.962 161.576 261.218 162.048C261.482 162.512 261.614 163.06 261.614 163.692C261.614 164.324 261.482 164.876 261.218 165.348C260.954 165.812 260.594 166.172 260.138 166.428C259.69 166.684 259.186 166.812 258.626 166.812ZM258.626 165.948C258.97 165.948 259.29 165.864 259.586 165.696C259.882 165.528 260.122 165.276 260.306 164.94C260.49 164.604 260.582 164.188 260.582 163.692C260.582 163.196 260.49 162.78 260.306 162.444C260.13 162.108 259.894 161.856 259.598 161.688C259.302 161.52 258.986 161.436 258.65 161.436C258.306 161.436 257.986 161.52 257.69 161.688C257.394 161.856 257.154 162.108 256.97 162.444C256.786 162.78 256.694 163.196 256.694 163.692C256.694 164.188 256.786 164.604 256.97 164.94C257.154 165.276 257.39 165.528 257.678 165.696C257.974 165.864 258.29 165.948 258.626 165.948ZM265.715 166.812C265.124 166.812 264.604 166.676 264.156 166.404C263.716 166.132 263.372 165.76 263.124 165.288C262.884 164.816 262.764 164.28 262.764 163.68C262.764 163.08 262.888 162.548 263.136 162.084C263.384 161.612 263.728 161.244 264.168 160.98C264.608 160.708 265.128 160.572 265.728 160.572C266.216 160.572 266.648 160.672 267.024 160.872C267.4 161.072 267.692 161.352 267.9 161.712V158.028H268.908V166.668H267.996L267.9 165.684C267.708 165.972 267.432 166.232 267.072 166.464C266.712 166.696 266.26 166.812 265.715 166.812ZM265.824 165.936C266.224 165.936 266.576 165.844 266.88 165.66C267.192 165.468 267.432 165.204 267.6 164.868C267.776 164.532 267.864 164.14 267.864 163.692C267.864 163.244 267.776 162.852 267.6 162.516C267.432 162.18 267.192 161.92 266.88 161.736C266.576 161.544 266.224 161.448 265.824 161.448C265.432 161.448 265.08 161.544 264.768 161.736C264.464 161.92 264.224 162.18 264.048 162.516C263.88 162.852 263.796 163.244 263.796 163.692C263.796 164.14 263.88 164.532 264.048 164.868C264.224 165.204 264.464 165.468 264.768 165.66C265.08 165.844 265.432 165.936 265.824 165.936ZM273.227 166.812C272.659 166.812 272.155 166.684 271.715 166.428C271.275 166.164 270.927 165.8 270.671 165.336C270.423 164.872 270.299 164.324 270.299 163.692C270.299 163.068 270.423 162.524 270.671 162.06C270.919 161.588 271.263 161.224 271.703 160.968C272.151 160.704 272.667 160.572 273.251 160.572C273.827 160.572 274.323 160.704 274.739 160.968C275.163 161.224 275.487 161.564 275.711 161.988C275.935 162.412 276.047 162.868 276.047 163.356C276.047 163.444 276.043 163.532 276.035 163.62C276.035 163.708 276.035 163.808 276.035 163.92H271.295C271.319 164.376 271.423 164.756 271.607 165.06C271.799 165.356 272.035 165.58 272.315 165.732C272.603 165.884 272.907 165.96 273.227 165.96C273.643 165.96 273.991 165.864 274.271 165.672C274.551 165.48 274.755 165.22 274.883 164.892H275.879C275.719 165.444 275.411 165.904 274.955 166.272C274.507 166.632 273.931 166.812 273.227 166.812ZM273.227 161.424C272.747 161.424 272.319 161.572 271.943 161.868C271.575 162.156 271.363 162.58 271.307 163.14H275.051C275.027 162.604 274.843 162.184 274.499 161.88C274.155 161.576 273.731 161.424 273.227 161.424ZM280.558 169.308V160.716H281.47L281.566 161.7C281.758 161.412 282.03 161.152 282.382 160.92C282.742 160.688 283.198 160.572 283.75 160.572C284.342 160.572 284.858 160.708 285.298 160.98C285.738 161.252 286.078 161.624 286.318 162.096C286.566 162.568 286.69 163.104 286.69 163.704C286.69 164.304 286.566 164.84 286.318 165.312C286.078 165.776 285.734 166.144 285.286 166.416C284.846 166.68 284.33 166.812 283.738 166.812C283.25 166.812 282.814 166.712 282.43 166.512C282.054 166.312 281.766 166.032 281.566 165.672V169.308H280.558ZM283.63 165.936C284.03 165.936 284.382 165.844 284.686 165.66C284.99 165.468 285.23 165.204 285.406 164.868C285.582 164.532 285.67 164.14 285.67 163.692C285.67 163.244 285.582 162.852 285.406 162.516C285.23 162.18 284.99 161.92 284.686 161.736C284.382 161.544 284.03 161.448 283.63 161.448C283.23 161.448 282.878 161.544 282.574 161.736C282.27 161.92 282.03 162.18 281.854 162.516C281.678 162.852 281.59 163.244 281.59 163.692C281.59 164.14 281.678 164.532 281.854 164.868C282.03 165.204 282.27 165.468 282.574 165.66C282.878 165.844 283.23 165.936 283.63 165.936ZM288.094 166.668V160.716H289.006L289.09 161.856C289.274 161.464 289.554 161.152 289.93 160.92C290.306 160.688 290.77 160.572 291.322 160.572V161.628H291.046C290.694 161.628 290.37 161.692 290.074 161.82C289.778 161.94 289.542 162.148 289.366 162.444C289.19 162.74 289.102 163.148 289.102 163.668V166.668H288.094ZM294.942 166.812C294.382 166.812 293.878 166.684 293.43 166.428C292.982 166.172 292.626 165.812 292.362 165.348C292.106 164.876 291.978 164.324 291.978 163.692C291.978 163.06 292.11 162.512 292.374 162.048C292.638 161.576 292.994 161.212 293.442 160.956C293.898 160.7 294.406 160.572 294.966 160.572C295.526 160.572 296.03 160.7 296.478 160.956C296.926 161.212 297.278 161.576 297.534 162.048C297.798 162.512 297.93 163.06 297.93 163.692C297.93 164.324 297.798 164.876 297.534 165.348C297.27 165.812 296.91 166.172 296.454 166.428C296.006 166.684 295.502 166.812 294.942 166.812ZM294.942 165.948C295.286 165.948 295.606 165.864 295.902 165.696C296.198 165.528 296.438 165.276 296.622 164.94C296.806 164.604 296.898 164.188 296.898 163.692C296.898 163.196 296.806 162.78 296.622 162.444C296.446 162.108 296.21 161.856 295.914 161.688C295.618 161.52 295.302 161.436 294.966 161.436C294.622 161.436 294.302 161.52 294.006 161.688C293.71 161.856 293.47 162.108 293.286 162.444C293.102 162.78 293.01 163.196 293.01 163.692C293.01 164.188 293.102 164.604 293.286 164.94C293.47 165.276 293.706 165.528 293.994 165.696C294.29 165.864 294.606 165.948 294.942 165.948ZM300.743 166.668L298.487 160.716H299.543L301.331 165.696L303.131 160.716H304.163L301.907 166.668H300.743ZM305.897 159.396C305.697 159.396 305.529 159.332 305.393 159.204C305.265 159.068 305.201 158.9 305.201 158.7C305.201 158.508 305.265 158.348 305.393 158.22C305.529 158.092 305.697 158.028 305.897 158.028C306.089 158.028 306.253 158.092 306.389 158.22C306.525 158.348 306.593 158.508 306.593 158.7C306.593 158.9 306.525 159.068 306.389 159.204C306.253 159.332 306.089 159.396 305.897 159.396ZM305.393 166.668V160.716H306.401V166.668H305.393ZM310.856 166.812C310.264 166.812 309.744 166.676 309.296 166.404C308.856 166.132 308.512 165.76 308.264 165.288C308.024 164.816 307.904 164.28 307.904 163.68C307.904 163.08 308.028 162.548 308.276 162.084C308.524 161.612 308.868 161.244 309.308 160.98C309.748 160.708 310.268 160.572 310.868 160.572C311.356 160.572 311.788 160.672 312.164 160.872C312.54 161.072 312.832 161.352 313.04 161.712V158.028H314.048V166.668H313.136L313.04 165.684C312.848 165.972 312.572 166.232 312.212 166.464C311.852 166.696 311.4 166.812 310.856 166.812ZM310.964 165.936C311.364 165.936 311.716 165.844 312.02 165.66C312.332 165.468 312.572 165.204 312.74 164.868C312.916 164.532 313.004 164.14 313.004 163.692C313.004 163.244 312.916 162.852 312.74 162.516C312.572 162.18 312.332 161.92 312.02 161.736C311.716 161.544 311.364 161.448 310.964 161.448C310.572 161.448 310.22 161.544 309.908 161.736C309.604 161.92 309.364 162.18 309.188 162.516C309.02 162.852 308.936 163.244 308.936 163.692C308.936 164.14 309.02 164.532 309.188 164.868C309.364 165.204 309.604 165.468 309.908 165.66C310.22 165.844 310.572 165.936 310.964 165.936ZM318.367 166.812C317.799 166.812 317.295 166.684 316.855 166.428C316.415 166.164 316.067 165.8 315.811 165.336C315.563 164.872 315.439 164.324 315.439 163.692C315.439 163.068 315.563 162.524 315.811 162.06C316.059 161.588 316.403 161.224 316.843 160.968C317.291 160.704 317.807 160.572 318.391 160.572C318.967 160.572 319.463 160.704 319.879 160.968C320.303 161.224 320.627 161.564 320.851 161.988C321.075 162.412 321.187 162.868 321.187 163.356C321.187 163.444 321.183 163.532 321.175 163.62C321.175 163.708 321.175 163.808 321.175 163.92H316.435C316.459 164.376 316.563 164.756 316.747 165.06C316.939 165.356 317.175 165.58 317.455 165.732C317.743 165.884 318.047 165.96 318.367 165.96C318.783 165.96 319.131 165.864 319.411 165.672C319.691 165.48 319.895 165.22 320.023 164.892H321.019C320.859 165.444 320.551 165.904 320.095 166.272C319.647 166.632 319.071 166.812 318.367 166.812ZM318.367 161.424C317.887 161.424 317.459 161.572 317.083 161.868C316.715 162.156 316.503 162.58 316.447 163.14H320.191C320.167 162.604 319.983 162.184 319.639 161.88C319.295 161.576 318.871 161.424 318.367 161.424ZM325.223 166.812C324.631 166.812 324.111 166.676 323.663 166.404C323.223 166.132 322.879 165.76 322.631 165.288C322.391 164.816 322.271 164.28 322.271 163.68C322.271 163.08 322.395 162.548 322.643 162.084C322.891 161.612 323.235 161.244 323.675 160.98C324.115 160.708 324.635 160.572 325.235 160.572C325.723 160.572 326.155 160.672 326.531 160.872C326.907 161.072 327.199 161.352 327.407 161.712V158.028H328.415V166.668H327.503L327.407 165.684C327.215 165.972 326.939 166.232 326.579 166.464C326.219 166.696 325.767 166.812 325.223 166.812ZM325.331 165.936C325.731 165.936 326.083 165.844 326.387 165.66C326.699 165.468 326.939 165.204 327.107 164.868C327.283 164.532 327.371 164.14 327.371 163.692C327.371 163.244 327.283 162.852 327.107 162.516C326.939 162.18 326.699 161.92 326.387 161.736C326.083 161.544 325.731 161.448 325.331 161.448C324.939 161.448 324.587 161.544 324.275 161.736C323.971 161.92 323.731 162.18 323.555 162.516C323.387 162.852 323.303 163.244 323.303 163.692C323.303 164.14 323.387 164.532 323.555 164.868C323.731 165.204 323.971 165.468 324.275 165.66C324.587 165.844 324.939 165.936 325.331 165.936ZM336.414 166.812C335.926 166.812 335.49 166.712 335.106 166.512C334.73 166.312 334.442 166.032 334.242 165.672L334.146 166.668H333.234V158.028H334.242V161.7C334.434 161.412 334.706 161.152 335.058 160.92C335.418 160.688 335.874 160.572 336.426 160.572C337.018 160.572 337.534 160.708 337.974 160.98C338.414 161.252 338.754 161.624 338.994 162.096C339.242 162.568 339.366 163.104 339.366 163.704C339.366 164.304 339.242 164.84 338.994 165.312C338.754 165.776 338.41 166.144 337.962 166.416C337.522 166.68 337.006 166.812 336.414 166.812ZM336.306 165.936C336.706 165.936 337.058 165.844 337.362 165.66C337.666 165.468 337.906 165.204 338.082 164.868C338.258 164.532 338.346 164.14 338.346 163.692C338.346 163.244 338.258 162.852 338.082 162.516C337.906 162.18 337.666 161.92 337.362 161.736C337.058 161.544 336.706 161.448 336.306 161.448C335.906 161.448 335.554 161.544 335.25 161.736C334.946 161.92 334.706 162.18 334.53 162.516C334.354 162.852 334.266 163.244 334.266 163.692C334.266 164.14 334.354 164.532 334.53 164.868C334.706 165.204 334.946 165.468 335.25 165.66C335.554 165.844 335.906 165.936 336.306 165.936ZM343.445 166.812C342.877 166.812 342.373 166.684 341.933 166.428C341.493 166.164 341.145 165.8 340.889 165.336C340.641 164.872 340.517 164.324 340.517 163.692C340.517 163.068 340.641 162.524 340.889 162.06C341.137 161.588 341.481 161.224 341.921 160.968C342.369 160.704 342.885 160.572 343.469 160.572C344.045 160.572 344.541 160.704 344.957 160.968C345.381 161.224 345.705 161.564 345.929 161.988C346.153 162.412 346.265 162.868 346.265 163.356C346.265 163.444 346.261 163.532 346.253 163.62C346.253 163.708 346.253 163.808 346.253 163.92H341.513C341.537 164.376 341.641 164.756 341.825 165.06C342.017 165.356 342.253 165.58 342.533 165.732C342.821 165.884 343.125 165.96 343.445 165.96C343.861 165.96 344.209 165.864 344.489 165.672C344.769 165.48 344.973 165.22 345.101 164.892H346.097C345.937 165.444 345.629 165.904 345.173 166.272C344.725 166.632 344.149 166.812 343.445 166.812ZM343.445 161.424C342.965 161.424 342.537 161.572 342.161 161.868C341.793 162.156 341.581 162.58 341.525 163.14H345.269C345.245 162.604 345.061 162.184 344.717 161.88C344.373 161.576 343.949 161.424 343.445 161.424ZM347.601 166.668V158.028H348.609V166.668H347.601ZM352.974 166.812C352.414 166.812 351.91 166.684 351.462 166.428C351.014 166.172 350.658 165.812 350.394 165.348C350.138 164.876 350.01 164.324 350.01 163.692C350.01 163.06 350.142 162.512 350.406 162.048C350.67 161.576 351.026 161.212 351.474 160.956C351.93 160.7 352.438 160.572 352.998 160.572C353.558 160.572 354.062 160.7 354.51 160.956C354.958 161.212 355.31 161.576 355.566 162.048C355.83 162.512 355.962 163.06 355.962 163.692C355.962 164.324 355.83 164.876 355.566 165.348C355.302 165.812 354.942 166.172 354.486 166.428C354.038 166.684 353.534 166.812 352.974 166.812ZM352.974 165.948C353.318 165.948 353.638 165.864 353.934 165.696C354.23 165.528 354.47 165.276 354.654 164.94C354.838 164.604 354.93 164.188 354.93 163.692C354.93 163.196 354.838 162.78 354.654 162.444C354.478 162.108 354.242 161.856 353.946 161.688C353.65 161.52 353.334 161.436 352.998 161.436C352.654 161.436 352.334 161.52 352.038 161.688C351.742 161.856 351.502 162.108 351.318 162.444C351.134 162.78 351.042 163.196 351.042 163.692C351.042 164.188 351.134 164.604 351.318 164.94C351.502 165.276 351.738 165.528 352.026 165.696C352.322 165.864 352.638 165.948 352.974 165.948ZM358.341 166.668L356.601 160.716H357.609L358.869 165.384L360.261 160.716H361.401L362.805 165.384L364.053 160.716H365.073L363.333 166.668H362.301L360.837 161.76L359.373 166.668H358.341Z" fill="#667085"/>
<g filter="url(#filter1_d_7877_101567)">
<rect x="451.468" y="137.246" width="60.5321" height="25.844" rx="5.13761" fill="white"/>
<path d="M462.444 148.849C462.193 149.334 462.076 149.892 462.076 150.521C462.076 151.168 462.193 151.726 462.444 152.211C462.696 152.697 463.047 153.065 463.505 153.326C463.964 153.596 464.503 153.722 465.115 153.722C465.591 153.722 466.023 153.632 466.4 153.452C466.778 153.272 467.084 153.02 467.317 152.688C467.551 152.364 467.704 151.977 467.776 151.528H466.742C466.634 151.932 466.436 152.247 466.149 152.472C465.861 152.706 465.501 152.814 465.07 152.814C464.674 152.814 464.333 152.724 464.045 152.526C463.748 152.328 463.523 152.058 463.371 151.708C463.209 151.366 463.137 150.97 463.137 150.521C463.137 150.071 463.209 149.676 463.371 149.334C463.523 148.992 463.748 148.723 464.045 148.525C464.333 148.327 464.674 148.228 465.07 148.228C465.501 148.228 465.861 148.345 466.158 148.57C466.445 148.804 466.643 149.118 466.751 149.514H467.785C467.713 149.082 467.56 148.696 467.326 148.363C467.084 148.03 466.769 147.77 466.391 147.59C466.014 147.41 465.582 147.32 465.115 147.32C464.503 147.32 463.964 147.455 463.505 147.725C463.047 147.995 462.696 148.363 462.444 148.849ZM469.512 153.434C469.871 153.632 470.276 153.722 470.743 153.722C471.202 153.722 471.607 153.632 471.966 153.434C472.326 153.236 472.596 152.966 472.793 152.607C472.991 152.247 473.09 151.834 473.09 151.366C473.09 150.908 472.991 150.503 472.793 150.143C472.596 149.784 472.326 149.505 471.966 149.307C471.607 149.109 471.202 149.01 470.743 149.01C470.276 149.01 469.871 149.109 469.512 149.307C469.152 149.505 468.882 149.784 468.685 150.143C468.487 150.503 468.397 150.908 468.397 151.366C468.397 151.834 468.487 152.247 468.685 152.607C468.882 152.966 469.152 153.236 469.512 153.434ZM471.723 152.472C471.472 152.76 471.148 152.895 470.743 152.895C470.33 152.895 470.006 152.76 469.763 152.472C469.512 152.184 469.395 151.816 469.395 151.366C469.395 150.917 469.512 150.557 469.763 150.269C470.006 149.981 470.33 149.838 470.743 149.838C471.148 149.838 471.472 149.981 471.723 150.269C471.975 150.557 472.101 150.917 472.101 151.366C472.101 151.816 471.975 152.184 471.723 152.472ZM477.458 149.298C477.126 149.109 476.748 149.01 476.334 149.01C475.705 149.01 475.202 149.262 474.833 149.748L474.716 149.064H473.871V155.466H474.842V153.02C474.986 153.236 475.193 153.407 475.444 153.533C475.696 153.659 475.993 153.722 476.334 153.722C476.748 153.722 477.126 153.632 477.458 153.434C477.782 153.236 478.043 152.966 478.231 152.607C478.411 152.247 478.51 151.834 478.51 151.366C478.51 150.89 478.411 150.476 478.231 150.116C478.043 149.757 477.782 149.487 477.458 149.298ZM477.144 152.472C476.892 152.76 476.568 152.904 476.173 152.904C475.768 152.904 475.444 152.76 475.202 152.472C474.95 152.184 474.833 151.816 474.833 151.348C474.833 150.899 474.95 150.539 475.202 150.26C475.444 149.981 475.768 149.838 476.173 149.838C476.568 149.838 476.892 149.981 477.144 150.26C477.395 150.548 477.521 150.917 477.521 151.366C477.521 151.816 477.395 152.184 477.144 152.472ZM479.688 149.064H478.654L480.452 153.704L480.263 154.144C480.183 154.342 480.111 154.477 480.039 154.531C479.967 154.585 479.832 154.612 479.652 154.612H478.969V155.466H480.012C480.227 155.466 480.407 155.43 480.542 155.358C480.668 155.286 480.785 155.169 480.875 155.025C480.965 154.881 481.064 154.666 481.171 154.387L483.257 149.064H482.223L480.974 152.616L479.688 149.064Z" fill="#344054"/>
<path d="M497.444 150.649V152.897C497.444 154.77 496.694 155.519 494.821 155.519H492.573C490.7 155.519 489.951 154.77 489.951 152.897V150.649C489.951 148.776 490.7 148.027 492.573 148.027H494.821C496.694 148.027 497.444 148.776 497.444 150.649Z" stroke="#292D32" stroke-width="0.963303" stroke-linecap="round" stroke-linejoin="round"/>
<path d="M500.654 147.438V149.686C500.654 151.559 499.905 152.308 498.032 152.308H497.443V150.649C497.443 148.776 496.694 148.027 494.821 148.027H493.162V147.438C493.162 145.565 493.911 144.816 495.784 144.816H498.032C499.905 144.816 500.654 145.565 500.654 147.438Z" stroke="#292D32" stroke-width="0.963303" stroke-linecap="round" stroke-linejoin="round"/>
<rect x="451.789" y="137.567" width="59.8899" height="25.2018" rx="4.81651" stroke="#D0D5DD" stroke-width="0.642202"/>
</g>
<path d="M64.3211 124.805C64.3211 122.145 66.4775 119.989 69.1376 119.989H518.862C521.522 119.989 523.679 122.145 523.679 124.805V180.347H64.3211V124.805Z" stroke="#EAECF0" stroke-width="0.642202"/>
<mask id="path-16-inside-2_7877_101567" fill="white">
<path d="M64 180.668H524V294.081C524 296.918 521.7 299.218 518.862 299.218H69.1376C66.3002 299.218 64 296.918 64 294.081V180.668Z"/>
</mask>
<path d="M64 180.668H524V294.081C524 296.918 521.7 299.218 518.862 299.218H69.1376C66.3002 299.218 64 296.918 64 294.081V180.668Z" fill="white"/>
<path d="M75.1634 201.943V193.543H76.1714L80.6474 200.275V193.543H81.6554V201.943H80.6474L76.1714 195.211V201.943H75.1634ZM86.0528 202.087C85.4848 202.087 84.9808 201.959 84.5408 201.703C84.1008 201.439 83.7528 201.075 83.4968 200.611C83.2488 200.147 83.1248 199.599 83.1248 198.967C83.1248 198.343 83.2488 197.799 83.4968 197.335C83.7448 196.863 84.0888 196.499 84.5288 196.243C84.9768 195.979 85.4928 195.847 86.0768 195.847C86.6528 195.847 87.1488 195.979 87.5648 196.243C87.9888 196.499 88.3128 196.839 88.5368 197.263C88.7608 197.687 88.8728 198.143 88.8728 198.631C88.8728 198.719 88.8688 198.807 88.8608 198.895C88.8608 198.983 88.8608 199.083 88.8608 199.195H84.1208C84.1448 199.651 84.2488 200.031 84.4328 200.335C84.6248 200.631 84.8608 200.855 85.1408 201.007C85.4288 201.159 85.7328 201.235 86.0528 201.235C86.4688 201.235 86.8168 201.139 87.0968 200.947C87.3768 200.755 87.5808 200.495 87.7088 200.167H88.7048C88.5448 200.719 88.2368 201.179 87.7808 201.547C87.3328 201.907 86.7568 202.087 86.0528 202.087ZM86.0528 196.699C85.5728 196.699 85.1448 196.847 84.7688 197.143C84.4008 197.431 84.1888 197.855 84.1328 198.415H87.8768C87.8528 197.879 87.6688 197.459 87.3248 197.155C86.9808 196.851 86.5568 196.699 86.0528 196.699ZM92.3616 201.943C91.8176 201.943 91.3896 201.811 91.0776 201.547C90.7656 201.283 90.6096 200.807 90.6096 200.119V196.843H89.5776V195.991H90.6096L90.7416 194.563H91.6176V195.991H93.3696V196.843H91.6176V200.119C91.6176 200.495 91.6936 200.751 91.8456 200.887C91.9976 201.015 92.2656 201.079 92.6496 201.079H93.2736V201.943H92.3616ZM95.8503 201.943L94.1103 195.991H95.1183L96.3783 200.659L97.7703 195.991H98.9103L100.314 200.659L101.562 195.991H102.582L100.842 201.943H99.8103L98.3463 197.035L96.8823 201.943H95.8503ZM106.186 202.087C105.626 202.087 105.122 201.959 104.674 201.703C104.226 201.447 103.87 201.087 103.606 200.623C103.35 200.151 103.222 199.599 103.222 198.967C103.222 198.335 103.354 197.787 103.618 197.323C103.882 196.851 104.238 196.487 104.686 196.231C105.142 195.975 105.65 195.847 106.21 195.847C106.77 195.847 107.274 195.975 107.722 196.231C108.17 196.487 108.522 196.851 108.778 197.323C109.042 197.787 109.174 198.335 109.174 198.967C109.174 199.599 109.042 200.151 108.778 200.623C108.514 201.087 108.154 201.447 107.698 201.703C107.25 201.959 106.746 202.087 106.186 202.087ZM106.186 201.223C106.53 201.223 106.85 201.139 107.146 200.971C107.442 200.803 107.682 200.551 107.866 200.215C108.05 199.879 108.142 199.463 108.142 198.967C108.142 198.471 108.05 198.055 107.866 197.719C107.69 197.383 107.454 197.131 107.158 196.963C106.862 196.795 106.546 196.711 106.21 196.711C105.866 196.711 105.546 196.795 105.25 196.963C104.954 197.131 104.714 197.383 104.53 197.719C104.346 198.055 104.254 198.471 104.254 198.967C104.254 199.463 104.346 199.879 104.53 200.215C104.714 200.551 104.95 200.803 105.238 200.971C105.534 201.139 105.85 201.223 106.186 201.223ZM110.576 201.943V195.991H111.488L111.572 197.131C111.756 196.739 112.036 196.427 112.412 196.195C112.788 195.963 113.252 195.847 113.804 195.847V196.903H113.528C113.176 196.903 112.852 196.967 112.556 197.095C112.26 197.215 112.024 197.423 111.848 197.719C111.672 198.015 111.584 198.423 111.584 198.943V201.943H110.576ZM114.935 201.943V193.303H115.943V198.499L118.379 195.991H119.615L116.975 198.679L119.951 201.943H118.667L115.943 198.859V201.943H114.935ZM122.911 202.087C122.199 202.087 121.607 201.907 121.135 201.547C120.663 201.187 120.387 200.699 120.307 200.083H121.339C121.403 200.395 121.567 200.667 121.831 200.899C122.103 201.123 122.467 201.235 122.923 201.235C123.347 201.235 123.659 201.147 123.859 200.971C124.059 200.787 124.159 200.571 124.159 200.323C124.159 199.963 124.027 199.723 123.763 199.603C123.507 199.483 123.143 199.375 122.671 199.279C122.351 199.215 122.031 199.123 121.711 199.003C121.391 198.883 121.123 198.715 120.907 198.499C120.691 198.275 120.583 197.983 120.583 197.623C120.583 197.103 120.775 196.679 121.159 196.351C121.551 196.015 122.079 195.847 122.743 195.847C123.375 195.847 123.891 196.007 124.291 196.327C124.699 196.639 124.935 197.087 124.999 197.671H124.003C123.963 197.367 123.831 197.131 123.607 196.963C123.391 196.787 123.099 196.699 122.731 196.699C122.371 196.699 122.091 196.775 121.891 196.927C121.699 197.079 121.603 197.279 121.603 197.527C121.603 197.767 121.727 197.955 121.975 198.091C122.231 198.227 122.575 198.343 123.007 198.439C123.375 198.519 123.723 198.619 124.051 198.739C124.387 198.851 124.659 199.023 124.867 199.255C125.083 199.479 125.191 199.807 125.191 200.239C125.199 200.775 124.995 201.219 124.579 201.571C124.171 201.915 123.615 202.087 122.911 202.087Z" fill="#667085"/>
<path d="M74.6674 227.943L76.3894 218.143H78.1394L80.3234 224.667L84.7614 218.143H86.5114L84.7894 227.943H83.3054L84.5794 220.705L80.5614 226.543H79.4134L77.4254 220.719L76.1514 227.943H74.6674ZM89.0763 227.943L90.5883 219.319H87.7043L87.9143 218.143H95.1803L94.9843 219.319H92.0723L90.5603 227.943H89.0763ZM94.8471 227.943L96.5691 218.143H98.0531L101.651 225.605L102.967 218.143H104.451L102.729 227.943H101.245L97.6471 220.481L96.3311 227.943H94.8471ZM103.528 229.595L104.914 226.291H106.384L104.522 229.595H103.528ZM110.773 227.943L116.107 218.143H117.745L119.593 227.943H118.053L117.619 225.549H113.615L112.355 227.943H110.773ZM114.231 224.401H117.423L116.625 219.851L114.231 224.401ZM123.368 219.711C123.088 219.711 122.855 219.622 122.668 219.445C122.491 219.268 122.402 219.048 122.402 218.787C122.402 218.526 122.491 218.306 122.668 218.129C122.855 217.952 123.088 217.863 123.368 217.863C123.648 217.863 123.877 217.952 124.054 218.129C124.241 218.306 124.334 218.526 124.334 218.787C124.334 219.048 124.241 219.268 124.054 219.445C123.877 219.622 123.648 219.711 123.368 219.711ZM121.016 227.943L122.234 220.999H123.718L122.5 227.943H121.016ZM124.5 227.943L125.718 220.999H127.062L126.964 222.245C127.281 221.816 127.683 221.475 128.168 221.223C128.653 220.962 129.199 220.831 129.806 220.831L129.526 222.385H129.12C128.709 222.385 128.331 222.45 127.986 222.581C127.641 222.702 127.347 222.912 127.104 223.211C126.861 223.51 126.698 223.916 126.614 224.429L125.984 227.943H124.5ZM132.644 227.943C132.038 227.943 131.557 227.822 131.202 227.579C130.857 227.327 130.684 226.902 130.684 226.305C130.684 226.1 130.708 225.88 130.754 225.647L131.356 222.245H130.25L130.474 220.999H131.58L132.07 219.235H133.372L133.064 220.999H135.024L134.8 222.245H132.84L132.238 225.647C132.21 225.778 132.196 225.894 132.196 225.997C132.196 226.249 132.266 226.426 132.406 226.529C132.546 226.632 132.78 226.683 133.106 226.683H134.03L133.806 227.943H132.644ZM138.329 228.111C137.433 228.111 136.719 227.845 136.187 227.313C135.655 226.781 135.389 226.067 135.389 225.171C135.389 224.574 135.492 224.014 135.697 223.491C135.902 222.959 136.192 222.497 136.565 222.105C136.948 221.704 137.396 221.391 137.909 221.167C138.422 220.943 138.987 220.831 139.603 220.831C140.21 220.831 140.728 220.952 141.157 221.195C141.586 221.428 141.913 221.75 142.137 222.161C142.361 222.562 142.473 223.02 142.473 223.533C142.473 223.738 142.45 223.962 142.403 224.205C142.366 224.438 142.324 224.644 142.277 224.821H136.873C136.854 224.942 136.845 225.054 136.845 225.157C136.845 225.717 137.008 226.146 137.335 226.445C137.662 226.734 138.063 226.879 138.539 226.879C138.968 226.879 139.342 226.781 139.659 226.585C139.986 226.389 140.242 226.132 140.429 225.815H141.927C141.722 226.254 141.442 226.646 141.087 226.991C140.732 227.336 140.322 227.612 139.855 227.817C139.388 228.013 138.88 228.111 138.329 228.111ZM139.407 222.049C138.912 222.049 138.446 222.198 138.007 222.497C137.568 222.796 137.256 223.234 137.069 223.813H140.989C140.998 223.766 141.003 223.724 141.003 223.687C141.003 223.65 141.003 223.612 141.003 223.575C141.012 223.108 140.868 222.74 140.569 222.469C140.28 222.189 139.892 222.049 139.407 222.049ZM143.258 227.943L145.05 217.863H146.534L144.742 227.943H143.258Z" fill="#1D2939"/>
<path d="M487.297 202.087C486.473 202.087 485.761 201.907 485.161 201.547C484.569 201.179 484.109 200.671 483.781 200.023C483.453 199.367 483.289 198.607 483.289 197.743C483.289 196.887 483.453 196.135 483.781 195.487C484.109 194.831 484.569 194.319 485.161 193.951C485.761 193.583 486.473 193.399 487.297 193.399C488.257 193.399 489.037 193.631 489.637 194.095C490.245 194.551 490.633 195.191 490.801 196.015H489.685C489.557 195.495 489.293 195.079 488.893 194.767C488.501 194.447 487.969 194.287 487.297 194.287C486.697 194.287 486.173 194.427 485.725 194.707C485.277 194.979 484.929 195.375 484.681 195.895C484.441 196.407 484.321 197.023 484.321 197.743C484.321 198.463 484.441 199.083 484.681 199.603C484.929 200.115 485.277 200.511 485.725 200.791C486.173 201.063 486.697 201.199 487.297 201.199C487.969 201.199 488.501 201.047 488.893 200.743C489.293 200.431 489.557 200.019 489.685 199.507H490.801C490.633 200.315 490.245 200.947 489.637 201.403C489.037 201.859 488.257 202.087 487.297 202.087ZM494.901 202.087C494.341 202.087 493.837 201.959 493.389 201.703C492.941 201.447 492.585 201.087 492.321 200.623C492.065 200.151 491.937 199.599 491.937 198.967C491.937 198.335 492.069 197.787 492.333 197.323C492.597 196.851 492.953 196.487 493.401 196.231C493.857 195.975 494.365 195.847 494.925 195.847C495.485 195.847 495.989 195.975 496.437 196.231C496.885 196.487 497.237 196.851 497.493 197.323C497.757 197.787 497.889 198.335 497.889 198.967C497.889 199.599 497.757 200.151 497.493 200.623C497.229 201.087 496.869 201.447 496.413 201.703C495.965 201.959 495.461 202.087 494.901 202.087ZM494.901 201.223C495.245 201.223 495.565 201.139 495.861 200.971C496.157 200.803 496.397 200.551 496.581 200.215C496.765 199.879 496.857 199.463 496.857 198.967C496.857 198.471 496.765 198.055 496.581 197.719C496.405 197.383 496.169 197.131 495.873 196.963C495.577 196.795 495.261 196.711 494.925 196.711C494.581 196.711 494.261 196.795 493.965 196.963C493.669 197.131 493.429 197.383 493.245 197.719C493.061 198.055 492.969 198.471 492.969 198.967C492.969 199.463 493.061 199.879 493.245 200.215C493.429 200.551 493.665 200.803 493.953 200.971C494.249 201.139 494.565 201.223 494.901 201.223ZM501.991 202.087C501.399 202.087 500.879 201.951 500.431 201.679C499.991 201.407 499.647 201.035 499.399 200.563C499.159 200.091 499.039 199.555 499.039 198.955C499.039 198.355 499.163 197.823 499.411 197.359C499.659 196.887 500.003 196.519 500.443 196.255C500.883 195.983 501.403 195.847 502.003 195.847C502.491 195.847 502.923 195.947 503.299 196.147C503.675 196.347 503.967 196.627 504.175 196.987V193.303H505.183V201.943H504.271L504.175 200.959C503.983 201.247 503.707 201.507 503.347 201.739C502.987 201.971 502.535 202.087 501.991 202.087ZM502.099 201.211C502.499 201.211 502.851 201.119 503.155 200.935C503.467 200.743 503.707 200.479 503.875 200.143C504.051 199.807 504.139 199.415 504.139 198.967C504.139 198.519 504.051 198.127 503.875 197.791C503.707 197.455 503.467 197.195 503.155 197.011C502.851 196.819 502.499 196.723 502.099 196.723C501.707 196.723 501.355 196.819 501.043 197.011C500.739 197.195 500.499 197.455 500.323 197.791C500.155 198.127 500.071 198.519 500.071 198.967C500.071 199.415 500.155 199.807 500.323 200.143C500.499 200.479 500.739 200.743 501.043 200.935C501.355 201.119 501.707 201.211 502.099 201.211ZM509.502 202.087C508.934 202.087 508.43 201.959 507.99 201.703C507.55 201.439 507.202 201.075 506.946 200.611C506.698 200.147 506.574 199.599 506.574 198.967C506.574 198.343 506.698 197.799 506.946 197.335C507.194 196.863 507.538 196.499 507.978 196.243C508.426 195.979 508.942 195.847 509.526 195.847C510.102 195.847 510.598 195.979 511.014 196.243C511.438 196.499 511.762 196.839 511.986 197.263C512.21 197.687 512.322 198.143 512.322 198.631C512.322 198.719 512.318 198.807 512.31 198.895C512.31 198.983 512.31 199.083 512.31 199.195H507.57C507.594 199.651 507.698 200.031 507.882 200.335C508.074 200.631 508.31 200.855 508.59 201.007C508.878 201.159 509.182 201.235 509.502 201.235C509.918 201.235 510.266 201.139 510.546 200.947C510.826 200.755 511.03 200.495 511.158 200.167H512.154C511.994 200.719 511.686 201.179 511.23 201.547C510.782 201.907 510.206 202.087 509.502 202.087ZM509.502 196.699C509.022 196.699 508.594 196.847 508.218 197.143C507.85 197.431 507.638 197.855 507.582 198.415H511.326C511.302 197.879 511.118 197.459 510.774 197.155C510.43 196.851 510.006 196.699 509.502 196.699Z" fill="#667085"/>
<path d="M444.833 222.903L445.407 220.845L443.545 222.063L443.139 221.055L445.169 220.257L443.433 219.487L444.133 218.507L445.617 219.725L445.757 217.653H446.877L446.275 219.725L448.151 218.521L448.515 219.473L446.499 220.271L448.249 221.069L447.521 222.049L446.065 220.845L445.939 222.903H444.833ZM450.015 227.943L451.443 219.823L449.777 220.257L449.973 219.095L452.325 218.143H453.277L451.541 227.943H450.015ZM456.668 228.111C456.099 228.111 455.59 228.018 455.142 227.831C454.694 227.644 454.34 227.364 454.078 226.991C453.817 226.608 453.686 226.132 453.686 225.563C453.686 225.367 453.7 225.171 453.728 224.975H455.212C455.203 225.031 455.194 225.092 455.184 225.157C455.184 225.213 455.184 225.283 455.184 225.367C455.184 225.787 455.324 226.137 455.604 226.417C455.894 226.697 456.314 226.837 456.864 226.837C457.48 226.837 457.989 226.655 458.39 226.291C458.801 225.918 459.006 225.442 459.006 224.863C459.006 224.368 458.829 223.99 458.474 223.729C458.129 223.468 457.681 223.337 457.13 223.337H456.402L456.612 222.105H457.354C457.98 222.105 458.488 221.951 458.88 221.643C459.272 221.326 459.468 220.901 459.468 220.369C459.468 220.052 459.356 219.786 459.132 219.571C458.908 219.356 458.582 219.249 458.152 219.249C457.648 219.249 457.224 219.398 456.878 219.697C456.542 219.986 456.318 220.35 456.206 220.789H454.736C454.867 220.22 455.096 219.725 455.422 219.305C455.758 218.885 456.174 218.558 456.668 218.325C457.163 218.092 457.714 217.975 458.32 217.975C459.188 217.975 459.846 218.18 460.294 218.591C460.752 218.992 460.98 219.506 460.98 220.131C460.98 220.504 460.896 220.864 460.728 221.209C460.57 221.554 460.341 221.858 460.042 222.119C459.744 222.38 459.389 222.562 458.978 222.665C459.436 222.768 459.8 223.001 460.07 223.365C460.35 223.72 460.49 224.168 460.49 224.709C460.49 225.362 460.322 225.946 459.986 226.459C459.66 226.972 459.207 227.378 458.628 227.677C458.05 227.966 457.396 228.111 456.668 228.111ZM465.234 228.111C464.59 228.111 464.034 227.994 463.568 227.761C463.11 227.528 462.76 227.206 462.518 226.795C462.275 226.384 462.158 225.918 462.168 225.395C462.168 225.376 462.168 225.353 462.168 225.325C462.168 225.297 462.168 225.269 462.168 225.241H463.624C463.633 225.726 463.806 226.118 464.142 226.417C464.478 226.706 464.902 226.851 465.416 226.851C465.882 226.851 466.302 226.739 466.676 226.515C467.049 226.282 467.343 225.969 467.558 225.577C467.772 225.176 467.88 224.728 467.88 224.233C467.88 223.72 467.73 223.29 467.432 222.945C467.133 222.6 466.727 222.427 466.214 222.427C465.738 222.427 465.308 222.544 464.926 222.777C464.552 223.001 464.258 223.286 464.044 223.631H462.63L464.436 218.143H469.714L469.49 219.445H465.318L464.352 222.063C464.613 221.82 464.935 221.62 465.318 221.461C465.7 221.293 466.13 221.209 466.606 221.209C467.184 221.209 467.674 221.335 468.076 221.587C468.486 221.839 468.799 222.18 469.014 222.609C469.228 223.029 469.336 223.491 469.336 223.995C469.336 224.788 469.154 225.498 468.79 226.123C468.426 226.739 467.931 227.224 467.306 227.579C466.69 227.934 465.999 228.111 465.234 228.111ZM472.669 222.903L473.243 220.845L471.381 222.063L470.975 221.055L473.005 220.257L471.269 219.487L471.969 218.507L473.453 219.725L473.593 217.653H474.713L474.111 219.725L475.987 218.521L476.351 219.473L474.335 220.271L476.085 221.069L475.357 222.049L473.901 220.845L473.775 222.903H472.669ZM480.078 227.943L480.428 225.983H475.514L475.724 224.807L481.576 218.143H483.284L482.122 224.695H483.494L483.27 225.983H481.898L481.548 227.943H480.078ZM477.362 224.695H480.736L481.604 219.781L477.362 224.695ZM487.765 228.111C487.121 228.111 486.566 227.994 486.099 227.761C485.642 227.528 485.292 227.206 485.049 226.795C484.806 226.384 484.69 225.918 484.699 225.395C484.699 225.376 484.699 225.353 484.699 225.325C484.699 225.297 484.699 225.269 484.699 225.241H486.155C486.164 225.726 486.337 226.118 486.673 226.417C487.009 226.706 487.434 226.851 487.947 226.851C488.414 226.851 488.834 226.739 489.207 226.515C489.58 226.282 489.874 225.969 490.089 225.577C490.304 225.176 490.411 224.728 490.411 224.233C490.411 223.72 490.262 223.29 489.963 222.945C489.664 222.6 489.258 222.427 488.745 222.427C488.269 222.427 487.84 222.544 487.457 222.777C487.084 223.001 486.79 223.286 486.575 223.631H485.161L486.967 218.143H492.245L492.021 219.445H487.849L486.883 222.063C487.144 221.82 487.466 221.62 487.849 221.461C488.232 221.293 488.661 221.209 489.137 221.209C489.716 221.209 490.206 221.335 490.607 221.587C491.018 221.839 491.33 222.18 491.545 222.609C491.76 223.029 491.867 223.491 491.867 223.995C491.867 224.788 491.685 225.498 491.321 226.123C490.957 226.739 490.462 227.224 489.837 227.579C489.221 227.934 488.53 228.111 487.765 228.111ZM496.644 228.111C495.878 228.111 495.262 227.952 494.796 227.635C494.338 227.318 494.002 226.902 493.788 226.389C493.582 225.866 493.48 225.302 493.48 224.695C493.48 223.78 493.596 222.922 493.83 222.119C494.063 221.307 494.394 220.593 494.824 219.977C495.253 219.352 495.762 218.862 496.35 218.507C496.938 218.152 497.586 217.975 498.296 217.975C498.921 217.975 499.434 218.101 499.836 218.353C500.237 218.605 500.526 218.941 500.704 219.361C500.89 219.781 500.97 220.238 500.942 220.733H499.556C499.556 220.257 499.43 219.888 499.178 219.627C498.926 219.356 498.571 219.221 498.114 219.221C497.442 219.221 496.83 219.534 496.28 220.159C495.738 220.775 495.332 221.732 495.062 223.029C495.37 222.618 495.752 222.287 496.21 222.035C496.676 221.774 497.204 221.643 497.792 221.643C498.324 221.643 498.795 221.764 499.206 222.007C499.626 222.24 499.952 222.562 500.186 222.973C500.419 223.384 500.536 223.85 500.536 224.373C500.536 225.064 500.358 225.694 500.004 226.263C499.658 226.823 499.192 227.271 498.604 227.607C498.016 227.943 497.362 228.111 496.644 228.111ZM496.756 226.823C497.204 226.823 497.6 226.73 497.946 226.543C498.291 226.347 498.562 226.081 498.758 225.745C498.954 225.409 499.052 225.026 499.052 224.597C499.052 224.121 498.898 223.724 498.59 223.407C498.291 223.08 497.88 222.917 497.358 222.917C496.91 222.917 496.513 223.02 496.168 223.225C495.822 223.421 495.547 223.687 495.342 224.023C495.136 224.359 495.034 224.728 495.034 225.129C495.034 225.605 495.188 226.006 495.496 226.333C495.813 226.66 496.233 226.823 496.756 226.823ZM502.746 227.943L503.768 225.339H501.766L502.004 224.009H504.286L505.126 221.853H503.054L503.278 220.523H505.644L506.652 217.947H508.052L507.044 220.523H509.872L510.88 217.947H512.28L511.272 220.523H513.162L512.938 221.853H510.754L509.914 224.009H511.874L511.636 225.339H509.396L508.388 227.943H506.974L507.996 225.339H505.168L504.146 227.943H502.746ZM505.686 224.009H508.514L509.354 221.853H506.526L505.686 224.009Z" fill="#1D2939"/>
<path d="M77.8394 259.087C77.2234 259.087 76.6874 258.975 76.2314 258.751C75.7754 258.527 75.4234 258.215 75.1754 257.815C74.9274 257.415 74.8034 256.951 74.8034 256.423H75.8594C75.8594 256.751 75.9354 257.055 76.0874 257.335C76.2394 257.607 76.4594 257.827 76.7474 257.995C77.0434 258.155 77.4074 258.235 77.8394 258.235C78.4074 258.235 78.8474 258.099 79.1594 257.827C79.4714 257.555 79.6274 257.215 79.6274 256.807C79.6274 256.471 79.5554 256.203 79.4114 256.003C79.2674 255.795 79.0714 255.627 78.8234 255.499C78.5834 255.371 78.3034 255.259 77.9834 255.163C77.6714 255.067 77.3434 254.959 76.9994 254.839C76.3514 254.615 75.8714 254.339 75.5594 254.011C75.2474 253.675 75.0914 253.239 75.0914 252.703C75.0834 252.255 75.1874 251.859 75.4034 251.515C75.6194 251.163 75.9234 250.891 76.3154 250.699C76.7154 250.499 77.1874 250.399 77.7314 250.399C78.2674 250.399 78.7314 250.499 79.1234 250.699C79.5234 250.899 79.8314 251.175 80.0474 251.527C80.2714 251.879 80.3874 252.279 80.3954 252.727H79.3394C79.3394 252.495 79.2794 252.267 79.1594 252.043C79.0394 251.811 78.8554 251.623 78.6074 251.479C78.3674 251.335 78.0634 251.263 77.6954 251.263C77.2394 251.255 76.8634 251.371 76.5674 251.611C76.2794 251.851 76.1354 252.183 76.1354 252.607C76.1354 252.967 76.2354 253.243 76.4354 253.435C76.6434 253.627 76.9314 253.787 77.2994 253.915C77.6674 254.035 78.0914 254.175 78.5714 254.335C78.9714 254.479 79.3314 254.647 79.6514 254.839C79.9714 255.031 80.2194 255.279 80.3954 255.583C80.5794 255.887 80.6714 256.275 80.6714 256.747C80.6714 257.147 80.5674 257.527 80.3594 257.887C80.1514 258.239 79.8354 258.527 79.4114 258.751C78.9954 258.975 78.4714 259.087 77.8394 259.087ZM84.7769 259.087C84.2089 259.087 83.6969 258.959 83.2409 258.703C82.7929 258.439 82.4369 258.075 82.1729 257.611C81.9169 257.139 81.7889 256.591 81.7889 255.967C81.7889 255.343 81.9169 254.799 82.1729 254.335C82.4369 253.863 82.7929 253.499 83.2409 253.243C83.6969 252.979 84.2089 252.847 84.7769 252.847C85.4809 252.847 86.0729 253.031 86.5529 253.399C87.0409 253.767 87.3489 254.259 87.4769 254.875H86.4449C86.3649 254.507 86.1689 254.223 85.8569 254.023C85.5449 253.815 85.1809 253.711 84.7649 253.711C84.4289 253.711 84.1129 253.795 83.8169 253.963C83.5209 254.131 83.2809 254.383 83.0969 254.719C82.9129 255.055 82.8209 255.471 82.8209 255.967C82.8209 256.463 82.9129 256.879 83.0969 257.215C83.2809 257.551 83.5209 257.807 83.8169 257.983C84.1129 258.151 84.4289 258.235 84.7649 258.235C85.1809 258.235 85.5449 258.135 85.8569 257.935C86.1689 257.727 86.3649 257.435 86.4449 257.059H87.4769C87.3569 257.659 87.0529 258.147 86.5649 258.523C86.0769 258.899 85.4809 259.087 84.7769 259.087ZM88.8846 258.943V250.303H89.8926V254.011C90.0926 253.643 90.3766 253.359 90.7446 253.159C91.1126 252.951 91.5126 252.847 91.9446 252.847C92.6326 252.847 93.1846 253.063 93.6006 253.495C94.0166 253.919 94.2246 254.575 94.2246 255.463V258.943H93.2286V255.571C93.2286 254.331 92.7286 253.711 91.7286 253.711C91.2086 253.711 90.7726 253.899 90.4206 254.275C90.0686 254.643 89.8926 255.171 89.8926 255.859V258.943H88.8846ZM98.4638 259.087C97.9038 259.087 97.3998 258.959 96.9518 258.703C96.5038 258.447 96.1478 258.087 95.8838 257.623C95.6278 257.151 95.4998 256.599 95.4998 255.967C95.4998 255.335 95.6318 254.787 95.8958 254.323C96.1598 253.851 96.5158 253.487 96.9638 253.231C97.4198 252.975 97.9278 252.847 98.4878 252.847C99.0478 252.847 99.5518 252.975 99.9998 253.231C100.448 253.487 100.8 253.851 101.056 254.323C101.32 254.787 101.452 255.335 101.452 255.967C101.452 256.599 101.32 257.151 101.056 257.623C100.792 258.087 100.432 258.447 99.9758 258.703C99.5278 258.959 99.0238 259.087 98.4638 259.087ZM98.4638 258.223C98.8078 258.223 99.1278 258.139 99.4238 257.971C99.7198 257.803 99.9598 257.551 100.144 257.215C100.328 256.879 100.42 256.463 100.42 255.967C100.42 255.471 100.328 255.055 100.144 254.719C99.9678 254.383 99.7318 254.131 99.4358 253.963C99.1398 253.795 98.8238 253.711 98.4878 253.711C98.1438 253.711 97.8238 253.795 97.5278 253.963C97.2318 254.131 96.9918 254.383 96.8078 254.719C96.6238 255.055 96.5318 255.471 96.5318 255.967C96.5318 256.463 96.6238 256.879 96.8078 257.215C96.9918 257.551 97.2278 257.803 97.5158 257.971C97.8118 258.139 98.1278 258.223 98.4638 258.223ZM105.565 259.087C105.005 259.087 104.501 258.959 104.053 258.703C103.605 258.447 103.249 258.087 102.985 257.623C102.729 257.151 102.601 256.599 102.601 255.967C102.601 255.335 102.733 254.787 102.997 254.323C103.261 253.851 103.617 253.487 104.065 253.231C104.521 252.975 105.029 252.847 105.589 252.847C106.149 252.847 106.653 252.975 107.101 253.231C107.549 253.487 107.901 253.851 108.157 254.323C108.421 254.787 108.553 255.335 108.553 255.967C108.553 256.599 108.421 257.151 108.157 257.623C107.893 258.087 107.533 258.447 107.077 258.703C106.629 258.959 106.125 259.087 105.565 259.087ZM105.565 258.223C105.909 258.223 106.229 258.139 106.525 257.971C106.821 257.803 107.061 257.551 107.245 257.215C107.429 256.879 107.521 256.463 107.521 255.967C107.521 255.471 107.429 255.055 107.245 254.719C107.069 254.383 106.833 254.131 106.537 253.963C106.241 253.795 105.925 253.711 105.589 253.711C105.245 253.711 104.925 253.795 104.629 253.963C104.333 254.131 104.093 254.383 103.909 254.719C103.725 255.055 103.633 255.471 103.633 255.967C103.633 256.463 103.725 256.879 103.909 257.215C104.093 257.551 104.329 257.803 104.617 257.971C104.913 258.139 105.229 258.223 105.565 258.223ZM109.955 258.943V250.303H110.963V258.943H109.955ZM118.527 259.087C117.959 259.087 117.447 258.959 116.991 258.703C116.543 258.439 116.187 258.075 115.923 257.611C115.667 257.139 115.539 256.591 115.539 255.967C115.539 255.343 115.667 254.799 115.923 254.335C116.187 253.863 116.543 253.499 116.991 253.243C117.447 252.979 117.959 252.847 118.527 252.847C119.231 252.847 119.823 253.031 120.303 253.399C120.791 253.767 121.099 254.259 121.227 254.875H120.195C120.115 254.507 119.919 254.223 119.607 254.023C119.295 253.815 118.931 253.711 118.515 253.711C118.179 253.711 117.863 253.795 117.567 253.963C117.271 254.131 117.031 254.383 116.847 254.719C116.663 255.055 116.571 255.471 116.571 255.967C116.571 256.463 116.663 256.879 116.847 257.215C117.031 257.551 117.271 257.807 117.567 257.983C117.863 258.151 118.179 258.235 118.515 258.235C118.931 258.235 119.295 258.135 119.607 257.935C119.919 257.727 120.115 257.435 120.195 257.059H121.227C121.107 257.659 120.803 258.147 120.315 258.523C119.827 258.899 119.231 259.087 118.527 259.087ZM125.347 259.087C124.787 259.087 124.283 258.959 123.835 258.703C123.387 258.447 123.031 258.087 122.767 257.623C122.511 257.151 122.383 256.599 122.383 255.967C122.383 255.335 122.515 254.787 122.779 254.323C123.043 253.851 123.399 253.487 123.847 253.231C124.303 252.975 124.811 252.847 125.371 252.847C125.931 252.847 126.435 252.975 126.883 253.231C127.331 253.487 127.683 253.851 127.939 254.323C128.203 254.787 128.335 255.335 128.335 255.967C128.335 256.599 128.203 257.151 127.939 257.623C127.675 258.087 127.315 258.447 126.859 258.703C126.411 258.959 125.907 259.087 125.347 259.087ZM125.347 258.223C125.691 258.223 126.011 258.139 126.307 257.971C126.603 257.803 126.843 257.551 127.027 257.215C127.211 256.879 127.303 256.463 127.303 255.967C127.303 255.471 127.211 255.055 127.027 254.719C126.851 254.383 126.615 254.131 126.319 253.963C126.023 253.795 125.707 253.711 125.371 253.711C125.027 253.711 124.707 253.795 124.411 253.963C124.115 254.131 123.875 254.383 123.691 254.719C123.507 255.055 123.415 255.471 123.415 255.967C123.415 256.463 123.507 256.879 123.691 257.215C123.875 257.551 124.111 257.803 124.399 257.971C124.695 258.139 125.011 258.223 125.347 258.223ZM132.436 259.087C131.844 259.087 131.324 258.951 130.876 258.679C130.436 258.407 130.092 258.035 129.844 257.563C129.604 257.091 129.484 256.555 129.484 255.955C129.484 255.355 129.608 254.823 129.856 254.359C130.104 253.887 130.448 253.519 130.888 253.255C131.328 252.983 131.848 252.847 132.448 252.847C132.936 252.847 133.368 252.947 133.744 253.147C134.12 253.347 134.412 253.627 134.62 253.987V250.303H135.628V258.943H134.716L134.62 257.959C134.428 258.247 134.152 258.507 133.792 258.739C133.432 258.971 132.98 259.087 132.436 259.087ZM132.544 258.211C132.944 258.211 133.296 258.119 133.6 257.935C133.912 257.743 134.152 257.479 134.32 257.143C134.496 256.807 134.584 256.415 134.584 255.967C134.584 255.519 134.496 255.127 134.32 254.791C134.152 254.455 133.912 254.195 133.6 254.011C133.296 253.819 132.944 253.723 132.544 253.723C132.152 253.723 131.8 253.819 131.488 254.011C131.184 254.195 130.944 254.455 130.768 254.791C130.6 255.127 130.516 255.519 130.516 255.967C130.516 256.415 130.6 256.807 130.768 257.143C130.944 257.479 131.184 257.743 131.488 257.935C131.8 258.119 132.152 258.211 132.544 258.211ZM139.947 259.087C139.379 259.087 138.875 258.959 138.435 258.703C137.995 258.439 137.647 258.075 137.391 257.611C137.143 257.147 137.019 256.599 137.019 255.967C137.019 255.343 137.143 254.799 137.391 254.335C137.639 253.863 137.983 253.499 138.423 253.243C138.871 252.979 139.387 252.847 139.971 252.847C140.547 252.847 141.043 252.979 141.459 253.243C141.883 253.499 142.207 253.839 142.431 254.263C142.655 254.687 142.767 255.143 142.767 255.631C142.767 255.719 142.763 255.807 142.755 255.895C142.755 255.983 142.755 256.083 142.755 256.195H138.015C138.039 256.651 138.143 257.031 138.327 257.335C138.519 257.631 138.755 257.855 139.035 258.007C139.323 258.159 139.627 258.235 139.947 258.235C140.363 258.235 140.711 258.139 140.991 257.947C141.271 257.755 141.475 257.495 141.603 257.167H142.599C142.439 257.719 142.131 258.179 141.675 258.547C141.227 258.907 140.651 259.087 139.947 259.087ZM139.947 253.699C139.467 253.699 139.039 253.847 138.663 254.143C138.295 254.431 138.083 254.855 138.027 255.415H141.771C141.747 254.879 141.563 254.459 141.219 254.155C140.875 253.851 140.451 253.699 139.947 253.699Z" fill="#667085"/>
<path d="M78.6014 285.111C77.8547 285.111 77.2154 284.952 76.6834 284.635C76.1607 284.318 75.7594 283.874 75.4794 283.305C75.2087 282.736 75.0734 282.068 75.0734 281.303C75.0734 280.416 75.2041 279.59 75.4654 278.825C75.7361 278.05 76.1094 277.378 76.5854 276.809C77.0614 276.23 77.6167 275.782 78.2514 275.465C78.8861 275.138 79.5767 274.975 80.3234 274.975C81.0701 274.975 81.7047 275.134 82.2274 275.451C82.7594 275.768 83.1607 276.212 83.4314 276.781C83.7114 277.35 83.8514 278.018 83.8514 278.783C83.8514 279.679 83.7161 280.51 83.4454 281.275C83.1841 282.04 82.8154 282.712 82.3394 283.291C81.8634 283.86 81.3081 284.308 80.6734 284.635C80.0387 284.952 79.3481 285.111 78.6014 285.111ZM78.7974 283.781C79.2827 283.781 79.7354 283.66 80.1554 283.417C80.5754 283.165 80.9487 282.82 81.2754 282.381C81.6021 281.933 81.8541 281.42 82.0314 280.841C82.2181 280.253 82.3114 279.628 82.3114 278.965C82.3114 278.134 82.1107 277.486 81.7094 277.019C81.3174 276.543 80.7901 276.305 80.1274 276.305C79.6421 276.305 79.1847 276.431 78.7554 276.683C78.3354 276.935 77.9621 277.28 77.6354 277.719C77.3181 278.158 77.0661 278.671 76.8794 279.259C76.7021 279.838 76.6134 280.458 76.6134 281.121C76.6134 281.961 76.8094 282.614 77.2014 283.081C77.6027 283.548 78.1347 283.781 78.7974 283.781ZM85.3688 284.943L86.7968 276.823L85.1308 277.257L85.3268 276.095L87.6788 275.143H88.6308L86.8948 284.943H85.3688ZM88.7458 284.943L88.9278 283.879C90.7945 282.572 92.2085 281.42 93.1698 280.421C94.1311 279.422 94.6118 278.489 94.6118 277.621C94.6118 277.266 94.5091 276.949 94.3038 276.669C94.0985 276.38 93.7391 276.235 93.2258 276.235C92.6565 276.235 92.1991 276.422 91.8538 276.795C91.5085 277.168 91.2891 277.616 91.1958 278.139H89.7678C89.8891 277.467 90.1225 276.898 90.4678 276.431C90.8225 275.955 91.2518 275.596 91.7558 275.353C92.2598 275.101 92.8058 274.975 93.3938 274.975C94.2338 274.975 94.9011 275.199 95.3958 275.647C95.8905 276.095 96.1378 276.692 96.1378 277.439C96.1378 278.148 95.9371 278.839 95.5358 279.511C95.1345 280.174 94.5558 280.85 93.7998 281.541C93.0531 282.232 92.1478 282.955 91.0838 283.711H95.5638L95.3538 284.943H88.7458ZM100.088 285.111C99.5189 285.111 99.0102 285.018 98.5622 284.831C98.1142 284.644 97.7596 284.364 97.4982 283.991C97.2369 283.608 97.1062 283.132 97.1062 282.563C97.1062 282.367 97.1202 282.171 97.1482 281.975H98.6322C98.6229 282.031 98.6136 282.092 98.6042 282.157C98.6042 282.213 98.6042 282.283 98.6042 282.367C98.6042 282.787 98.7442 283.137 99.0242 283.417C99.3136 283.697 99.7336 283.837 100.284 283.837C100.9 283.837 101.409 283.655 101.81 283.291C102.221 282.918 102.426 282.442 102.426 281.863C102.426 281.368 102.249 280.99 101.894 280.729C101.549 280.468 101.101 280.337 100.55 280.337H99.8222L100.032 279.105H100.774C101.4 279.105 101.908 278.951 102.3 278.643C102.692 278.326 102.888 277.901 102.888 277.369C102.888 277.052 102.776 276.786 102.552 276.571C102.328 276.356 102.002 276.249 101.572 276.249C101.068 276.249 100.644 276.398 100.298 276.697C99.9622 276.986 99.7382 277.35 99.6262 277.789H98.1562C98.2869 277.22 98.5156 276.725 98.8422 276.305C99.1782 275.885 99.5936 275.558 100.088 275.325C100.583 275.092 101.134 274.975 101.74 274.975C102.608 274.975 103.266 275.18 103.714 275.591C104.172 275.992 104.4 276.506 104.4 277.131C104.4 277.504 104.316 277.864 104.148 278.209C103.99 278.554 103.761 278.858 103.462 279.119C103.164 279.38 102.809 279.562 102.398 279.665C102.856 279.768 103.22 280.001 103.49 280.365C103.77 280.72 103.91 281.168 103.91 281.709C103.91 282.362 103.742 282.946 103.406 283.459C103.08 283.972 102.627 284.378 102.048 284.677C101.47 284.966 100.816 285.111 100.088 285.111ZM108.654 285.111C108.01 285.111 107.454 284.994 106.988 284.761C106.53 284.528 106.18 284.206 105.938 283.795C105.695 283.384 105.578 282.918 105.588 282.395C105.588 282.376 105.588 282.353 105.588 282.325C105.588 282.297 105.588 282.269 105.588 282.241H107.044C107.053 282.726 107.226 283.118 107.562 283.417C107.898 283.706 108.322 283.851 108.836 283.851C109.302 283.851 109.722 283.739 110.096 283.515C110.469 283.282 110.763 282.969 110.978 282.577C111.192 282.176 111.3 281.728 111.3 281.233C111.3 280.72 111.15 280.29 110.852 279.945C110.553 279.6 110.147 279.427 109.634 279.427C109.158 279.427 108.728 279.544 108.346 279.777C107.972 280.001 107.678 280.286 107.464 280.631H106.05L107.856 275.143H113.134L112.91 276.445H108.738L107.772 279.063C108.033 278.82 108.355 278.62 108.738 278.461C109.12 278.293 109.55 278.209 110.026 278.209C110.604 278.209 111.094 278.335 111.496 278.587C111.906 278.839 112.219 279.18 112.434 279.609C112.648 280.029 112.756 280.491 112.756 280.995C112.756 281.788 112.574 282.498 112.21 283.123C111.846 283.739 111.351 284.224 110.726 284.579C110.11 284.934 109.419 285.111 108.654 285.111ZM117.532 285.111C116.767 285.111 116.151 284.952 115.684 284.635C115.227 284.318 114.891 283.902 114.676 283.389C114.471 282.866 114.368 282.302 114.368 281.695C114.368 280.78 114.485 279.922 114.718 279.119C114.952 278.307 115.283 277.593 115.712 276.977C116.142 276.352 116.65 275.862 117.238 275.507C117.826 275.152 118.475 274.975 119.184 274.975C119.81 274.975 120.323 275.101 120.724 275.353C121.126 275.605 121.415 275.941 121.592 276.361C121.779 276.781 121.858 277.238 121.83 277.733H120.444C120.444 277.257 120.318 276.888 120.066 276.627C119.814 276.356 119.46 276.221 119.002 276.221C118.33 276.221 117.719 276.534 117.168 277.159C116.627 277.775 116.221 278.732 115.95 280.029C116.258 279.618 116.641 279.287 117.098 279.035C117.565 278.774 118.092 278.643 118.68 278.643C119.212 278.643 119.684 278.764 120.094 279.007C120.514 279.24 120.841 279.562 121.074 279.973C121.308 280.384 121.424 280.85 121.424 281.373C121.424 282.064 121.247 282.694 120.892 283.263C120.547 283.823 120.08 284.271 119.492 284.607C118.904 284.943 118.251 285.111 117.532 285.111ZM117.644 283.823C118.092 283.823 118.489 283.73 118.834 283.543C119.18 283.347 119.45 283.081 119.646 282.745C119.842 282.409 119.94 282.026 119.94 281.597C119.94 281.121 119.786 280.724 119.478 280.407C119.18 280.08 118.769 279.917 118.246 279.917C117.798 279.917 117.402 280.02 117.056 280.225C116.711 280.421 116.436 280.687 116.23 281.023C116.025 281.359 115.922 281.728 115.922 282.129C115.922 282.605 116.076 283.006 116.384 283.333C116.702 283.66 117.122 283.823 117.644 283.823ZM123.081 284.943L128.387 276.417H123.333L123.557 275.143H130.179L129.983 276.221L124.677 284.943H123.081ZM130.559 284.943L135.865 276.417H130.811L131.035 275.143H137.657L137.461 276.221L132.155 284.943H130.559ZM140.55 285.111C139.906 285.111 139.351 284.994 138.884 284.761C138.427 284.528 138.077 284.206 137.834 283.795C137.592 283.384 137.475 282.918 137.484 282.395C137.484 282.376 137.484 282.353 137.484 282.325C137.484 282.297 137.484 282.269 137.484 282.241H138.94C138.95 282.726 139.122 283.118 139.458 283.417C139.794 283.706 140.219 283.851 140.732 283.851C141.199 283.851 141.619 283.739 141.992 283.515C142.366 283.282 142.66 282.969 142.874 282.577C143.089 282.176 143.196 281.728 143.196 281.233C143.196 280.72 143.047 280.29 142.748 279.945C142.45 279.6 142.044 279.427 141.53 279.427C141.054 279.427 140.625 279.544 140.242 279.777C139.869 280.001 139.575 280.286 139.36 280.631H137.946L139.752 275.143H145.03L144.806 276.445H140.634L139.668 279.063C139.93 278.82 140.252 278.62 140.634 278.461C141.017 278.293 141.446 278.209 141.922 278.209C142.501 278.209 142.991 278.335 143.392 278.587C143.803 278.839 144.116 279.18 144.33 279.609C144.545 280.029 144.652 280.491 144.652 280.995C144.652 281.788 144.47 282.498 144.106 283.123C143.742 283.739 143.248 284.224 142.622 284.579C142.006 284.934 141.316 285.111 140.55 285.111ZM146.227 284.943L151.533 276.417H146.479L146.703 275.143H153.325L153.129 276.221L147.823 284.943H146.227Z" fill="#1D2939"/>
<path d="M64 180.668H524H64ZM524.642 294.081C524.642 297.273 522.055 299.86 518.862 299.86H69.1376C65.9455 299.86 63.3578 297.273 63.3578 294.081H64.6422C64.6422 296.563 66.6549 298.576 69.1376 298.576H518.862C521.345 298.576 523.358 296.563 523.358 294.081H524.642ZM69.1376 299.86C65.9455 299.86 63.3578 297.273 63.3578 294.081V180.668H64.6422V294.081C64.6422 296.563 66.6549 298.576 69.1376 298.576V299.86ZM524.642 180.668V294.081C524.642 297.273 522.055 299.86 518.862 299.86V298.576C521.345 298.576 523.358 296.563 523.358 294.081V180.668H524.642Z" fill="#EAECF0" mask="url(#path-16-inside-2_7877_101567)"/>
<path d="M39 49.6677C39 42.488 44.8203 36.6677 52 36.6677H536C543.18 36.6677 549 42.488 549 49.6677H547C547 43.5926 542.075 38.6677 536 38.6677H52C45.9249 38.6677 41 43.5926 41 49.6677H39ZM548 312.668H40H548ZM39 312.668V49.6677C39 42.488 44.8203 36.6677 52 36.6677V38.6677C45.9249 38.6677 41 43.5926 41 49.6677V312.668H39ZM536 36.6677C543.18 36.6677 549 42.488 549 49.6677V312.668H547V49.6677C547 43.5926 542.075 38.6677 536 38.6677V36.6677Z" fill="#FCFCFD" mask="url(#path-1-inside-1_7877_101567)"/>
</g>
<defs>
<filter id="filter0_d_7877_101567" x="-1" y="0.667725" width="590" height="357" filterUnits="userSpaceOnUse" color-interpolation-filters="sRGB">
<feFlood flood-opacity="0" result="BackgroundImageFix"/>
<feColorMatrix in="SourceAlpha" type="matrix" values="0 0 0 0 0 0 0 0 0 0 0 0 0 0 0 0 0 0 127 0" result="hardAlpha"/>
<feOffset dy="4"/>
<feGaussianBlur stdDeviation="20.5"/>
<feComposite in2="hardAlpha" operator="out"/>
<feColorMatrix type="matrix" values="0 0 0 0 0.858333 0 0 0 0 0.858333 0 0 0 0 0.858333 0 0 0 0.25 0"/>
<feBlend mode="normal" in2="BackgroundImageFix" result="effect1_dropShadow_7877_101567"/>
<feBlend mode="normal" in="SourceGraphic" in2="effect1_dropShadow_7877_101567" result="shape"/>
</filter>
<filter id="filter1_d_7877_101567" x="449.468" y="136.246" width="64.5322" height="29.844" filterUnits="userSpaceOnUse" color-interpolation-filters="sRGB">
<feFlood flood-opacity="0" result="BackgroundImageFix"/>
<feColorMatrix in="SourceAlpha" type="matrix" values="0 0 0 0 0 0 0 0 0 0 0 0 0 0 0 0 0 0 127 0" result="hardAlpha"/>
<feOffset dy="1"/>
<feGaussianBlur stdDeviation="1"/>
<feColorMatrix type="matrix" values="0 0 0 0 0.0627451 0 0 0 0 0.0941176 0 0 0 0 0.156863 0 0 0 0.05 0"/>
<feBlend mode="normal" in2="BackgroundImageFix" result="effect1_dropShadow_7877_101567"/>
<feBlend mode="normal" in="SourceGraphic" in2="effect1_dropShadow_7877_101567" result="shape"/>
</filter>
<clipPath id="clip0_7877_101567">
<rect width="49" height="38" fill="white" transform="translate(64 61.6677)"/>
</clipPath>
<clipPath id="clip1_7877_101567">
<rect width="97" height="38" fill="white" transform="translate(129 61.6677)"/>
</clipPath>
</defs>
</svg>
