<svg width="141" height="141" viewBox="0 0 141 141" fill="none" xmlns="http://www.w3.org/2000/svg">
<g filter="url(#filter0_d_7877_100919)">
<path d="M41.0459 52.835C40.4683 46.2328 45.3521 40.4124 51.9543 39.8347L83.8326 37.0458C90.4348 36.4681 96.2552 41.352 96.8328 47.9542L99.6218 79.8325C100.199 86.4347 95.3155 92.255 88.7133 92.8327L56.8351 95.6217C50.2329 96.1993 44.4125 91.3154 43.8349 84.7132L41.0459 52.835Z" fill="white"/>
<g clip-path="url(#clip0_7877_100919)">
<path d="M56.9096 73.531L84.8031 71.0906L84.9774 73.083L57.0839 75.5233L56.9096 73.531ZM57.2583 77.5157L85.1517 75.0754L85.326 77.0678L57.4326 79.5081L57.2583 77.5157ZM77.78 59.6592C77.386 59.6937 77.011 59.8442 76.7025 60.0918C76.394 60.3394 76.1659 60.6729 76.0469 61.0502C75.928 61.4274 75.9236 61.8315 76.0343 62.2112C76.145 62.591 76.3658 62.9294 76.6688 63.1837C76.9718 63.4379 77.3434 63.5966 77.7366 63.6397C78.1298 63.6828 78.527 63.6083 78.8779 63.4256C79.2287 63.243 79.5176 62.9604 79.7078 62.6136C79.8981 62.2668 79.9812 61.8713 79.9467 61.4773C79.9005 60.9489 79.6463 60.4605 79.2399 60.1195C78.8336 59.7785 78.3085 59.613 77.78 59.6592ZM70.3334 66.3336C69.5453 66.4026 68.7544 66.2363 68.0608 65.8557C67.3672 65.4752 66.8021 64.8976 66.4368 64.1958C66.0715 63.4941 65.9224 62.6998 66.0086 61.9134C66.0947 61.1269 66.4121 60.3837 66.9206 59.7777C67.4291 59.1716 68.106 58.73 68.8655 58.5086C69.625 58.2872 70.4331 58.2961 71.1876 58.534C71.9421 58.7719 72.6092 59.2281 73.1043 59.8451C73.5995 60.4621 73.9006 61.2121 73.9696 62.0002C74.0607 63.0567 73.729 64.1063 73.0474 64.9187C72.3657 65.731 71.3897 66.2399 70.3334 66.3336ZM69.8105 60.3564C69.4164 60.3909 69.0414 60.5415 68.733 60.7891C68.4245 61.0367 68.1963 61.3702 68.0774 61.7474C67.9584 62.1247 67.954 62.5287 68.0647 62.9085C68.1754 63.2882 68.3962 63.6267 68.6992 63.8809C69.0022 64.1352 69.3739 64.2939 69.7671 64.3369C70.1603 64.38 70.5574 64.3055 70.9083 64.1229C71.2592 63.9402 71.548 63.6576 71.7383 63.3108C71.9285 62.964 72.0117 62.5686 71.9772 62.1745C71.9304 61.6463 71.6761 61.1582 71.2698 60.8174C70.8636 60.4765 70.3388 60.3108 69.8105 60.3564ZM61.8409 61.0537C61.4469 61.0882 61.0719 61.2387 60.7634 61.4863C60.4549 61.7339 60.2268 62.0674 60.1078 62.4447C59.9889 62.8219 59.9845 63.226 60.0951 63.6057C60.2058 63.9855 60.4267 64.3239 60.7297 64.5782C61.0327 64.8324 61.4043 64.9911 61.7975 65.0342C62.1907 65.0773 62.5879 65.0027 62.9387 64.8201C63.2896 64.6374 63.5784 64.3549 63.7687 64.0081C63.959 63.6613 64.0421 63.2658 64.0076 62.8718C63.9614 62.3433 63.7072 61.8549 63.3008 61.514C62.8945 61.173 62.3693 61.0075 61.8409 61.0537Z" fill="#027A48"/>
<path d="M82.6364 69.2727L58.7277 71.3644C58.1996 71.4093 57.6752 71.2432 57.2691 70.9025C56.8631 70.5618 56.6085 70.0742 56.561 69.5463L55.5151 57.592C55.4703 57.0639 55.6363 56.5395 55.977 56.1334C56.3177 55.7274 56.8053 55.4728 57.3332 55.4253L81.2419 53.3336C81.77 53.2887 82.2944 53.4547 82.7004 53.7954C83.1065 54.1361 83.3611 54.6237 83.4086 55.1516L84.4545 67.106C84.4999 67.6342 84.334 68.1589 83.9932 68.5651C83.6524 68.9712 83.1645 69.2257 82.6364 69.2727ZM81.4162 55.3259L57.5075 57.4177L58.5534 69.372L82.4621 67.2803L81.4162 55.3259Z" fill="#027A48"/>
</g>
</g>
<defs>
<filter id="filter0_d_7877_100919" x="-1" y="-1" width="142.667" height="142.667" filterUnits="userSpaceOnUse" color-interpolation-filters="sRGB">
<feFlood flood-opacity="0" result="BackgroundImageFix"/>
<feColorMatrix in="SourceAlpha" type="matrix" values="0 0 0 0 0 0 0 0 0 0 0 0 0 0 0 0 0 0 127 0" result="hardAlpha"/>
<feOffset dy="4"/>
<feGaussianBlur stdDeviation="20.5"/>
<feComposite in2="hardAlpha" operator="out"/>
<feColorMatrix type="matrix" values="0 0 0 0 0.858333 0 0 0 0 0.858333 0 0 0 0 0.858333 0 0 0 0.25 0"/>
<feBlend mode="normal" in2="BackgroundImageFix" result="effect1_dropShadow_7877_100919"/>
<feBlend mode="normal" in="SourceGraphic" in2="effect1_dropShadow_7877_100919" result="shape"/>
</filter>
<clipPath id="clip0_7877_100919">
<rect width="32" height="32" fill="white" transform="translate(53 51.7891) rotate(-5)"/>
</clipPath>
</defs>
</svg>
