<svg width="40" height="40" viewBox="0 0 40 40" fill="none" xmlns="http://www.w3.org/2000/svg">
<g clip-path="url(#clip0_15497_18821)">
<rect width="40" height="40" rx="20" fill="#E0F2FE"/>
<path d="M26.1416 15.2559L12.4449 34.5558C1.86104 21.1081 -14.575 17.4322 -29.2679 18.4283C-22.9591 13.0326 -15.87 0.498063 -14.575 0.498063C-13.2801 0.498063 -10.632 0.189461 -8.34924 0.0649516C9.38179 -0.931174 22.0326 9.77718 26.1416 15.2559Z" fill="#7CD4FD"/>
<path d="M28.5068 15.3145L14.8101 34.6144C4.22628 21.1667 -14.4511 17.4312 -29.1439 18.4273C-22.8351 13.0317 -15.746 0.497074 -14.4511 0.497074C-13.1561 0.497074 -8.2668 0.248055 -5.98401 0.123545C11.747 -0.87258 24.3978 9.83577 28.5068 15.3145Z" fill="#026AA2"/>
<path d="M34.9824 15.2559L21.2857 34.5558C10.7019 21.1081 -5.73421 17.4322 -20.4271 18.4283C-14.1183 13.0326 -7.02917 0.498063 -5.73421 0.498063C-4.43924 0.498063 -1.79121 0.189461 0.491577 0.0649516C18.2226 -0.931174 30.8734 9.77718 34.9824 15.2559Z" fill="#7CD4FD"/>
<path d="M37.3477 15.3145L23.6509 34.6144C13.0671 21.1667 -5.61026 17.4312 -20.3031 18.4273C-13.9943 13.0317 -6.90522 0.497074 -5.61026 0.497074C-4.31529 0.497074 0.574024 0.248055 2.85681 0.123545C20.5878 -0.87258 33.2386 9.83577 37.3477 15.3145Z" fill="#026AA2"/>
<path d="M28.5068 12.5752C28.2993 12.6997 27.8345 13.1978 27.6352 14.1939C27.3862 15.4391 26.6391 16.5597 25.5185 17.1823C24.3978 17.8049 23.6507 18.801 23.5262 20.0461C23.4266 21.0423 22.8206 21.7063 22.5301 21.9139M20.9114 23.159C21.1189 23.6156 21.2102 24.5536 19.9153 24.6532C18.2965 24.7777 20.4133 25.4003 19.9153 26.1474" stroke="#E0F2FE" stroke-width="0.498063"/>
<path d="M23.7754 9.21387C23.5679 9.33838 23.103 9.83645 22.9038 10.8326C22.6547 12.0777 21.9077 13.1984 20.787 13.8209C19.6664 14.4435 18.9193 15.4397 18.7948 16.6848C18.6952 17.6809 18.0892 18.345 17.7986 18.5525M16.1799 19.7977C16.3875 20.2543 16.4788 21.1923 15.1838 21.2919C13.5651 21.4164 15.6819 22.039 15.1838 22.7861" stroke="#E0F2FE" stroke-width="0.498063"/>
<path d="M19.0439 6.47363C18.8364 6.59815 18.3716 7.09621 18.1723 8.09234C17.9233 9.33749 17.1762 10.4581 16.0556 11.0807C14.9349 11.7033 14.1878 12.6994 14.0633 13.9446C13.9637 14.9407 13.3577 15.6048 13.0672 15.8123M11.4485 17.0575C11.656 17.514 11.7473 18.452 10.4524 18.5517C8.83366 18.6762 10.9504 19.2987 10.4524 20.0458" stroke="#E0F2FE" stroke-width="0.498063"/>
<path d="M13.5654 4.48242C13.3579 4.60694 12.893 5.105 12.6938 6.10113C12.4448 7.34628 11.6977 8.46692 10.5771 9.0895C9.45641 9.71208 8.70932 10.7082 8.5848 11.9534C8.48519 12.9495 7.87921 13.6136 7.58868 13.8211M5.96997 15.0663C6.1775 15.5228 6.26881 16.4608 4.97385 16.5604C3.35514 16.685 5.47191 17.3075 4.97385 18.0546" stroke="#E0F2FE" stroke-width="0.498063"/>
<path d="M7.33984 3.73535C7.13232 3.85987 6.66746 4.35793 6.46823 5.35406C6.2192 6.59921 5.47211 7.71985 4.35147 8.34243C3.23083 8.96501 2.48373 9.96114 2.35922 11.2063C2.2596 12.2024 1.65363 12.8665 1.36309 13.074M-0.255613 14.3192C-0.0480867 14.7757 0.0432247 15.7138 -1.25174 15.8134C-2.87044 15.9379 -0.753676 16.5605 -1.25174 17.3076" stroke="#E0F2FE" stroke-width="0.498063"/>
</g>
<defs>
<clipPath id="clip0_15497_18821">
<rect width="40" height="40" rx="20" fill="white"/>
</clipPath>
</defs>
</svg>
