<svg width="588" height="312" viewBox="0 0 588 312" fill="none" xmlns="http://www.w3.org/2000/svg">
<g filter="url(#filter0_d_7877_101743)">
<mask id="path-1-inside-1_7877_101743" fill="white">
<path d="M40 49C40 42.3726 45.3726 37 52 37H536C542.627 37 548 42.3726 548 49V312H40V49Z"/>
</mask>
<path d="M40 49C40 42.3726 45.3726 37 52 37H536C542.627 37 548 42.3726 548 49V312H40V49Z" fill="white" shape-rendering="crispEdges"/>
<path d="M89.334 96.168C88.3727 96.168 87.542 95.958 86.842 95.538C86.1513 95.1087 85.6147 94.516 85.232 93.76C84.8493 92.9947 84.658 92.108 84.658 91.1C84.658 90.1013 84.8493 89.224 85.232 88.468C85.6147 87.7027 86.1513 87.1053 86.842 86.676C87.542 86.2467 88.3727 86.032 89.334 86.032C90.454 86.032 91.364 86.3027 92.064 86.844C92.7733 87.376 93.226 88.1227 93.422 89.084H92.12C91.9707 88.4773 91.6627 87.992 91.196 87.628C90.7387 87.2547 90.118 87.068 89.334 87.068C88.634 87.068 88.0227 87.2313 87.5 87.558C86.9773 87.8753 86.5713 88.3373 86.282 88.944C86.002 89.5413 85.862 90.26 85.862 91.1C85.862 91.94 86.002 92.6633 86.282 93.27C86.5713 93.8673 86.9773 94.3293 87.5 94.656C88.0227 94.9733 88.634 95.132 89.334 95.132C90.118 95.132 90.7387 94.9547 91.196 94.6C91.6627 94.236 91.9707 93.7553 92.12 93.158H93.422C93.226 94.1007 92.7733 94.838 92.064 95.37C91.364 95.902 90.454 96.168 89.334 96.168ZM97.3522 96.168C96.7735 96.168 96.2928 96.07 95.9102 95.874C95.5275 95.678 95.2428 95.4167 95.0562 95.09C94.8695 94.7633 94.7762 94.4087 94.7762 94.026C94.7762 93.3167 95.0468 92.7707 95.5882 92.388C96.1295 92.0053 96.8668 91.814 97.8002 91.814H99.6762V91.73C99.6762 91.1233 99.5175 90.666 99.2002 90.358C98.8828 90.0407 98.4582 89.882 97.9262 89.882C97.4688 89.882 97.0722 89.9987 96.7362 90.232C96.4095 90.456 96.2042 90.7873 96.1202 91.226H94.9162C94.9628 90.722 95.1308 90.2973 95.4202 89.952C95.7188 89.6067 96.0875 89.3453 96.5262 89.168C96.9648 88.9813 97.4315 88.888 97.9262 88.888C98.8968 88.888 99.6248 89.1493 100.11 89.672C100.605 90.1853 100.852 90.8713 100.852 91.73V96H99.8022L99.7322 94.754C99.5362 95.146 99.2468 95.482 98.8642 95.762C98.4908 96.0327 97.9868 96.168 97.3522 96.168ZM97.5342 95.174C97.9822 95.174 98.3648 95.0573 98.6822 94.824C99.0088 94.5907 99.2562 94.2873 99.4242 93.914C99.5922 93.5407 99.6762 93.1487 99.6762 92.738V92.724H97.8982C97.2075 92.724 96.7175 92.8453 96.4282 93.088C96.1482 93.3213 96.0082 93.6153 96.0082 93.97C96.0082 94.334 96.1388 94.628 96.4002 94.852C96.6708 95.0667 97.0488 95.174 97.5342 95.174ZM105.276 96.168C104.446 96.168 103.755 95.958 103.204 95.538C102.654 95.118 102.332 94.5487 102.238 93.83H103.442C103.517 94.194 103.708 94.5113 104.016 94.782C104.334 95.0433 104.758 95.174 105.29 95.174C105.785 95.174 106.149 95.0713 106.382 94.866C106.616 94.6513 106.732 94.3993 106.732 94.11C106.732 93.69 106.578 93.41 106.27 93.27C105.972 93.13 105.547 93.004 104.996 92.892C104.623 92.8173 104.25 92.71 103.876 92.57C103.503 92.43 103.19 92.234 102.938 91.982C102.686 91.7207 102.56 91.38 102.56 90.96C102.56 90.3533 102.784 89.8587 103.232 89.476C103.69 89.084 104.306 88.888 105.08 88.888C105.818 88.888 106.42 89.0747 106.886 89.448C107.362 89.812 107.638 90.3347 107.712 91.016H106.55C106.504 90.6613 106.35 90.386 106.088 90.19C105.836 89.9847 105.496 89.882 105.066 89.882C104.646 89.882 104.32 89.9707 104.086 90.148C103.862 90.3253 103.75 90.5587 103.75 90.848C103.75 91.128 103.895 91.3473 104.184 91.506C104.483 91.6647 104.884 91.8 105.388 91.912C105.818 92.0053 106.224 92.122 106.606 92.262C106.998 92.3927 107.316 92.5933 107.558 92.864C107.81 93.1253 107.936 93.508 107.936 94.012C107.946 94.6373 107.708 95.1553 107.222 95.566C106.746 95.9673 106.098 96.168 105.276 96.168ZM109.616 96V85.92H110.792V90.246C111.026 89.8167 111.357 89.4853 111.786 89.252C112.216 89.0093 112.682 88.888 113.186 88.888C113.989 88.888 114.633 89.14 115.118 89.644C115.604 90.1387 115.846 90.904 115.846 91.94V96H114.684V92.066C114.684 90.6193 114.101 89.896 112.934 89.896C112.328 89.896 111.819 90.1153 111.408 90.554C110.998 90.9833 110.792 91.5993 110.792 92.402V96H109.616ZM121.711 96V90.05H120.661V89.056H121.711V87.852C121.711 87.18 121.879 86.69 122.215 86.382C122.551 86.074 123.041 85.92 123.685 85.92H124.385V86.928H123.867C123.513 86.928 123.261 87.0027 123.111 87.152C122.962 87.292 122.887 87.5347 122.887 87.88V89.056H124.595V90.05H122.887V96H121.711ZM125.995 96V85.92H127.171V96H125.995ZM132.263 96.168C131.609 96.168 131.021 96.0187 130.499 95.72C129.976 95.4213 129.561 95.0013 129.253 94.46C128.954 93.9093 128.805 93.2653 128.805 92.528C128.805 91.7907 128.959 91.1513 129.267 90.61C129.575 90.0593 129.99 89.6347 130.513 89.336C131.045 89.0373 131.637 88.888 132.291 88.888C132.944 88.888 133.532 89.0373 134.055 89.336C134.577 89.6347 134.988 90.0593 135.287 90.61C135.595 91.1513 135.749 91.7907 135.749 92.528C135.749 93.2653 135.595 93.9093 135.287 94.46C134.979 95.0013 134.559 95.4213 134.027 95.72C133.504 96.0187 132.916 96.168 132.263 96.168ZM132.263 95.16C132.664 95.16 133.037 95.062 133.383 94.866C133.728 94.67 134.008 94.376 134.223 93.984C134.437 93.592 134.545 93.1067 134.545 92.528C134.545 91.9493 134.437 91.464 134.223 91.072C134.017 90.68 133.742 90.386 133.397 90.19C133.051 89.994 132.683 89.896 132.291 89.896C131.889 89.896 131.516 89.994 131.171 90.19C130.825 90.386 130.545 90.68 130.331 91.072C130.116 91.464 130.009 91.9493 130.009 92.528C130.009 93.1067 130.116 93.592 130.331 93.984C130.545 94.376 130.821 94.67 131.157 94.866C131.502 95.062 131.871 95.16 132.263 95.16ZM138.524 96L136.494 89.056H137.67L139.14 94.502L140.764 89.056H142.094L143.732 94.502L145.188 89.056H146.378L144.348 96H143.144L141.436 90.274L139.728 96H138.524Z" fill="#667085"/>
<line x1="84.5" y1="111.5" x2="503.5" y2="111.5" stroke="#F2F4F7" stroke-linecap="round"/>
<line x1="84.5" y1="139.4" x2="503.5" y2="139.4" stroke="#F2F4F7" stroke-linecap="round"/>
<line x1="84.5" y1="164.8" x2="503.5" y2="164.8" stroke="#F2F4F7" stroke-linecap="round"/>
<line x1="84.5" y1="190.2" x2="503.5" y2="190.2" stroke="#F2F4F7" stroke-linecap="round"/>
<line x1="84.5" y1="215.6" x2="503.5" y2="215.6" stroke="#F2F4F7" stroke-linecap="round"/>
<line x1="84.5" y1="241" x2="503.5" y2="241" stroke="#F2F4F7" stroke-linecap="round"/>
<path d="M95.9817 255.6H94.9377V261.936C94.9377 262.32 94.8537 262.596 94.6857 262.764C94.5177 262.932 94.2417 263.016 93.8697 263.016H92.9097V264H94.0017C94.6497 264 95.1417 263.832 95.4777 263.496C95.8137 263.16 95.9817 262.668 95.9817 262.02V255.6ZM103.189 263.1H102.889C102.613 263.1 102.481 262.956 102.481 262.656V260.016C102.481 259.308 102.265 258.768 101.833 258.384C101.401 258 100.801 257.808 100.021 257.808C99.277 257.808 98.677 257.976 98.221 258.312C97.765 258.648 97.501 259.116 97.429 259.716H98.413C98.473 259.404 98.641 259.164 98.917 258.972C99.193 258.78 99.541 258.684 99.973 258.684C100.453 258.684 100.825 258.804 101.089 259.02C101.353 259.248 101.497 259.56 101.497 259.956V260.376H99.697C98.893 260.376 98.281 260.544 97.861 260.868C97.441 261.204 97.237 261.672 97.237 262.284C97.237 262.836 97.441 263.28 97.849 263.592C98.257 263.916 98.809 264.072 99.493 264.072C100.381 264.072 101.065 263.736 101.545 263.052C101.545 263.364 101.641 263.604 101.809 263.76C101.977 263.928 102.253 264 102.649 264H103.189V263.1ZM101.497 261.204V261.504C101.497 262.032 101.317 262.452 100.981 262.764C100.633 263.076 100.165 263.232 99.565 263.232C99.157 263.232 98.833 263.148 98.593 262.956C98.353 262.776 98.233 262.536 98.233 262.224C98.233 261.552 98.689 261.204 99.601 261.204H101.497ZM108.733 258.48C108.277 258.036 107.689 257.808 106.945 257.808C106.057 257.808 105.385 258.108 104.929 258.708L104.797 257.88H103.945V264H104.929V260.94C104.929 260.256 105.085 259.716 105.421 259.308C105.745 258.912 106.201 258.708 106.777 258.708C107.305 258.708 107.713 258.876 108.001 259.212C108.289 259.548 108.433 260.028 108.433 260.652V264H109.417V260.592C109.417 259.632 109.189 258.936 108.733 258.48Z" fill="#667085"/>
<path d="M155.001 255.6V264H156.021V257.376L158.805 264H159.729L162.513 257.376V264H163.533V255.6H162.237L159.297 262.572L156.321 255.6H155.001ZM170.741 263.1H170.441C170.165 263.1 170.033 262.956 170.033 262.656V260.016C170.033 259.308 169.817 258.768 169.385 258.384C168.953 258 168.353 257.808 167.573 257.808C166.829 257.808 166.229 257.976 165.773 258.312C165.317 258.648 165.053 259.116 164.981 259.716H165.965C166.025 259.404 166.193 259.164 166.469 258.972C166.745 258.78 167.093 258.684 167.525 258.684C168.005 258.684 168.377 258.804 168.641 259.02C168.905 259.248 169.049 259.56 169.049 259.956V260.376H167.249C166.445 260.376 165.833 260.544 165.413 260.868C164.993 261.204 164.789 261.672 164.789 262.284C164.789 262.836 164.993 263.28 165.401 263.592C165.809 263.916 166.361 264.072 167.045 264.072C167.933 264.072 168.617 263.736 169.097 263.052C169.097 263.364 169.193 263.604 169.361 263.76C169.529 263.928 169.805 264 170.201 264H170.741V263.1ZM169.049 261.204V261.504C169.049 262.032 168.869 262.452 168.533 262.764C168.185 263.076 167.717 263.232 167.117 263.232C166.709 263.232 166.385 263.148 166.145 262.956C165.905 262.776 165.785 262.536 165.785 262.224C165.785 261.552 166.241 261.204 167.153 261.204H169.049ZM174.606 257.88H174.33C173.826 257.88 173.442 257.964 173.166 258.132C172.878 258.3 172.65 258.528 172.482 258.804L172.35 257.88H171.498V264H172.482V260.88C172.482 260.304 172.602 259.824 172.854 259.428C173.106 259.044 173.526 258.84 174.114 258.84H174.606V257.88Z" fill="#667085"/>
<path d="M220.1 255.6V264H221.12V257.376L223.904 264H224.828L227.612 257.376V264H228.632V255.6H227.336L224.396 262.572L221.42 255.6H220.1ZM235.84 263.1H235.54C235.264 263.1 235.132 262.956 235.132 262.656V260.016C235.132 259.308 234.916 258.768 234.484 258.384C234.052 258 233.452 257.808 232.672 257.808C231.928 257.808 231.328 257.976 230.872 258.312C230.416 258.648 230.152 259.116 230.08 259.716H231.064C231.124 259.404 231.292 259.164 231.568 258.972C231.844 258.78 232.192 258.684 232.624 258.684C233.104 258.684 233.476 258.804 233.74 259.02C234.004 259.248 234.148 259.56 234.148 259.956V260.376H232.348C231.544 260.376 230.932 260.544 230.512 260.868C230.092 261.204 229.888 261.672 229.888 262.284C229.888 262.836 230.092 263.28 230.5 263.592C230.908 263.916 231.46 264.072 232.144 264.072C233.032 264.072 233.716 263.736 234.196 263.052C234.196 263.364 234.292 263.604 234.46 263.76C234.628 263.928 234.904 264 235.3 264H235.84V263.1ZM234.148 261.204V261.504C234.148 262.032 233.968 262.452 233.632 262.764C233.284 263.076 232.816 263.232 232.216 263.232C231.808 263.232 231.484 263.148 231.244 262.956C231.004 262.776 230.884 262.536 230.884 262.224C230.884 261.552 231.34 261.204 232.252 261.204H234.148ZM236.853 257.88H235.809L238.209 264.048L237.897 264.78C237.801 264.996 237.729 265.152 237.669 265.248C237.609 265.344 237.537 265.404 237.441 265.44C237.345 265.488 237.201 265.5 237.009 265.5H236.133V266.4H237.309C237.585 266.4 237.813 266.364 237.981 266.268C238.149 266.184 238.281 266.052 238.401 265.86C238.509 265.68 238.641 265.404 238.785 265.032L241.605 257.88H240.561L238.737 262.872L236.853 257.88Z" fill="#667085"/>
<path d="M289.747 255.6H288.703V261.936C288.703 262.32 288.619 262.596 288.451 262.764C288.283 262.932 288.007 263.016 287.635 263.016H286.675V264H287.767C288.415 264 288.907 263.832 289.243 263.496C289.579 263.16 289.747 262.668 289.747 262.02V255.6ZM296.499 257.88H295.515V260.94C295.515 261.636 295.347 262.176 295.035 262.572C294.723 262.98 294.279 263.172 293.727 263.172C293.211 263.172 292.815 263.016 292.539 262.68C292.263 262.344 292.131 261.864 292.131 261.228V257.88H291.147V261.288C291.147 262.248 291.363 262.956 291.807 263.4C292.239 263.856 292.827 264.072 293.559 264.072C294.399 264.072 295.047 263.784 295.515 263.184L295.647 264H296.499V257.88ZM297.84 255.6V264H298.824V255.6H297.84Z" fill="#667085"/>
<path d="M345.717 261.252H344.685C344.709 261.804 344.853 262.296 345.117 262.728C345.381 263.16 345.765 263.484 346.257 263.724C346.737 263.964 347.313 264.072 347.973 264.072C348.549 264.072 349.065 263.976 349.521 263.76C349.977 263.556 350.325 263.268 350.577 262.884C350.829 262.512 350.961 262.08 350.961 261.6C350.961 260.868 350.709 260.34 350.205 260.004C349.701 259.668 349.029 259.428 348.189 259.284C347.661 259.2 347.241 259.116 346.941 259.02C346.629 258.924 346.389 258.792 346.197 258.612C346.005 258.432 345.909 258.18 345.909 257.856C345.909 257.424 346.065 257.076 346.401 256.836C346.725 256.596 347.169 256.464 347.733 256.464C348.285 256.464 348.753 256.62 349.137 256.908C349.509 257.208 349.725 257.604 349.797 258.084H350.829C350.793 257.58 350.649 257.136 350.385 256.752C350.121 256.368 349.761 256.056 349.305 255.84C348.849 255.624 348.321 255.516 347.733 255.516C347.169 255.516 346.665 255.624 346.233 255.816C345.801 256.02 345.465 256.308 345.225 256.668C344.985 257.028 344.865 257.448 344.865 257.916C344.865 258.66 345.105 259.188 345.609 259.512C346.101 259.848 346.773 260.076 347.613 260.22C348.141 260.316 348.549 260.4 348.861 260.496C349.173 260.592 349.425 260.724 349.617 260.916C349.809 261.108 349.917 261.372 349.917 261.696C349.917 262.152 349.737 262.5 349.377 262.752C349.017 263.004 348.561 263.124 347.985 263.124C347.337 263.124 346.809 262.956 346.401 262.62C345.981 262.284 345.753 261.828 345.717 261.252ZM352.286 259.296C352.046 259.776 351.926 260.316 351.926 260.94C351.926 261.564 352.046 262.104 352.298 262.584C352.55 263.064 352.91 263.424 353.366 263.688C353.822 263.952 354.35 264.072 354.962 264.072C355.658 264.072 356.246 263.88 356.726 263.484C357.206 263.088 357.506 262.572 357.626 261.948H356.63C356.522 262.344 356.318 262.656 356.006 262.872C355.694 263.088 355.322 263.196 354.89 263.196C354.314 263.196 353.858 263.016 353.51 262.656C353.15 262.296 352.97 261.816 352.958 261.216V261.132H357.71C357.722 260.94 357.734 260.808 357.734 260.712C357.71 260.124 357.578 259.608 357.338 259.164C357.086 258.732 356.75 258.396 356.318 258.156C355.886 257.928 355.382 257.808 354.83 257.808C354.254 257.808 353.75 257.94 353.318 258.204C352.874 258.468 352.526 258.828 352.286 259.296ZM356.714 260.316H353.018C353.066 259.836 353.258 259.44 353.618 259.128C353.966 258.828 354.374 258.672 354.842 258.672C355.358 258.672 355.79 258.816 356.126 259.104C356.462 259.392 356.666 259.8 356.714 260.316ZM363.453 258.18C363.009 257.94 362.505 257.808 361.941 257.808C361.053 257.808 360.345 258.168 359.841 258.864L359.709 257.88H358.857V266.4H359.841V263.064C360.033 263.376 360.309 263.628 360.669 263.808C361.017 263.988 361.437 264.072 361.941 264.072C362.493 264.072 362.997 263.94 363.453 263.676C363.897 263.412 364.245 263.052 364.497 262.572C364.749 262.104 364.881 261.564 364.881 260.94C364.881 260.292 364.749 259.74 364.497 259.26C364.245 258.792 363.897 258.432 363.453 258.18ZM363.309 262.572C362.937 262.992 362.445 263.196 361.845 263.196C361.449 263.196 361.101 263.1 360.789 262.908C360.477 262.716 360.249 262.452 360.081 262.104C359.913 261.756 359.829 261.36 359.829 260.916C359.829 260.484 359.913 260.1 360.081 259.764C360.249 259.428 360.477 259.164 360.789 258.972C361.101 258.78 361.449 258.684 361.845 258.684C362.445 258.684 362.937 258.9 363.309 259.32C363.681 259.74 363.873 260.28 363.873 260.94C363.873 261.612 363.681 262.152 363.309 262.572Z" fill="#667085"/>
<path d="M410.217 264H411.237V257.52L415.749 264H416.709V255.6H415.689V262.08L411.177 255.6H410.217V264ZM419.43 263.676C419.886 263.94 420.414 264.072 421.014 264.072C421.602 264.072 422.13 263.94 422.586 263.676C423.042 263.412 423.402 263.052 423.666 262.572C423.918 262.104 424.05 261.564 424.05 260.94C424.05 260.328 423.918 259.788 423.666 259.308C423.402 258.84 423.042 258.468 422.586 258.204C422.13 257.94 421.602 257.808 421.014 257.808C420.414 257.808 419.886 257.94 419.43 258.204C418.974 258.468 418.614 258.84 418.362 259.308C418.098 259.788 417.978 260.328 417.978 260.94C417.978 261.564 418.098 262.104 418.362 262.572C418.614 263.052 418.974 263.412 419.43 263.676ZM422.07 262.908C421.758 263.1 421.41 263.196 421.014 263.196C420.606 263.196 420.258 263.1 419.946 262.908C419.634 262.716 419.406 262.452 419.238 262.104C419.07 261.768 418.986 261.372 418.986 260.94C418.986 260.508 419.07 260.124 419.238 259.776C419.406 259.44 419.634 259.164 419.946 258.972C420.258 258.78 420.606 258.684 421.014 258.684C421.41 258.684 421.758 258.78 422.07 258.972C422.382 259.164 422.622 259.44 422.79 259.776C422.958 260.124 423.042 260.508 423.042 260.94C423.042 261.372 422.958 261.768 422.79 262.104C422.622 262.452 422.382 262.716 422.07 262.908ZM424.332 257.88L426.624 264H427.812L430.104 257.88H429.072L427.236 262.884L425.388 257.88H424.332Z" fill="#667085"/>
<path d="M475.476 255.6V264H477.96C478.824 264 479.568 263.832 480.204 263.484C480.84 263.136 481.332 262.644 481.668 262.008C482.004 261.372 482.184 260.64 482.184 259.8C482.184 258.96 482.004 258.228 481.668 257.592C481.332 256.968 480.84 256.476 480.204 256.128C479.568 255.78 478.824 255.6 477.96 255.6H475.476ZM477.96 263.04H476.52V256.56H477.96C478.968 256.56 479.736 256.86 480.288 257.436C480.84 258.012 481.116 258.804 481.116 259.8C481.116 260.796 480.84 261.588 480.288 262.164C479.736 262.752 478.956 263.04 477.96 263.04ZM483.504 259.296C483.264 259.776 483.144 260.316 483.144 260.94C483.144 261.564 483.264 262.104 483.516 262.584C483.768 263.064 484.128 263.424 484.584 263.688C485.04 263.952 485.568 264.072 486.18 264.072C486.876 264.072 487.464 263.88 487.944 263.484C488.424 263.088 488.724 262.572 488.844 261.948H487.848C487.74 262.344 487.536 262.656 487.224 262.872C486.912 263.088 486.54 263.196 486.108 263.196C485.532 263.196 485.076 263.016 484.728 262.656C484.368 262.296 484.188 261.816 484.176 261.216V261.132H488.928C488.94 260.94 488.952 260.808 488.952 260.712C488.928 260.124 488.796 259.608 488.556 259.164C488.304 258.732 487.968 258.396 487.536 258.156C487.104 257.928 486.6 257.808 486.048 257.808C485.472 257.808 484.968 257.94 484.536 258.204C484.092 258.468 483.744 258.828 483.504 259.296ZM487.932 260.316H484.236C484.284 259.836 484.476 259.44 484.836 259.128C485.184 258.828 485.592 258.672 486.06 258.672C486.576 258.672 487.008 258.816 487.344 259.104C487.68 259.392 487.884 259.8 487.932 260.316ZM494.634 263.496C495.102 263.112 495.402 262.572 495.534 261.888H494.55C494.454 262.296 494.262 262.62 493.962 262.848C493.65 263.088 493.278 263.196 492.834 263.196C492.246 263.196 491.766 262.992 491.406 262.572C491.046 262.152 490.866 261.6 490.866 260.928C490.866 260.268 491.046 259.728 491.406 259.308C491.766 258.9 492.246 258.684 492.834 258.684C493.266 258.684 493.626 258.804 493.938 259.032C494.238 259.272 494.442 259.584 494.538 259.968H495.534C495.414 259.296 495.114 258.768 494.646 258.384C494.178 258 493.59 257.808 492.87 257.808C492.27 257.808 491.754 257.94 491.298 258.204C490.842 258.468 490.482 258.828 490.23 259.296C489.978 259.776 489.858 260.316 489.858 260.928C489.858 261.552 489.978 262.092 490.23 262.572C490.47 263.052 490.818 263.412 491.274 263.676C491.718 263.94 492.234 264.072 492.834 264.072C493.554 264.072 494.154 263.88 494.634 263.496Z" fill="#667085"/>
<g style="mix-blend-mode:multiply" opacity="0.1">
<path d="M93.5184 158.768L84 161.193V242H504V131.74L495.076 135.767H485.558L481.096 139.537H475.147C473.561 140.166 470.269 141.423 469.793 141.423C469.317 141.423 466.224 142.177 464.737 142.554L451.946 143.685L444.51 145.193L432.612 143.685L426.365 142.554L417.442 145.193H408.221L400.487 142.554C397.513 142.177 391.445 141.423 390.969 141.423C390.493 141.423 386.606 140.668 384.722 140.291H379.963L368.66 141.423L358.844 142.554L354.382 145.193L340.997 146.325L334.156 147.456L326.422 149.341L318.986 153.866H315.714L306.79 152.735L298.164 149.341L290.728 147.456H286.266L278.533 146.325L267.527 147.456H257.116L246.705 149.341L236.295 151.604L228.561 153.866L220.232 154.997L208.929 153.866L200.006 154.997L191.082 156.128L182.754 154.997L171.45 157.637L161.932 156.128L152.414 157.637H143.193L133.377 158.768H123.263L113.15 159.899L103.334 157.637L93.5184 158.768Z" fill="url(#paint0_linear_7877_101743)"/>
</g>
<path d="M84 161.193L93.5184 158.768L103.334 157.637L113.15 159.899L123.263 158.768H133.377L143.193 157.637H152.414L161.932 156.128L171.45 157.637L182.754 154.997L191.082 156.128L200.006 154.997L208.929 153.866L220.232 154.997L228.561 153.866L236.295 151.604L246.705 149.341L257.116 147.456H267.527L278.533 146.325L286.266 147.456H290.728L298.164 149.341L306.79 152.735L315.714 153.866H318.986L326.422 149.341L334.156 147.456L340.997 146.325L354.382 145.193L358.844 142.554L368.66 141.423L379.963 140.291H384.722C386.606 140.668 390.493 141.423 390.969 141.423C391.445 141.423 397.513 142.177 400.487 142.554L408.221 145.193H417.442L426.365 142.554L432.612 143.685L444.51 145.193L451.946 143.685L464.737 142.554C466.224 142.177 469.317 141.423 469.793 141.423C470.269 141.423 473.561 140.166 475.147 139.537H481.096L485.558 135.767H495.076L504 131.74" stroke="#12B76A" stroke-width="2" stroke-linecap="round" stroke-linejoin="round"/>
<path d="M84 190.527L93.5184 188.982L103.334 188.262L113.15 189.703L123.263 188.982H133.377L143.193 188.262H152.414L161.932 187.301L171.45 188.262L182.754 186.58L191.082 187.301L200.006 186.58L208.929 185.86L220.232 186.58L228.561 185.86L236.295 184.419L246.705 182.978L257.116 181.777H267.527L278.533 181.056L286.266 181.777H290.728L298.164 182.978L306.79 185.139L315.714 185.86H318.986L326.422 182.978L334.156 181.777L340.997 181.056L354.382 180.336L358.844 178.654L368.66 177.934L379.963 177.213H384.722C386.606 177.453 390.493 177.934 390.969 177.934C391.445 177.934 397.513 178.414 400.487 178.654L408.221 180.336H417.442L426.365 178.654L432.612 179.375L444.51 180.336L451.946 179.375L464.737 178.654C466.224 178.414 469.317 177.934 469.793 177.934C470.269 177.934 473.561 177.133 475.147 176.733H481.096L485.558 174.331H495.076L504 171.766" stroke="#F04438" stroke-width="2" stroke-linecap="round" stroke-linejoin="round"/>
<path d="M39 49C39 41.8203 44.8203 36 52 36H536C543.18 36 549 41.8203 549 49H547C547 42.9249 542.075 38 536 38H52C45.9249 38 41 42.9249 41 49H39ZM548 312H40H548ZM39 312V49C39 41.8203 44.8203 36 52 36V38C45.9249 38 41 42.9249 41 49V312H39ZM536 36C543.18 36 549 41.8203 549 49V312H547V49C547 42.9249 542.075 38 536 38V36Z" fill="#FCFCFD" mask="url(#path-1-inside-1_7877_101743)"/>
</g>
<defs>
<filter id="filter0_d_7877_101743" x="-1" y="0" width="590" height="357" filterUnits="userSpaceOnUse" color-interpolation-filters="sRGB">
<feFlood flood-opacity="0" result="BackgroundImageFix"/>
<feColorMatrix in="SourceAlpha" type="matrix" values="0 0 0 0 0 0 0 0 0 0 0 0 0 0 0 0 0 0 127 0" result="hardAlpha"/>
<feOffset dy="4"/>
<feGaussianBlur stdDeviation="20.5"/>
<feComposite in2="hardAlpha" operator="out"/>
<feColorMatrix type="matrix" values="0 0 0 0 0.858333 0 0 0 0 0.858333 0 0 0 0 0.858333 0 0 0 0.25 0"/>
<feBlend mode="normal" in2="BackgroundImageFix" result="effect1_dropShadow_7877_101743"/>
<feBlend mode="normal" in="SourceGraphic" in2="effect1_dropShadow_7877_101743" result="shape"/>
</filter>
<linearGradient id="paint0_linear_7877_101743" x1="294" y1="131.74" x2="294" y2="237.091" gradientUnits="userSpaceOnUse">
<stop stop-color="#B5AEFF"/>
<stop offset="1" stop-color="#7F56D9" stop-opacity="0"/>
</linearGradient>
</defs>
</svg>
