<svg width="141" height="141" viewBox="0 0 141 141" fill="none" xmlns="http://www.w3.org/2000/svg">
<g filter="url(#filter0_d_7877_101739)">
<path d="M43.835 47.9543C44.4126 41.3521 50.233 36.4683 56.8352 37.0459L88.7134 39.8349C95.3156 40.4125 100.2 46.2329 99.6219 52.8351L96.8329 84.7133C96.2553 91.3155 90.4349 96.1994 83.8327 95.6218L51.9545 92.8328C45.3523 92.2552 40.4684 86.4348 41.046 79.8326L43.835 47.9543Z" fill="white"/>
<g clip-path="url(#clip0_7877_101739)">
<path d="M58.8944 74.702L58.7782 76.0302L82.6868 78.122L82.4544 80.7785L55.8892 78.4544L58.2134 51.8892L60.8699 52.1216L59.1268 72.0455C63.1116 72.3941 67.3288 70.0862 70.5364 65.5485C75.1023 59.2558 79.7644 56.4515 84.5462 56.8698L84.3137 59.5264C80.5946 59.201 76.7643 61.6766 72.7995 67.2188C68.8696 72.3625 63.8089 75.132 58.8944 74.702Z" fill="#D92D20"/>
</g>
</g>
<defs>
<filter id="filter0_d_7877_101739" x="-1" y="-1" width="142.668" height="142.668" filterUnits="userSpaceOnUse" color-interpolation-filters="sRGB">
<feFlood flood-opacity="0" result="BackgroundImageFix"/>
<feColorMatrix in="SourceAlpha" type="matrix" values="0 0 0 0 0 0 0 0 0 0 0 0 0 0 0 0 0 0 127 0" result="hardAlpha"/>
<feOffset dy="4"/>
<feGaussianBlur stdDeviation="20.5"/>
<feComposite in2="hardAlpha" operator="out"/>
<feColorMatrix type="matrix" values="0 0 0 0 0.858333 0 0 0 0 0.858333 0 0 0 0 0.858333 0 0 0 0.25 0"/>
<feBlend mode="normal" in2="BackgroundImageFix" result="effect1_dropShadow_7877_101739"/>
<feBlend mode="normal" in="SourceGraphic" in2="effect1_dropShadow_7877_101739" result="shape"/>
</filter>
<clipPath id="clip0_7877_101739">
<rect width="32" height="32" fill="white" transform="translate(55.7896 49.0002) rotate(5)"/>
</clipPath>
</defs>
</svg>
