<svg width="24" height="24" viewBox="0 0 24 24" fill="none" xmlns="http://www.w3.org/2000/svg">
<g clip-path="url(#clip0_15468_14132)">
<path d="M12 0C8.44004 0 5.24004 1.56 3.04004 4H20.92C18.76 1.56 15.56 0 12 0Z" fill="#3E4347"/>
<path d="M20.9597 4H3.03969C2.03969 5.16 1.19969 6.52 0.679688 8H23.3197C22.7997 6.52 21.9597 5.16 20.9597 4Z" fill="#FFE62E"/>
<path d="M23.32 8H0.68C0.24 9.24 0 10.6 0 12H24C24 10.6 23.76 9.24 23.32 8Z" fill="#ED4C5C"/>
<path d="M24 12H0C0 13.4 0.24 14.76 0.68 16H23.32C23.76 14.76 24 13.4 24 12Z" fill="#3E4347"/>
<path d="M23.3197 16H0.679688C1.19969 17.48 1.99969 18.84 3.03969 20H20.9197C21.9597 18.84 22.7997 17.48 23.3197 16Z" fill="#FFE62E"/>
<path d="M20.96 20H3.04004C5.24004 22.44 8.44004 24 12 24C15.56 24 18.76 22.44 20.96 20Z" fill="#ED4C5C"/>
<path d="M12 16C14.2091 16 16 14.2091 16 12C16 9.79086 14.2091 8 12 8C9.79086 8 8 9.79086 8 12C8 14.2091 9.79086 16 12 16Z" fill="white"/>
<path d="M11.5998 10.3998C12.0416 10.3998 12.3998 10.0416 12.3998 9.5998C12.3998 9.15798 12.0416 8.7998 11.5998 8.7998C11.158 8.7998 10.7998 9.15798 10.7998 9.5998C10.7998 10.0416 11.158 10.3998 11.5998 10.3998Z" fill="#3E4347"/>
<path d="M11.7998 13.2002L11.9998 15.6002H12.1998V13.2002H11.7998Z" fill="#3E4347"/>
<path d="M11.6002 15.3999V15.5999H12.4002V15.1999L11.6002 15.3999ZM13.1602 14.0799C12.7202 13.3999 12.3202 12.7599 11.8802 12.0799C11.7602 11.8799 11.4002 12.0799 11.5202 12.2799C11.8802 12.8399 12.2402 13.3999 12.6002 13.9999H11.1602V14.1999C11.8402 14.1999 12.2802 14.3999 12.9602 14.3999C13.1602 14.3999 13.2402 14.2399 13.1602 14.0799Z" fill="#3E4347"/>
<path d="M12.76 12.0402C12.32 11.8802 11.4 11.6802 12 10.0002H11.28C11.28 10.0002 9.52 13.4802 12.8 13.4802C13.52 13.4802 13.84 14.0802 13.84 14.8002C13.8 14.8002 14.68 12.7202 12.76 12.0402ZM11 13.8002L11.2 14.6002H11.4V13.8002H11ZM11.6 9.2002L10 10.0002H11.6V9.2002Z" fill="#3E4347"/>
<path d="M13.2002 12.2402V13.5602C13.2002 13.5602 13.8402 13.8402 13.5602 14.8002L14.0002 15.0002C14.0002 15.0002 14.7202 13.0802 13.2002 12.2402Z" fill="#ED4C5C"/>
<path d="M11.7998 12C11.7998 12 11.7998 13.04 12.7998 13.04C12.7998 13.04 13.1998 12 11.7998 12Z" fill="#94989B"/>
<path d="M11.36 12.5202C11.5588 12.5202 11.72 12.2337 11.72 11.8802C11.72 11.5268 11.5588 11.2402 11.36 11.2402C11.1612 11.2402 11 11.5268 11 11.8802C11 12.2337 11.1612 12.5202 11.36 12.5202Z" fill="#94989B"/>
</g>
<defs>
<clipPath id="clip0_15468_14132">
<rect width="24" height="24" rx="12" fill="white"/>
</clipPath>
</defs>
</svg>
