<svg width="106" height="36" viewBox="0 0 106 36" fill="none" xmlns="http://www.w3.org/2000/svg">
<g clip-path="url(#clip0_5554_24986)">
<path d="M18.547 11.0156L18.5793 11.0201L18.6118 11.0225C19.4055 11.0808 20.1678 11.357 20.8146 11.8207C20.8153 11.8211 20.816 11.8216 20.8167 11.8221L32.9244 20.6158L32.9305 20.6202L32.9366 20.6245C33.1821 20.7972 33.3989 21.0073 33.5793 21.2471C33.978 21.7988 34.0919 22.3338 33.9265 22.9359C33.7868 23.4053 33.5024 23.8186 33.1138 24.1168L33.1021 24.1258L33.0906 24.1352C29.4877 27.0739 25.8843 30.0115 22.2805 32.9482L22.2699 32.9568L22.2596 32.9656C21.9099 33.2668 21.5406 33.5446 21.1542 33.7971C20.4276 34.2231 19.5927 34.429 18.751 34.3896L18.7315 34.3887L18.712 34.3885C17.7764 34.3812 16.8667 34.0795 16.1121 33.5263L16.1103 33.525C13.5049 31.6235 10.8969 29.7275 8.28644 27.8369C7.92324 27.573 7.56036 27.3097 7.19783 27.0466C6.11154 26.2584 5.02841 25.4726 3.94937 24.6785L3.94244 24.6734L3.93542 24.6684C3.56268 24.4039 3.27979 24.0317 3.12474 23.6017C3.08855 23.501 3.07188 23.4262 3.04624 23.3112C3.03394 23.256 3.01957 23.1916 3 23.1106V22.779C3.00393 22.7595 3.00749 22.7416 3.01086 22.7246C3.0214 22.6716 3.03016 22.6275 3.04275 22.5714C3.17492 22.0451 3.48257 21.5794 3.91508 21.2513L3.92895 21.2408L3.94246 21.2298C7.73511 18.1389 11.5273 15.0471 15.3189 11.9542C15.8605 11.5141 16.5049 11.2186 17.1918 11.0955L17.1918 11.0956L17.2034 11.0934C17.3411 11.067 17.4629 11.0501 17.608 11.0299C17.6722 11.0209 17.7411 11.0113 17.8179 11H18.4501C18.4823 11.0059 18.5146 11.0111 18.547 11.0156Z" stroke="#C0BFBF" stroke-width="2"/>
<path d="M17.1612 0H18.0453C18.0921 0.011639 18.1396 0.0208112 18.1875 0.0274769C19.254 0.105752 20.2781 0.47714 21.1468 1.10066L34.3498 10.6898C34.7132 10.9454 35.034 11.2569 35.3002 11.6126C35.9095 12.4515 36.1341 13.3776 35.8497 14.4006C35.6331 15.137 35.1883 15.7856 34.5793 16.2528C30.6519 19.4562 26.7239 22.6585 22.7954 25.8597C22.3712 26.225 21.9231 26.5614 21.4539 26.8667C20.4742 27.4471 19.346 27.7281 18.2085 27.6748C16.9597 27.665 15.7456 27.2624 14.7384 26.524C11.8993 24.452 9.05738 22.3859 6.2128 20.3258C4.63374 19.1782 3.05145 18.0356 1.47885 16.8783C0.89097 16.4611 0.444847 15.874 0.200413 15.1958C0.11152 14.9485 0.0662656 14.6835 0 14.4249V13.8188C0.0258597 13.696 0.048486 13.5731 0.075962 13.4519C0.278463 12.6321 0.755941 11.9064 1.42875 11.3961C5.56308 8.02676 9.69687 4.65637 13.8301 1.28491C14.5638 0.688433 15.4369 0.288025 16.3676 0.121218C16.6294 0.0711143 16.8961 0.0404059 17.1612 0Z" fill="#00060E"/>
</g>
<path d="M46.8347 20.352L44.4827 20.32C44.4827 21.04 44.6907 21.68 45.0907 22.256C45.4747 22.832 46.0187 23.296 46.7227 23.616C47.4267 23.936 48.2267 24.096 49.1227 24.096C49.9547 24.096 50.6907 23.952 51.3627 23.632C52.0347 23.328 52.5467 22.912 52.9307 22.368C53.2987 21.824 53.4907 21.216 53.4907 20.528C53.4907 19.824 53.3307 19.264 53.0107 18.848C52.6907 18.432 52.2907 18.112 51.7787 17.904C51.2667 17.696 50.6267 17.52 49.8907 17.376C49.1547 17.248 48.6107 17.12 48.2587 17.024C47.9067 16.928 47.6347 16.784 47.4427 16.624C47.2507 16.464 47.1547 16.224 47.1547 15.92C47.1547 15.504 47.3147 15.184 47.6347 14.96C47.9547 14.736 48.3707 14.624 48.9147 14.624C49.4907 14.624 49.9547 14.784 50.3067 15.072C50.6587 15.36 50.8507 15.744 50.9147 16.224H53.2667C53.2507 15.552 53.0587 14.96 52.6747 14.416C52.2907 13.888 51.7787 13.472 51.1227 13.168C50.4667 12.864 49.7307 12.704 48.9147 12.704C48.1147 12.704 47.3947 12.864 46.7547 13.152C46.1147 13.44 45.6187 13.84 45.2667 14.352C44.9147 14.864 44.7387 15.456 44.7387 16.096C44.7387 16.816 44.8827 17.392 45.2027 17.824C45.5227 18.256 45.9227 18.576 46.4347 18.8C46.9307 19.024 47.5547 19.2 48.2907 19.328C49.0267 19.488 49.5867 19.616 49.9387 19.712C50.2907 19.808 50.5787 19.952 50.7707 20.128C50.9627 20.304 51.0747 20.544 51.0747 20.832C51.0747 21.264 50.8827 21.6 50.5307 21.84C50.1787 22.08 49.7147 22.192 49.1547 22.192C48.4667 22.192 47.9227 22.032 47.5067 21.696C47.0907 21.36 46.8667 20.912 46.8347 20.352ZM55.2827 17.68V21.648C55.2827 23.216 56.0667 24 57.6347 24H59.5067V22.096H58.3387C58.0507 22.096 57.8427 22.032 57.7147 21.904C57.5867 21.776 57.5387 21.568 57.5387 21.28V17.68H59.4107V15.776H57.5387V13.472H55.2827V15.776H53.9227V17.68H55.2827ZM60.5248 17.68C60.1728 18.32 60.0128 19.056 60.0128 19.904C60.0128 20.752 60.1888 21.488 60.5408 22.128C60.8928 22.768 61.4048 23.248 62.0768 23.584C62.7488 23.936 63.5328 24.096 64.4608 24.096C65.1648 24.096 65.7888 23.984 66.3328 23.728C66.8768 23.472 67.3088 23.136 67.6448 22.688C67.9648 22.256 68.1728 21.76 68.2688 21.216H66.0448C65.9488 21.6 65.7408 21.904 65.4368 22.096C65.1328 22.288 64.7488 22.384 64.3008 22.384C63.7248 22.384 63.2608 22.224 62.9408 21.872C62.6048 21.536 62.4128 21.072 62.3648 20.464V20.4H68.3328C68.3648 20.176 68.3968 19.92 68.3968 19.632C68.3808 18.832 68.1888 18.144 67.8368 17.552C67.4848 16.96 66.9888 16.496 66.3488 16.176C65.7088 15.856 64.9888 15.68 64.1568 15.68C63.3248 15.68 62.6048 15.856 61.9808 16.208C61.3568 16.56 60.8768 17.04 60.5248 17.68ZM66.1408 18.928H62.4128C62.4768 18.448 62.6688 18.08 63.0048 17.792C63.3408 17.504 63.7568 17.36 64.2528 17.36C64.7648 17.36 65.1808 17.504 65.5168 17.776C65.8528 18.048 66.0608 18.432 66.1408 18.928ZM68.6113 15.776L71.2993 24H73.6993L75.1713 19.04L76.6113 24H79.0113L81.7153 15.776H79.4113L77.7313 21.584L76.2273 15.776H74.1953L72.6433 21.568L70.9953 15.776H68.6113ZM90.2257 22.096H89.9697C89.7777 22.096 89.6497 22.064 89.5697 21.984C89.4737 21.92 89.4417 21.776 89.4417 21.568V18.672C89.4417 17.712 89.1217 16.96 88.4817 16.448C87.8417 15.936 86.9457 15.68 85.7937 15.68C84.6737 15.68 83.7937 15.92 83.1217 16.384C82.4497 16.848 82.0657 17.504 82.0017 18.336H84.1777C84.2257 18.032 84.3857 17.792 84.6577 17.6C84.9137 17.424 85.2657 17.328 85.6817 17.328C86.1457 17.328 86.5137 17.44 86.8017 17.664C87.0737 17.888 87.2177 18.176 87.2177 18.544V18.944H85.5857C84.3537 18.944 83.4097 19.184 82.7697 19.664C82.1297 20.144 81.8097 20.816 81.8097 21.68C81.8097 22.448 82.0817 23.056 82.6417 23.472C83.2017 23.888 83.9377 24.096 84.8657 24.096C85.4737 24.096 86.0017 23.984 86.4497 23.728C86.8817 23.488 87.2497 23.136 87.5537 22.656C87.5217 23.552 88.0337 24 89.0737 24H90.2257V22.096ZM87.2177 20.448V20.608C87.2017 21.184 87.0257 21.632 86.6897 21.968C86.3377 22.304 85.8737 22.464 85.2977 22.464C84.9137 22.464 84.6257 22.384 84.4017 22.208C84.1777 22.048 84.0817 21.808 84.0817 21.52C84.0817 21.184 84.2097 20.928 84.4657 20.736C84.7217 20.544 85.0897 20.448 85.5697 20.448H87.2177ZM96.1065 15.776H95.7225C95.1145 15.776 94.6185 15.888 94.2665 16.096C93.8985 16.304 93.5945 16.608 93.3545 17.008L93.1465 15.776H91.0985V24H93.3545V19.968C93.3545 19.312 93.4985 18.784 93.8025 18.4C94.0905 18.016 94.5705 17.824 95.2105 17.824H96.1065V15.776ZM105.072 12.8H102.816V16.8C102.224 16.064 101.392 15.68 100.336 15.68C99.6005 15.68 98.9445 15.856 98.3685 16.208C97.7925 16.56 97.3285 17.04 97.0085 17.68C96.6885 18.32 96.5285 19.04 96.5285 19.872C96.5285 20.72 96.6885 21.456 97.0085 22.096C97.3285 22.736 97.7925 23.232 98.3685 23.584C98.9445 23.936 99.5845 24.096 100.32 24.096C101.392 24.096 102.24 23.696 102.88 22.864L103.104 24H105.072V12.8ZM102.304 21.616C101.936 22.048 101.456 22.256 100.848 22.256C100.24 22.256 99.7445 22.048 99.3765 21.6C99.0085 21.168 98.8325 20.592 98.8325 19.888C98.8325 19.184 99.0085 18.624 99.3765 18.176C99.7445 17.744 100.24 17.52 100.848 17.52C101.456 17.52 101.936 17.744 102.304 18.176C102.656 18.624 102.848 19.2 102.848 19.904C102.848 20.608 102.656 21.184 102.304 21.616Z" fill="black"/>
<defs>
<clipPath id="clip0_5554_24986">
<rect width="35.9709" height="36" fill="white"/>
</clipPath>
</defs>
</svg>
